<?xml version="1.0" encoding="utf-8"?>
<!-- Generator: Adobe Illustrator 23.0.6, SVG Export Plug-In . SVG Version: 6.00 Build 0)  -->
<svg version="1.1" id="Layer_1" xmlns="http://www.w3.org/2000/svg" xmlns:xlink="http://www.w3.org/1999/xlink" x="0px" y="0px"
	 width="864px" height="864px" viewBox="0 0 864 864" enable-background="new 0 0 864 864" xml:space="preserve">
<g>
	<path d="M280.5721,308.9114c0,0,16.069-20.8706,16.9239-24.7178c0.8549-3.8472,12.3965-29.0677,35.4797-28.2128
		c11.5416,0.8549,28.6402-10.2592,31.6325-13.2515c2.9923-2.9922,0-12.3965,0-12.3965s4.2747,1.2824,5.5571,0
		c1.2824-1.2824,4.7678-4.1128,4.6569-14.0939c3.9924-1.5526,5.8777-7.6522,2.218-12.9754
		c-3.6597-5.3232-8.2067-8.3176-8.2067-17.7442s-2.9429-27.2146-5.1871-28.8176c4.4884-10.5798,6.412-40.7161-21.4802-24.045
		c-11.8622-8.3356-44.2427-13.4652-63.4787,0c-11.8622-13.1446-39.7543-23.4038-35.266,24.6862
		c-16.3506,10.9004-58.3491,23.4038-86.5619,27.5716S50.848,209.8145,42.7262,290.1782
		c-3.4197,26.0754,5.5571,25.6479,2.1373,43.1741c-3.4197,17.5261-6.8395,41.0367,2.1373,53.8607
		c-4.2747,12.824,3.4197,23.9381,24.3656,19.236c16.6712,2.9922,27.7853-0.8549,27.7853-0.8549s14.1064,1.2824,17.0986-0.4275
		c4.2747,1.7099,11.5416-0.4275,11.5416-0.4275s-4.2747-14.1064-7.6944-14.5338c-0.4275-9.4043-3.4197-24.793,1.7099-25.2205
		c5.1296-0.4275,10.6867,30.7776,51.2959,35.9072c-0.4275,4.7021,6.412,6.5536,11.9691,6.6965s41.4642,1.9944,49.1586,0
		c7.6944-1.9944,3.4197-16.1008-5.1296-22.0853c-1.2824-12.824,23.9381-19.6635,23.9381-19.6635s5.5571,5.5571,10.6867,5.5571
		c4.7021,7.6944,17.9536,14.5338,32.4874,14.5338c0-3.4197,6.412-4.2747,12.3965-2.1373c2.5648-1.7099,0.4275-5.5571,2.1373-7.2669
		s5.1296,1.7099,5.1296,1.7099l-0.4275-7.2669l3.8472,2.9923c0,0,3.4197-15.8163-2.1373-23.5107
		c-5.5571-7.6944-22.2282-24.3656-26.5029-26.0754C289.8016,315.8261,280.5721,308.9114,280.5721,308.9114z"/>
	<g>
		<path d="M279.347,430.4933c-7.5993-7.4545-16.0443-12.5937-25.3328-15.4106c-3.9445-0.8441-7.8829-1.2664-11.8213-1.2664
			c-12.3895,0-23.2218,3.945-32.5103,11.8218c-9.0111,7.8834-16.6114,18.1548-22.799,30.8211
			c-1.9728-13.7879-6.4783-23.4987-13.5105-29.1324c-5.6337-4.4989-13.3723-8.0221-23.2218-10.5554
			c-11.8213-2.8102-23.9272-4.222-36.3095-4.222c-6.4783,0-12.8113,0.4223-18.9998,1.2669
			c-0.5672,0.2836-1.2664,0.4223-2.111,0.4223c-28.9937,5.0661-50.3881,19.7052-64.175,43.9093
			C21.5166,470.5374,18,484.1866,18,499.1022c0,15.1997,3.7275,28.2878,11.1886,39.2656
			c7.455,10.9772,17.9444,17.1719,31.4548,18.5771c1.4046,0.2836,2.8102,0.4223,4.222,0.4223
			c7.3158,0,13.9988-1.9001,20.0543-5.7003c6.0504-3.7996,10.6215-8.6548,13.7224-14.5659
			c3.9384-7.3163,5.9112-15.1997,5.9112-23.6436c0-7.0327-1.4783-13.5105-4.4339-19.4217c-2.9556-5.9106-7.111-10.41-12.455-13.5105
			c-5.0666-2.8102-10.8385-4.222-17.3107-4.222c-3.6609,0-7.5993,0.4218-11.8213,1.2664c-3.662,0.8446-5.4894,2.9556-5.4894,6.3329
			c0,2.2564,0.6992,4.1565,2.111,5.6998c1.4056,1.5505,3.233,2.3224,5.4894,2.3224c0.561,0,1.121,0,1.6882,0
			c2.8112-0.5605,5.344-0.8446,7.6003-0.8446c11.2541,0,17.8707,5.9112,19.8434,17.7329c0,1.6887,0,3.2392,0,4.6443
			c0,8.728-2.2564,15.7668-6.7547,21.1103c-4.5066,5.3502-10.8395,8.0222-18.9999,8.0222c-1.1282,0-2.2564-0.1387-3.3774-0.4223
			c-15.1997-3.3779-24.35-14.7774-27.4438-34.199c-0.2836-3.3774-0.4218-6.6099-0.4218-9.7108
			c0-21.1103,7.1775-37.9987,21.5326-50.6646c14.3551-12.6664,32.365-19.2768,54.0419-19.8439
			c9.2885,0.2836,16.8889,3.2392,22.799,8.8662c5.9111,5.6337,8.8667,12.95,8.8667,21.9549c0,1.6887-0.1454,3.3779-0.4218,5.0666
			c-2.2563,15.1997-6.4056,33.5653-12.455,55.098c-6.0565,21.5326-11.334,42.6429-15.8334,63.3314
			c-4.5055,20.688-6.7547,40.7429-6.7547,60.1645v0.4223c0,25.0554,3.9384,42.082,11.8213,51.0869
			c4.783,5.0665,14.6325,8.8667,29.5548,11.4c0.561,0.277,1.121,0.4218,1.6892,0.4218c1.9656,0,3.7265-0.7059,5.2775-2.111
			c1.5438-1.4118,2.3219-2.9551,2.3219-4.6443c0-0.2769,0-0.5605,0-0.8441c-0.8446-6.1881-1.2664-12.5215-1.2664-18.9994
			c0-5.9111,0.2764-11.8218,0.8446-17.7329c1.9656-19.4217,6.7547-45.4532,14.3551-78.1083
			c7.5993-32.6486,12.3823-54.4648,14.3551-65.4425c4.4984-27.0209,12.0987-48.9759,22.799-65.8642
			c2.8102-4.4994,6.9666-9.2885,12.455-14.3551c5.4883-5.0666,10.6214-7.5998,15.4106-7.5998c3.3774,0,6.3329,1.4117,8.8667,4.222
			c6.4711,9.2885,9.7103,22.1003,9.7103,38.421c0,21.678-4.7891,45.7439-14.3551,72.1977
			c-5.3501,15.4833-17.3107,26.5992-35.8877,33.3544c-0.5672,0.2836-2.2563,0.7059-5.0666,1.2664
			c-2.8163,0.5676-4.9283,1.0555-6.3329,1.4778c-1.4118,0.4223-2.7447,1.3391-4.0111,2.7447
			c-1.2664,1.4117-1.9001,3.0277-1.9001,4.8551c0,1.8341,0.6337,3.5228,1.9001,5.0666c1.2664,1.5505,2.8829,2.3218,4.8557,2.3218
			h0.4218c20.2662,0,35.3205,2.2564,45.1762,6.7558c8.1603,7.0388,12.2441,16.3273,12.2441,27.8655
			c0,5.0666-0.8446,10.5554-2.5328,16.4661c-0.5682,0-1.1282,0-1.6892,0c-18.8606,0-35.7495,4.222-50.6646,12.6664
			c-14.9233,8.4439-23.0836,17.8778-24.4882,28.2879c-0.2836,1.1282-0.4228,2.2558-0.4228,3.3773
			c0,5.9112,2.4611,10.6215,7.3895,14.1442c4.9212,3.5161,10.7658,5.2774,17.5216,5.2774c0.8436,0.2775,1.5438,0.4223,2.111,0.4223
			c20.8262,0,38.9815-5.561,54.4647-16.6769c15.4761-11.1159,24.7646-25.2601,27.8656-42.4321
			c0.561-3.3779,0.8446-6.7552,0.8446-10.1331c0-11.5382-3.3784-21.9549-10.1331-31.2434
			c-6.7558-9.2885-15.0615-16.1825-24.91-20.688c-3.662-2.5333-8.3057-4.4994-13.9333-5.9111
			c26.1774-10.1326,45.4536-24.2041,57.8421-42.2206c10.1331-14.632,15.1997-31.3817,15.1997-50.2428
			c0-12.3823-2.3946-24.2041-7.1776-35.4654C292.8575,446.4716,286.9463,437.9544,279.347,430.4933z M211.3718,692.0512
			c-5.0666,2.5333-11.3995,3.7997-18.9998,3.7997c-5.0666,0-7.5993-1.5433-7.5993-4.6443v-0.4218
			c2.2492-10.1331,12.9433-18.4322,32.0875-24.9105c7.5993-2.2497,15.4761-3.6548,23.6436-4.2219
			C232.9044,675.4464,223.1931,685.5795,211.3718,692.0512z"/>
		<path d="M836.2395,608.454c-1.9727-0.8446-3.8729-0.9102-5.7003-0.2109c-1.8335,0.7059-3.1664,1.7614-4.011,3.1665
			c-12.1059,26.4604-25.6164,50.8099-40.5314,73.0417c-10.9777,16.3279-21.2562,28.2879-30.8212,35.8877
			c-4.7902,3.6548-9.1503,5.9112-13.0887,6.7552c-7.3229-1.6887-10.9777-8.8662-10.9777-21.5326
			c0-2.5333,0.1382-5.3435,0.4218-8.4439c1.4056-7.3163,4.223-18.1548,8.4449-32.5098c4.2219-14.3551,6.8939-25.6097,8.0221-33.7767
			c0-1.9661,0-3.8002,0-5.4888c0-13.5105-4.9283-24.2042-14.7779-32.0881c-2.8163-1.9656-5.9838-3.7996-9.4994-5.4883
			c-3.5227-1.6887-6.6892-3.0216-9.4994-4.011c-2.8174-0.9828-6.4783-2.177-10.9777-3.5888
			c-4.5056-1.4051-8.0222-2.5333-10.5549-3.3779c0.8436-1.9656,1.6882-3.9384,2.5328-5.9106
			c1.4056-3.9384,2.111-8.0221,2.111-12.2441c0-7.5999-2.0444-14.1442-6.122-19.6325c-4.0838-5.4889-9.3612-8.233-15.8324-8.233
			h-0.4228c-5.6337,0-10.1331,2.0449-13.5105,6.122c-3.3773,4.0833-5.0665,9.0771-5.0665,14.9883
			c0,1.4117,0.1392,2.9556,0.4228,4.6443c1.4046,13.5104,5.7658,23.6436,13.0877,30.3988c1.2095,0.8068,2.381,1.5754,3.5667,2.3586
			c-9.5449,29.8824-21.4254,56.6795-35.6542,80.394c-11.5449,18.5775-19.9888,27.8661-25.3328,27.8661
			c-2.2563,0-3.9445-0.9833-5.0665-2.9556c-3.1-5.0665-4.6438-12.521-4.6438-22.3772v-8.4439
			c0.8436-14.0715,5.2048-36.5869,13.0877-67.5535c2.8112-14.0715,4.223-22.799,4.223-26.1769c0-2.5333-1.1282-4.4988-3.3784-5.9106
			c-4.5056-3.6548-9.7103-5.4888-15.6215-5.4888c-8.7275,0-16.1887,3.7997-22.3773,11.3995
			c-1.9728-6.4716-5.9111-11.96-11.8213-16.4661c-6.4783-4.4988-14.355-6.7552-23.6436-6.7552
			c-7.6004,0-15.7668,1.5505-24.4882,4.6442c-13.5105,5.0666-25.1946,13.5832-35.0431,25.5437
			c-9.8567,11.9667-16.4661,25.1214-19.8445,39.4764c-0.9861,4.9166-1.6165,9.3392-1.9119,13.2924
			c-8.6392,9.6823-17.152,18.3569-25.5309,25.9727l-10.1331,7.5999c-5.3502,3.945-10.7003,7.1776-16.0433,9.7108
			c-9.0121,4.7896-16.7506,7.1776-23.2218,7.1776h-3.3773c-13.5115-2.2497-20.2662-13.5105-20.2662-33.7767
			c0-3.9384,0.561-9.849,1.6892-17.7324c5.343-0.561,10.1321-1.4052,14.3551-2.5333c22.2318-5.3434,37.8533-15.3384,46.8644-29.9771
			c3.6548-5.627,5.4893-11.6764,5.4893-18.1547c0-12.9433-5.3501-21.8096-16.0443-26.5992
			c-5.6337-2.8102-12.1059-4.2219-19.4217-4.2219c-9.8557,0-19.8434,2.3945-29.9765,7.1775
			c-12.9505,5.9106-23.789,15.1337-32.5103,27.6547c-8.7275,12.5277-14.2169,25.9655-16.4661,40.3206
			c-0.5671,5.6343-0.8446,9.8562-0.8446,12.6664c0,10.7003,2.2502,20.5498,6.7557,29.5547
			c6.4712,13.5104,17.7325,23.3661,33.7767,29.5542c6.4711,2.8169,13.5105,4.222,21.1098,4.222
			c11.2552,0,22.8-2.9551,34.6213-8.8662c16.2864-8.0397,33.1484-21.2823,50.5842-39.6675
			c1.4737,6.6584,3.9579,12.8466,7.4688,18.5572c6.0493,9.8557,13.9988,17.3107,23.8545,22.3773
			c8.4449,4.5056,16.3217,6.9001,23.6436,7.1776h1.2674c16.3207,0,29.8312-10.6942,40.5314-32.0881
			c3.0938,20.2662,10.9777,34.7662,23.6436,43.4875c5.9111,4.222,12.6659,6.3329,20.2662,6.3329
			c5.0665,0,10.1331-1.1282,15.1996-3.3774c4.783-2.2563,10.1331-6.617,16.0433-13.0887
			c11.5388-13.5105,23.2218-33.9149,35.0441-61.22c6.808-15.9619,12.087-29.5056,15.8405-40.64
			c9.1401,6.3124,13.7142,15.774,13.7142,28.3958c0,1.9723-0.1454,3.7997-0.4228,5.4889c-0.2836,3.945-1.55,11.9667-3.8002,24.0654
			c-2.2554,12.1059-3.3774,21.678-3.3774,28.7101c0,2.8174,0.1392,5.6343,0.4228,8.4445
			c1.9656,18.0099,9.9877,31.804,24.0654,41.3766c7.5993,5.3434,14.7769,8.1603,21.5326,8.4439c0.561,0,0.9828,0,1.2664,0
			c9.8495,0,19.9827-4.9279,30.3994-14.7774c5.343-4.7891,10.6942-10.7003,16.0443-17.7324
			c17.7324-23.0764,34.7595-51.3643,51.0864-84.8641c1.9666-4.7825,2.9556-8.1603,2.9556-10.1331
			C840.0387,611.9767,838.7723,609.8658,836.2395,608.454z M406.0089,563.2778c1.9666,0.5671,3.8002,1.5505,5.4893,2.9556
			c4.4994,3.3773,6.7547,7.1776,6.7547,11.3995c0,6.1948-4.0827,12.5277-12.2441,18.9993
			c-8.1665,6.4783-15.6215,10.839-22.3762,13.0887c-5.0666,1.6887-10.2785,2.955-15.6225,3.7996
			C374.4824,587.0668,387.1483,570.3167,406.0089,563.2778z M560.1146,619.0095c-5.0665,22.522-11.3995,38.9881-18.9988,49.3981
			c-5.3501,6.7552-10.5559,10.1331-15.6225,10.1331h-1.2664c-10.4167-2.2497-15.6215-12.6664-15.6215-31.2434v-4.6443
			c0.8446-19.6985,4.8557-36.6596,12.0332-50.876c7.1776-14.2102,17.6598-23.855,31.4538-28.9215
			c9.0049,2.5333,13.5105,9.5726,13.5105,21.1103C565.603,586.2222,563.7694,597.8991,560.1146,619.0095z M675.3781,545.5453
			c0.2764,0,0.6992,0,1.2664,0c3.6548,2.2559,5.4883,6.4778,5.4883,12.6659c0,4.222-0.8436,8.167-2.5328,11.8218
			c-4.7891-3.9384-7.6003-10.41-8.4439-19.4216C671.4326,547.2341,672.8443,545.5453,675.3781,545.5453z"/>
	</g>
	<g>
		<path d="M363.56,440.4058c3.5002-0.7504,7.3178-0.4372,11.4466,0.9383c8.1306,2.5041,13.8217,8.8196,17.0762,18.9528
			c3.3774,10.3849,1.7506,21.9549-4.8792,34.715c-2.3782,4.6299-5.1925,9.0075-8.4439,13.1358
			c-2.627,3.3774-4.9437,5.817-6.9431,7.3183c-1.6277,1.252-3.6302,2.5655-6.0053,3.9404
			c-2.8788,1.7532-5.6286,3.2545-8.2566,4.5035c-7.0076,3.2545-11.7599,4.1283-14.2609,2.6274
			c-3.879-2.3751-5.817-7.1309-5.817-14.2614c13.5105-3.3779,23.6436-10.6317,30.3994-21.7676
			c2.501-4.1283,4.5649-8.8811,6.1917-14.2614c0.6245-2.1259,1.25-4.3776,1.8765-6.7552c0.3757-1.6247,0.7514-3.6272,1.1261-6.0048
			c1.5019-7.2538,1.0002-12.3849-1.5008-15.3875c-2.0024-2.501-4.8178-3.3774-8.4449-2.627
			c-1.251,0.2518-2.627,0.8149-4.1278,1.6887l-1.8765,1.3135l-1.8766,1.1261c-3.1286,1.8765-6.38,2.0024-9.7574,0.3752
			c-5.6296-2.7503-8.1952-5.8789-7.6935-9.3827c0.3747-0.7504,0.9377-1.938,1.6882-3.5652
			c0.8743-1.8766,1.6892-3.8759,2.4396-6.0049c2.2523-5.6291,3.9404-10.8835,5.0666-15.7622
			c3.3773-13.8862,1.6247-20.642-5.2539-20.2662c-4.7564,0.3752-8.8842,10.6342-12.3854,30.7745
			c1.3749,12.2615,1.938,24.9571,1.6892,38.0929l-1.3135,51.2286c-0.8773,8.5084-4.5035,12.5723-10.8835,12.197
			c-4.6304-0.3752-7.196-3.6886-7.6935-9.9453c0.3747-7.6295-0.127-28.0831-1.5019-61.3618
			c-0.5016-12.5082-1.0637-24.3945-1.6892-35.6533c-0.5006-10.7576-0.8763-17.3869-1.1251-19.8911
			c-0.5016-5.2544,0.6245-7.629,3.3774-7.131c1.249,0.1264,3.6272,0.5016,7.1304,1.1261c4.0029,0.8768,7.1929,6.1922,9.5701,15.9501
			c1.3759-4.7528,2.9382-8.6932,4.6919-11.8218c1.3749-2.2517,2.8757-4.1897,4.5035-5.817l0.9378-0.7509l1.3135-1.1256
			c1.3759-0.7509,2.9382-1.2495,4.6919-1.5013c4.8792-0.3752,10.819,2.1903,17.8266,7.6935
			c3.7531,2.8793,6.0043,6.9431,6.7557,12.1975c0.6245,4.1283,0.1873,8.8836-1.3135,14.2614
			C368.8139,429.6482,366.5627,435.2778,363.56,440.4058z"/>
		<path d="M435.4286,470.2421c0.2498,0.6276,0.563,1.252,0.9388,1.8766l1.3135,2.8148c1.1251,2.5041,2.1867,4.8787,3.19,7.1304
			c3.1255,6.38,5.5027,11.0099,7.1305,13.8862c2.501,4.5035,5.3767,10.0103,8.6323,16.5132
			c3.6261,7.131,5.5027,11.0099,5.6286,11.6345c0,0.8768-0.2519,1.6273-0.7504,2.2518c-0.5016,0.6275-1.0637,0.9382-1.6882,0.9382
			c-1.0033,0-2.3167-1.3749-3.9414-4.1283c-1.378-2.501-3.7531-6.9431-7.1305-13.3231c-3.3773-6.6293-5.7555-11.4466-7.1304-14.4492
			c-0.6276-1.1256-1.5019-2.8763-2.627-5.2539l-1.6892-3.19l-1.5008-3.3779c-2.8798-5.5032-4.6304-9.1304-5.2549-10.8835
			c-2.627,1.252-5.3184,2.2518-8.0682,3.0022c-2.0025,0.5016-3.9415,0.8768-5.818,1.1261
			c-0.5006,32.777-1.1251,49.5395-1.8755,50.2899c-0.3757,0.2493-1.379,0.2493-3.0027,0c-1.6277-0.3752-3.3159-0.9382-5.0666-1.6887
			c-4.7563-2.1259-7.1949-4.5649-7.3188-7.3183v-58.3591c0-34.651-0.3133-54.4187-0.9377-59.2974
			c-0.5016-3.8764-0.1259-6.38,1.1261-7.5062c0.4975-0.3752,1.0606-0.563,1.6882-0.563l1.6892,0.1879
			c9.5056,3.0021,14.3234,6.5679,14.4493,10.6962c-0.1259,3.2545-0.1884,10.0098-0.1884,20.2662
			c2.2523-11.0069,4.7533-18.2638,7.5062-21.7676c5.3778-6.8786,12.0711-9.4441,20.0789-7.6935
			c2.627,0.627,5.3153,2.4391,8.0692,5.4418c2.3741,2.5041,4.0633,5.131,5.0666,7.8814c0.7504,1.7532,1.4363,4.442,2.0639,8.0687
			c0.6245,4.3806,0.8119,8.8841,0.5631,13.511c-0.6276,12.7601-4.6304,23.0191-12.0097,30.7746
			C444.5594,463.8621,440.1819,467.3659,435.4286,470.2421z M416.8515,458.2325l-0.1884,12.5727
			c1.5018-0.6245,2.9382-1.3135,4.3161-2.0644c1.7506-0.8738,3.3784-1.8766,4.8792-3.0022
			c4.0019-2.7503,7.1305-5.9403,9.3827-9.5701c4.7523-8.0047,7.3178-17.7626,7.6935-29.2737
			c0.6245-12.1325-1.6892-20.8288-6.9431-26.0832c-4.1288-4.2516-8.1337,1.1261-12.0096,16.1379
			c-1.5008,5.7556-2.9413,12.7601-4.3162,21.0167C418.6635,444.3463,417.7248,451.102,416.8515,458.2325z"/>
		<path d="M508.0496,390.1154c9.3817,0,15.9501,9.7579,19.7032,29.2737c1.8765,9.7574,2.8143,22.8318,2.8143,39.2185
			c0,19.0172-2.5655,35.7797-7.6935,50.2904c-4.7554,13.511-10.6962,20.5155-17.8266,21.0166h-2.0639l-2.628-0.1873
			c-2.3772-0.3752-4.6909-1.0647-6.9431-2.0644c-6.0043-2.627-10.8221-7.629-14.4482-15.0118
			c-3.2545-6.6293-5.1925-15.5104-5.818-26.6463c-0.2518-3.8765-0.3747-8.4444-0.3747-13.6983v-6.3806l0.1873-5.6291
			c0-5.5037,0.6245-12.1975,1.8766-20.0789c0.8743-5.7525,2.0639-11.9452,3.5657-18.577
			c2.501-10.7576,7.1304-19.0142,13.8862-24.7697C497.5407,392.3672,502.7946,390.1154,508.0496,390.1154z M519.4962,507.5846
			c4.8782-14.0096,7.3178-30.3349,7.3178-48.9769c0-16.2608-0.8763-29.0854-2.627-38.4681
			c-1.5009-7.7555-3.879-14.1969-7.1304-19.328c-3.0027-4.6269-6.0054-6.9431-9.007-6.9431
			c-6.2572,0-10.7607,10.1331-13.5115,30.3994c-1.7527,12.5108-2.627,23.9574-2.627,34.3398
			c0,18.1404,1.5633,33.4665,4.6909,45.9742c3.0027,12.6372,6.8172,18.9528,11.4476,18.9528
			C511.9255,523.5347,515.7431,518.2188,519.4962,507.5846z"/>
		<path d="M606.7527,394.2437c1.7496,0,2.627,0.689,2.627,2.0644c-0.1259,1.5013-1.0647,2.3777-2.8153,2.627H581.983
			c0.6245,8.0073,0.9992,27.2093,1.1251,57.6087c0.2498,28.1476,0.2498,46.6018,0,55.3564
			c-0.2518,6.0048-0.8149,9.9457-1.6882,11.8223c-0.8774,1.7532-2.6915,2.8148-5.4423,3.19l-3.3774,0.3752
			c-1.378,0-2.5041-0.2493-3.3784-0.7504c-2.2512-1.5013-3.5032-5.3158-3.752-11.4466c-0.2529-6.2541-0.3757-21.5802-0.3757-45.9747
			l0.1873-29.0854c0-10.5083,0-18.3252,0-23.4562c-0.1259-10.2565,0-16.138,0.3757-17.6393h-23.832
			c-1.8765-0.2493-2.8143-1.1256-2.8143-2.627c0-1.3754,0.8732-2.0644,2.627-2.0644c1.1261,0,5.691-0.0614,13.6989-0.1873
			l38.0928-0.1878C601.1846,394.1209,605.6266,394.2437,606.7527,394.2437z"/>
		<path d="M683.6879,392.5551c1.5019,0,2.3751,0.9383,2.628,2.8148v130.7918c-0.2529,1.9999-1.1261,3.0026-2.628,3.0026
			c-1.3779,0-2.1284-0.8768-2.2512-2.627c0-0.6245,0-3.0641,0-7.3183v-5.8174l-0.1873-5.4418c0-0.8738-0.0645-3.19-0.1884-6.9431
			v-5.4418l-0.1873-6.0048c-0.2518-10.8835-0.3757-18.4511-0.3757-22.7058v-2.2517H657.23c-2.627,0-5.817-0.0614-9.5701-0.1873
			l-9.9457,0.1873c-0.6276,34.6541-1.4394,54.8583-2.4396,60.6108c-0.1259,0.8768-0.8763,1.6277-2.2512,2.2523
			c-1.8765,0.7504-4.569,1.1256-8.0692,1.1256c-5.3809-0.1259-7.3833-18.3252-6.0054-54.606
			c0.6245-34.0265,1.0002-56.5445,1.1262-67.5539c0-6.5034,0.8743-10.6317,2.627-12.3849c1.1261-1.1261,3.8145-1.6247,8.0692-1.5013
			c2.501,0,4.1902,1.378,5.0666,4.1283c0.3757,1.1261,0.6859,2.5655,0.9377,4.3162l0.563,4.6908
			c0.8743,6.5065,1.0616,24.3945,0.563,53.6683c5.8795,0,12.3209,0.0645,19.3285,0.1873
			c13.8862,0.1264,21.7026,0.1879,23.4562,0.1879c0.1229-9.7579,0.3102-23.3918,0.5631-40.9077
			c0.1228-14.3848,0.1873-22.2661,0.1873-23.6441C681.5595,393.3055,682.3099,392.4317,683.6879,392.5551z"/>
		<path d="M767.001,398.372c-2.0024-0.2493-6.9431-0.1229-14.8239,0.3752l-4.5035,0.1879l-4.1288,0.1878
			c-3.1276,0.1259-5.4412,0.1873-6.9431,0.1873c-0.6265,0-1.7526,0-3.3773,0l-4.3162-0.1873c-3.879,0-7.069,0-9.5701,0
			c1.249,4.3801,1.6247,9.8839,1.1262,16.5132c-0.3757,13.7628-0.7504,28.2735-1.1262,43.5346h2.4396h3.0026h6.5674
			c5.5037,0.1259,8.5678,0.1879,9.1954,0.1879c1.8765,0,2.7498,0.7504,2.627,2.2517c0,1.378-0.9388,2.1903-2.8153,2.4391h-21.204
			c-0.7504,27.5231-1.3135,44.4734-1.6892,50.8535c-0.1259,2.7534-0.4392,5.0051-0.9377,6.7552
			c4.3776,0.1265,8.318,0.1879,11.8213,0.1879c4.7532,0.1259,8.3804,0.1259,10.8845,0c5.128-0.2493,11.3207-0.4371,18.577-0.563
			c7.8809-0.1234,12.197,0,12.9474,0.3752c0.6245,0.2524,1.1261,0.751,1.5018,1.5013c0.2488,0.7504,0.2488,1.378,0,1.8766
			c-0.3757,1.0027-2.1294,1.5658-5.2549,1.6887c-2.7529,0.1264-7.758,0.2523-15.0113,0.3752
			c-7.3833,0.1265-12.7601,0.1879-16.1384,0.1879h-12.0097c-6.0043,0-10.0092-0.0614-12.0096-0.1879
			c-1.2521,0.2493-3.0016,0.0645-5.2539-0.5626c-2.3782-0.7509-4.0663-2.7503-5.0665-6.0048
			c-0.3747-1.1261-0.689-2.6274-0.9378-4.504l-0.563-4.6909c-0.8774-7.2538-0.6276-27.5201,0.7504-60.7987
			c1.3749-31.9007,2.5624-50.5397,3.5657-55.92c0.1229-0.9997,1.8765-1.5008,5.2539-1.5008c0.4985,0,1.1261,0.0645,1.8765,0.1873
			h2.8143h0.7504c2.0004,0.1264,3.9415,0.2523,5.818,0.3752l6.5674,0.1879c5.2539,0.1259,9.2568,0.1259,12.0097,0
			c2.627-0.1234,5.4423-0.2493,8.4439-0.3752c3.7531-0.1234,7.0659-0.2493,9.9457-0.3752c7.8809-0.2493,12.197-0.2493,12.9474,0
			c0.6245,0.2518,1.1261,0.8149,1.5018,1.6887c0.2488,0.7504,0.2488,1.378,0,1.8765l-0.1884,0.7504l-0.5621,0.563
			c-0.6276,0.3752-0.9388,0.5631-0.9388,0.5631S769.3761,398.4984,767.001,398.372z"/>
		<path d="M819.1664,470.2421c0.2498,0.6276,0.563,1.252,0.9388,1.8766l1.3135,2.8148c1.1251,2.5041,2.1868,4.8787,3.19,7.1304
			c3.1255,6.38,5.5027,11.0099,7.1305,13.8862c2.501,4.5035,5.3767,10.0103,8.6323,16.5132
			c3.6262,7.131,5.5027,11.0099,5.6286,11.6345c0,0.8768-0.2518,1.6273-0.7504,2.2518c-0.5016,0.6275-1.0637,0.9382-1.6882,0.9382
			c-1.0032,0-2.3167-1.3749-3.9414-4.1283c-1.378-2.501-3.7531-6.9431-7.1305-13.3231c-3.3773-6.6293-5.7556-11.4466-7.1304-14.4492
			c-0.6276-1.1256-1.5018-2.8763-2.627-5.2539l-1.6892-3.19l-1.5008-3.3779c-2.8798-5.5032-4.6304-9.1304-5.2549-10.8835
			c-2.627,1.252-5.3184,2.2518-8.0682,3.0022c-2.0025,0.5016-3.9415,0.8768-5.8181,1.1261
			c-0.5006,32.777-1.1251,49.5395-1.8755,50.2899c-0.3757,0.2493-1.379,0.2493-3.0027,0c-1.6277-0.3752-3.3159-0.9382-5.0665-1.6887
			c-4.7563-2.1259-7.1949-4.5649-7.3188-7.3183v-58.3591c0-34.651-0.3132-54.4187-0.9377-59.2974
			c-0.5016-3.8764-0.1259-6.38,1.1262-7.5062c0.4975-0.3752,1.0606-0.563,1.6882-0.563l1.6891,0.1879
			c9.5056,3.0021,14.3234,6.5679,14.4493,10.6962c-0.1259,3.2545-0.1884,10.0098-0.1884,20.2662
			c2.2523-11.0069,4.7533-18.2638,7.5062-21.7676c5.3777-6.8786,12.071-9.4441,20.0789-7.6935
			c2.627,0.627,5.3154,2.4391,8.0693,5.4418c2.3741,2.5041,4.0632,5.131,5.0665,7.8814c0.7504,1.7532,1.4363,4.442,2.0639,8.0687
			c0.6245,4.3806,0.8118,8.8841,0.563,13.511c-0.6276,12.7601-4.6304,23.0191-12.0096,30.7746
			C828.2972,463.8621,823.9197,467.3659,819.1664,470.2421z M800.5894,458.2325l-0.1884,12.5727
			c1.5019-0.6245,2.9382-1.3135,4.3162-2.0644c1.7506-0.8738,3.3784-1.8766,4.8792-3.0022
			c4.0019-2.7503,7.1305-5.9403,9.3828-9.5701c4.7523-8.0047,7.3177-17.7626,7.6935-29.2737
			c0.6245-12.1325-1.6892-20.8288-6.9431-26.0832c-4.1288-4.2516-8.1337,1.1261-12.0096,16.1379
			c-1.5008,5.7556-2.9412,12.7601-4.3162,21.0167C802.4014,444.3463,801.4626,451.102,800.5894,458.2325z"/>
	</g>
</g>
</svg>
