<?xml version="1.0" encoding="utf-8"?>
<!-- Generator: Adobe Illustrator 23.0.6, SVG Export Plug-In . SVG Version: 6.00 Build 0)  -->
<svg version="1.1" id="Layer_1" xmlns="http://www.w3.org/2000/svg" xmlns:xlink="http://www.w3.org/1999/xlink" x="0px" y="0px"
	 width="864px" height="864px" viewBox="0 0 864 864" enable-background="new 0 0 864 864" xml:space="preserve">
<g>
	<g>
		<g>
			<path fill-rule="evenodd" clip-rule="evenodd" fill="#F29FC5" d="M111.0902,622.4561
				c6.6344,2.5538,14.0332,3.0452,21.1224,3.7071c3.8298,0.3531,7.8594,0.6971,11.6956,0.6099
				c2.7198-0.0578,10.0808-0.972,11.9695,0.5117c3.7904-4.065,7.7266-8.1547,12.4351-11.1409
				c3.5984-2.2805,7.198-4.5665,10.7948-6.8483c1.4765-0.9383,1.0001-4.7376,2.1337-6.5385
				c-16.9347,8.4521-33.4329,14.4018-52.3703,15.785c11.7083-2.6678,22.5537-6.0674,33.6774-10.694
				c6.1888-2.5819,12.079-5.7281,18.0529-8.7756c3.0574-1.5574,3.7371-2.2883,5.6693-4.9443
				c1.8146-2.5018,3.7678-5.0037,5.8724-7.2701c-7.3211,3.7737-14.604,7.5942-22.2757,10.607
				c-6.2516,2.4595-13.2359,5.5034-19.9602,4.3268c-1.9971-0.3487-1.0822-1.0834-3.4755,0.199
				c-2.0962,1.1185-4.2027,2.5452-6.424,3.4034c-3.9798,1.5369-7.8754,3.2869-11.8508,4.8493
				c-6.5331,2.5779-14.4594,5.5121-18.8219,10.9742C109.88,621.6013,110.4755,622.2011,111.0902,622.4561"/>
			<path fill-rule="evenodd" clip-rule="evenodd" fill="#F29FC5" d="M87.1844,606.5277c4.086,1.2335,7.9522,2.166,12.0818,2.9618
				c3.6121,0.6912,7.7714-0.2513,11.3897-0.6041c7.8347-0.7576,15.9447-2.5837,23.1163-5.7846
				c4.183-1.8624,8.1921-3.9757,12.2445-6.1118c1.2209-0.6402,0.7678-2.2531,1.2092-3.5621
				c0.5122-1.5307,1.6806-3.1605,2.7166-4.3561c5.1542-5.9542,10.2169-11.5013,16.0893-16.852
				c-18.0667,9.405-36.3537,18.2038-54.8967,26.6238c19.9624-10.9485,39.9268-21.8965,59.8923-32.8423
				c-6.3793,2.038-15.6062,4.7997-22.3091,4.1105c-3.8035-0.3884-7.274-0.1713-10.684,1.6068
				c-3.6914,1.9214-7.6093,3.4627-11.2479,5.4641c-6.8762,3.79-13.7859,7.597-20.2392,12.0716
				C99.1164,594.4133,93.3446,599.8779,87.1844,606.5277"/>
			<path fill-rule="evenodd" clip-rule="evenodd" fill="#F29FC5" d="M158.5923,632.0249
				c13.8371,0.7994,28.9192-3.3521,42.0551-7.4856c8.0173-2.5191,16.0948-4.8774,24.115-7.3761
				c0.6318-0.196,2.7889-0.4698,3.2281-1.0037c0.5356-0.6564,0.5339-3.7251,0.8669-4.6955c1.2458-3.608,3.4265-6.9633,5.289-10.2978
				c-19.1303,9.0615-38.3232,18.706-59.0551,23.571c11.4937-4.8149,23.3454-8.6279,34.5114-14.1711
				c8.1395-4.028,16.3351-7.4111,24.4703-11.4436c2.5077-1.243,3.3587-3.2135,4.9262-5.4814
				c2.0176-2.9291,4.0557-5.7977,6.2129-8.6229c-3.2864,2.3912-5.9079,5.9001-9.1054,8.5193
				c-2.9317,2.4059-5.7289,3.8735-9.16,5.4273c-8.5738,3.8848-33.916,17.9296-42.8033,14.3627
				c-2.1191-0.8505-2.5614-0.173-4.6092,1.1223c-4.5081,2.8506-8.9686,5.7666-13.424,8.6799
				C164.4564,624.2078,157.6634,630.2302,158.5923,632.0249"/>
			<path fill-rule="evenodd" clip-rule="evenodd" fill="#F29FC5" d="M89.9029,578.2229
				c15.5706,4.5942,31.5877-3.4636,45.4331-10.2068c3.6044-1.7551,0.6386-2.2095,2.1129-5.0507
				c1.2616-2.4357,2.3149-4.4829,4.2982-6.5797c5.4624-5.7786,12.003-10.9322,18.7425-15.216
				c-2.5137,0.1352-5.009,0.2175-7.5187,0.2524c-1.4386,0.0134-3.7422,2.0809-4.9369,2.781
				c-5.3239,3.1498-10.6546,6.2984-15.9829,9.4437c-7.7199,4.5622-15.4681,9.7066-22.5129,15.2571
				c10.8921-10.9873,22.7388-19.3511,36.097-27.1699c-5.1443-0.2046-12.4371,0.5411-17.1396-1.8611
				c-2.4931-1.2755-3.553,0.8752-5.4054,2.5471c-3.4832,3.1329-6.9567,6.2741-10.4333,9.4053
				c-4.3164,3.8983-8.0765,8.2037-11.9844,12.5183C97.336,568.027,90.8888,572.9498,89.9029,578.2229"/>
			<path fill-rule="evenodd" clip-rule="evenodd" fill="#F29FC5" d="M86.5768,565.8889c2.6324,0.572,3.1309,0.6113,5.2869-0.9208
				c1.4224-1.0165,2.8891-2.0367,4.2202-3.1761c2.8216-2.3843,5.3844-5.0984,7.8495-7.8634
				c5.6851-6.3766,12.6729-11.78,19.0002-17.5065c-0.0349-0.171-0.5723-1.3857-0.7308-1.5872
				C108.7217,542.8471,95.1374,552.3597,86.5768,565.8889"/>
			<path fill-rule="evenodd" clip-rule="evenodd" fill="#F29FC5" d="M151.2725,597.3456
				c9.3804,0.1237,18.1118-4.7345,26.6191-8.5123c4.6935-2.082,9.2118-4.5423,13.7412-6.9476
				c1.5614-0.8347,7.5679-2.8734,8.0656-4.5844c0.6656-2.295,2.0753-4.3892,3.3545-6.382
				c-4.9725,3.8604-12.2532,5.7407-18.2753,6.0845c-3.4941,0.1996-6.597,2.8215-9.8554,4.7999
				c-3.9108,2.3668-7.8261,4.7367-11.7405,7.1083c2.9203-2.3345,5.8401-4.6683,8.764-7.004
				c2.0073-1.6024,4.0184-3.2032,6.0253-4.8086c0.4984-0.3995,2.5641-1.5471,2.7416-2.1856
				c0.062-0.2411-0.8289-1.6796-0.8237-2.2659c0.0018-0.8761-0.0428-1.4971,0.1405-2.3505
				c0.5088-2.3546,1.8539-4.1937,2.9666-6.3417c-7.1055,5.8423-14.2339,11.6279-20.8039,18.088
				c-2.6426,2.5999-5.2936,5.3412-7.5778,8.2355C153.2924,591.9462,150.629,595.3991,151.2725,597.3456"/>
			<path fill-rule="evenodd" clip-rule="evenodd" fill="#F29FC5" d="M184.9053,608.5693c3.1516,2.2682,10.4518-1.3058,13.6593-2.387
				c6.2686-2.1207,12.2058-4.8138,18.256-7.4975c2.2082-0.9739,7.6244-2.416,7.544-4.6802
				c-0.0904-2.4686,0.625-4.8026,1.4412-7.1241c1.9381-5.5244,3.9589-10.8161,6.173-16.2343
				c-6.3288,7.21-13.3124,14.1132-21.4207,19.2783c-3.9317,2.5077-13.1213,6.1669-13.8607-1.3539
				C195.0151,590.4983,181.5453,607.5081,184.9053,608.5693"/>
			<path fill-rule="evenodd" clip-rule="evenodd" fill="#F29FC5" d="M232.5272,617.9071c3.6097,2.8141,11.7051-1.7299,15.118-3.4418
				c6.4074-3.2197,12.7168-7.1641,18.1934-11.8599c-3.3418-1.6054-3.1288-6.247-2.78-9.3303
				c-5.1776,6.1927-12.8022,11.185-19.35,15.8253c4.7657-4.9269,9.5256-9.8599,14.2948-14.7843
				c-1.4358,1.1644-7.1457,4.8156-8.9118,2.5561c-1.8946-2.4376-2.2279-3.52-1.901-6.9001
				c-3.1216,4.2401-6.4984,8.4797-8.8992,13.1558c-1.1256,2.1828-2.6006,4.193-3.6197,6.4678
				C233.4972,612.2202,233.1199,615.089,232.5272,617.9071"/>
			<path fill-rule="evenodd" clip-rule="evenodd" fill="#F29FC5" d="M88.5086,542.0313c5.1201,1.8094,13.3243-0.8488,18.1206-2.7772
				c2.9485-1.1932,5.6986-2.9165,8.4678-4.4758c1.3518-0.7567,7.3702-5.9702,8.0289-5.241
				c4.4844-7.4686,15.468-12.8616,23.2574-16.2397c9.899-4.2935,19.5597-8.9511,29.6088-12.9514
				c-25.0196,5.468-48.2488,16.9743-69.8723,30.4497c11.1915-8.9152,23.4552-16.4531,36.4134-22.4918
				c13.21-6.1493,26.4986-9.716,40.6414-13.0545c-4.1111-0.4135-9.1413-2.4173-13.0687-1.702
				c-4.6148,0.8387-9.203,1.8277-13.8115,2.7179c-9.4161,1.8229-18.4297,5.2529-27.3234,8.7496
				c-8.9921,3.5345-16.6056,10.4597-24.1653,16.2421C97.8553,526.572,93.1732,534.8259,88.5086,542.0313"/>
			<path fill-rule="evenodd" clip-rule="evenodd" fill="#F29FC5" d="M142.1315,565.0748
				c4.1624,1.8046,10.2085,0.0814,14.5098-0.6274c6.2456-1.03,12.4471-2.576,18.5597-4.2028
				c5.5656-1.4919,13.3866-2.6594,17.2339-6.9027c3.6157-3.9781,8.3039-7.4144,12.4989-10.8231
				c-6.6288,2.0325-13.5174,3.0034-20.0426,5.3427c-9.6522,3.4599-19.3003,6.9178-28.9514,10.3796
				c6.2209-3.229,12.1275-6.7094,18.5607-9.5742c-3.2671-0.035-10.5771,0.3546-10.3188-4.6779
				C161.6341,545.8436,138.7464,562.3416,142.1315,565.0748"/>
			<path fill-rule="evenodd" clip-rule="evenodd" fill="#F29FC5" d="M201.5259,588.6275c3.503,0.371,7.2789-3.2397,10.045-4.9319
				c3.8512-2.3534,8.3385-6.4745,11.3088-9.9081c3.5476-4.1007,7.3761-7.9363,10.8837-12.0954
				c1.7023-2.0173,3.2682-4.1637,4.8934-6.2424c1.4189-1.8014,2.4303-4.3785,3.6826-6.7529
				c-3.7389-0.1277-6.3603-0.1039-6.2206-4.4084c0.0815-2.6541,0.6467-5.4421,1.6857-7.9228
				c-2.5302,0.7784-7.0729,1.2043-9.4196,0.0093c-1.9265-0.9766-10.3607,1.773-12.2665,3.1688
				c-8.2893,6.075-15.4791,13.189-23.1109,19.949c-2.9914,2.6514-5.5057,5.9424-7.4238,9.429
				c-0.2614,0.4882-1.6621,2.7353-1.3616,3.2371c0.4111,0.6899,2.6257,0.2656,3.2552,0.1671
				c8.5478-1.3475,16.3272-7.0603,23.5085-11.5518c5.1162-3.1934,10.1446-6.7889,14.846-10.5692
				c-2.2311,3.2862-4.4946,7.0719-7.5544,9.6606c-2.7463,2.3113-6.1876,5.0688-8.1375,8.0786
				C206.8331,573.0585,200.1463,582.3252,201.5259,588.6275"/>
			<path fill-rule="evenodd" clip-rule="evenodd" fill="#F29FC5" d="M228.9647,593.0311c5.2166-3.4621,9.6583-8.0376,14.1726-12.444
				c5.0274-4.9206,10.6332-9.3021,15.9935-13.8521c-1.0998,4.2222-3.5301,8.3762-4.9843,12.5485
				c-1.4455,4.1149-2.8626,9.1287-2.6527,13.5287c6.2222-3.2727,11.3382-8.4,16.2556-13.4324
				c3.5199-3.6003,6.9356-7.0497,9.998-11.0349c2.0143-2.63,1.2307-7.0483,1.2805-10.2001
				c-2.1175,1.4591-9.262,7.5435-11.3008,6.0264c-2.2946-1.7075-2.9117-9.5784-3.1238-12.2239
				c-3.2125,3.2925-7.1914,6.2704-12.0551,5.4886c-3.619-0.5764-2.5957-5.7067-2.1928-8.0943
				c0.3794-2.2471-0.4739-1.5004-2.4259-1.0112c-1.1142,0.2794-2.2853,4.2397-2.7588,5.2272
				c-3.2576,6.8029-6.6493,13.5645-9.5482,20.531C233.2972,579.6841,228.8667,586.8104,228.9647,593.0311"/>
			<path fill-rule="evenodd" clip-rule="evenodd" fill="#F29FC5" d="M127.5163,534.5137
				c4.4973,2.8321,11.4806,2.3027,16.5817,2.5896c6.3555,0.3563,12.8167-0.4089,19.1656-0.8334
				c1.3705-0.094,3.4226,0.156,4.7184-0.3254c1.3392-0.4907,2.4504-1.8222,3.7343-2.4914c3.0688-1.5971,5.971-3.7808,8.9097-5.6419
				c5.1005-3.2391,10.1348-6.744,15.5443-9.5036c-7.039,0.7869-13.7206,1.3321-20.6199,2.9491
				c-8.9483,2.093-17.8963,4.1926-26.8453,6.2861c2.2163-1.9782,7.217-3.6971,10.1022-4.6579
				c4.2814-1.4366,8.6431-2.5774,13.0109-3.7513c-4.095-0.5125-12.346-1.4447-12.1007-7.1371
				c-7.3444,3.5697-14.8733,6.8611-21.8325,11.0961C136.0245,524.2348,123.1545,532.5241,127.5163,534.5137"/>
			<path fill-rule="evenodd" clip-rule="evenodd" fill="#F29FC5" d="M87.1621,511.0436c5.0661,1.3763,9.7366,1.5049,14.9504,1.6265
				c4.8525,0.1089,7.9554-1.9867,11.8175-4.5058c7.7705-5.0795,16.2458-9.1619,25.1103-11.9424
				C121.5585,497.6881,101.4185,500.0032,87.1621,511.0436"/>
			<path fill-rule="evenodd" clip-rule="evenodd" fill="#F29FC5" d="M168.8818,543.65c3.3944,1.8782,9.7691,0.0222,13.3115-0.7055
				c5.7735-1.192,11.5228-2.457,17.2921-3.7032c5.7326-1.2459,11.4068-3.0486,16.9891-4.8505
				c2.2212-0.7211,4.4377-1.4364,6.6629-2.1521c1.9191-0.6207,1.9366-0.3635,1.8316-2.437c-0.0897-1.8062,1.34-4.8893,2.245-6.453
				c-3.4725,0.2026-7.8603,1.0694-10.0969-2.179c-2.1071-3.0645,0.2669-6.8726,1.4248-9.8499
				c-9.0755,4.6855-18.4467,8.8768-26.9208,15.0912c-4.3116,3.1548-9.249,5.3608-13.4944,8.6863
				C175.2159,537.384,170.2144,540.0726,168.8818,543.65"/>
			<path fill-rule="evenodd" clip-rule="evenodd" fill="#F29FC5" d="M97.1537,492.2538c6.0087,1.2642,12.2415,3.407,18.5055,2.2925
				c6.5735-1.1687,14.0914-3.0448,20.7835-2.7164c-5.7574-2.7147-11.9615-6.1066-18.5507-4.6218
				C110.7633,488.8138,104.1359,489.7884,97.1537,492.2538"/>
			<path fill-rule="evenodd" clip-rule="evenodd" fill="#F29FC5" d="M165.259,513.0042c3.6588,1.5762,7.7503,0.9282,11.4714,1.8165
				c2.0479,0.4911,4.5976,0.0864,6.7029-0.0473c2.3922-0.1578,5.072,0.0839,7.3748-0.7645c2.3448,1.1939,9.9922-1.06,13.1471-1.5618
				c4.9924-0.7952,9.1058-3.4485,13.4438-5.979c-4.1582-1.7087-12.0379-4.4281-8.3232-10.3293
				c-9.5191,1.7896-18.6857,4.7829-28.0316,7.2066c-3.5423,0.9134-7.6927,2.5742-10.9241,4.2881
				C168.936,508.2595,162.8644,511.6951,165.259,513.0042"/>
			<path fill-rule="evenodd" clip-rule="evenodd" fill="#F29FC5" d="M129.6617,483.791c8.6092,5.1292,18.0454,7.1225,27.8725,7.0636
				c-8.4695-3.8434-16.8533-7.7632-25.083-11.9949c-7.2152-3.7108-13.8623-9.3466-20.0572-14.5376
				c8.3006,5.0774,16.8354,10.2544,25.646,14.3937c4.5949,2.1604,9.3393,4.043,13.9993,6.0599
				c3.0288,1.3098,6.061,2.6259,9.0966,3.9408c1.5392,0.6621,3.1524,1.8703,4.8686,1.0347c-0.619-2.6988-7.053-3.9321-9.4772-5.1667
				c-3.0443-1.5524-6.0788-3.1251-9.1186-4.6872c-6.3656-3.273-12.4098-7.3712-18.4731-11.1806
				c-5.9787-3.7542-12.1371-7.8042-17.7613-12.0704c-5.0917-3.8582-10.9403-6.689-17.5331-5.912
				c4.5914,6.3732,8.8274,13.6451,15.2338,18.3589C115.8202,474.1987,122.225,479.2899,129.6617,483.791"/>
			<path fill-rule="evenodd" clip-rule="evenodd" fill="#F29FC5" d="M170.7319,487.6383
				c5.5945,3.2073,14.0355,3.4949,20.4451,3.8417c4.2904,0.2322,8.7054,0.1252,12.9957,0.0243
				c2.4677-0.0558,9.3435,0.6014,10.7522-1.4529c-3.653-1.8786-7.6792-3.782-8.88-7.7453
				c-1.3429-4.4037,6.4589-6.7987,9.0629-7.9113c-4.3859-1.715-8.2696,0.749-12.7981,0.6894
				c-4.6011-0.0537-10.0276,1.9568-14.541,2.9715c-4.2247,0.95-8.3167,2.2899-12.2109,4.1609
				C174.2168,482.8603,166.6335,486.0915,170.7319,487.6383"/>
			<path fill-rule="evenodd" clip-rule="evenodd" fill="#F29FC5" d="M150.9445,476.5674c4.6445,2.1923,9.2891,4.3843,13.9347,6.5748
				c1.5619,0.7405,2.2649-1.1379,3.5054-2.1695c1.7029-1.4007,3.5969-2.2648,5.5798-3.1958
				c-15.2337-7.2226-31.059-15.1141-44.6304-25.2132c-6.9067-5.1396-14.3944-9.6666-20.8415-15.4098
				c-6.5351-5.8215-13.3529-11.421-19.9329-17.2173c15.9632,11.9494,31.8185,23.6646,48.7905,34.1667
				c7.5443,4.6687,15.2863,9.1071,23.2357,13.0912c5.7538,2.8845,11.5109,5.7713,17.2704,8.6588
				c1.765,0.8849,9.1215-2.1925,11.2168-2.7304c-18.4481-8.2306-36.1462-16.7255-52.943-28.0247
				c-15.1058-10.1673-28.8339-23.7336-45.0901-31.7655c-5.5481-2.7433-11.7324-3.8312-17.7727-4.8917
				c4.2542,8.0443,7.8952,16.0841,14.2533,22.6277c6.2165,6.4007,12.8956,11.6567,20.0455,16.9955
				C121.5309,458.4979,136.3927,467.084,150.9445,476.5674"/>
			<path fill-rule="evenodd" clip-rule="evenodd" fill="#F29FC5" d="M169.0094,459.1666
				c6.2791,2.8171,12.5642,5.6371,18.8434,8.4541c2.8058,1.2587,5.6076,2.5196,8.4166,3.7809
				c1.3203,0.588,5.1522-0.8763,6.6936-1.1368c-12.9456-3.9349-26.7557-9.0768-38.4958-15.8598
				c-5.3152-3.0671-24.0628-12.8995-13.7511-19.79c-8.4307-5.5203-16.7268-11.3057-25.1716-16.7645
				c-7.7736-5.0313-14.4614-11.8583-21.7094-17.5639c-13.8364-10.9009-25.3578-25.4184-36.3083-39.0361
				c12.8787,14.529,27.0267,28.1558,42.2386,40.2303c7.334,5.8218,14.5903,12.0219,22.452,17.1238
				c5.6105,3.6423,11.2239,7.284,16.8417,10.9266c2.0251,1.3149,4.0584,2.636,6.0835,3.9472
				c1.4873,0.9669,3.9555,0.2611,5.7036,0.439c1.3765,0.1365,2.7298,0.5465,4.0796,0.7297
				c-8.4652-5.0704-17.7866-9.6604-25.2214-16.1996c-3.1959-2.8157-6.8956-5.4632-9.4409-8.9006
				c-2.1853-2.9489-2.8965-5.4082-5.6929-7.8026c-16.4454-14.0632-32.7803-28.2401-49.0531-42.4544
				c-3.8525-3.3655-7.8256-6.958-12.1204-9.7608c-2.051-1.3358-3.9503-2.8757-6.022-4.2085
				c-2.4442-1.576-5.4633-1.4146-8.3268-1.7539c3.544,9.4303,7.7091,17.9736,13.6377,26.1788
				c5.5941,7.7354,11.3829,15.2791,17.7985,22.3526c14.0511,15.4771,30.0102,29.4355,47.1536,41.4485
				C140.9395,442.8713,154.5448,451.7317,169.0094,459.1666"/>
			<path fill-rule="evenodd" clip-rule="evenodd" fill="#F29FC5" d="M169.902,452.0534c3.4649,0.9136,6.7963,3.1471,10.0705,4.5871
				c3.2992,1.4522,6.6717,2.7565,9.9703,4.2058c7.1506,3.1519,15.0088,5.2543,22.445,7.6084
				c-1.0113-1.1575-1.27-2.5331-1.2755-3.9998c0.0037-1.1384-1.9146-1.4247-2.8739-1.8302
				c-5.7569-2.4454-11.5138-4.8974-17.2688-7.3413c-7.4933-3.1862-14.7073-6.5827-21.934-10.3307
				c7.7011,3.0927,15.727,5.4051,23.4852,8.3758c5.6377,2.1596,11.2781,4.3224,16.9183,6.4822
				c0.8859,0.3394,1.7713,0.6798,2.658,1.0221c1.1983,0.4568,0.4151-0.1963,1.4791-0.5523
				c2.0318-0.6808,3.7855-1.6021,5.9387-2.1126c-2.4774-1.1595-5.6843-4.3291-7.0407-6.6548
				c-1.1041-1.8924-2.7188-6.5767-4.5831-7.469c-7.2677-3.4822-14.5619-6.9043-21.7317-10.5917
				c-13.7861-7.0868-26.5377-15.5429-39.5181-23.9551c20.2211,10.3619,40.4791,20.6561,60.9023,30.6971
				c0.0014-6.1298,12.0845-5.6053,15.949-5.1412c-4.5568-6.7392-12.9529-9.1754-19.9625-13.173
				c-7.7989-4.4532-15.6476-8.7164-23.3538-13.3253c-15.5051-9.2763-31.1192-18.4484-45.4819-29.4493
				c21.2565,13.424,43.7813,24.8907,65.7502,37.1501c-3.7059-3.2463-7.2095-6.8523-9.7522-11.0791
				c-2.6463,0.4256-9.3328-4.5046-12.0653-5.9111c-4.1872-2.1469-8.5808-4.2868-12.4467-6.9533
				c-7.5034-5.1905-15.7473-9.249-23.1774-14.6435c-6.5934-4.785-14.9278-11.0664-23.1529-12.409
				c-2.7264-0.4424-5.611-1.6866-4.5351,2.0654c1.0919,3.804,4.5818,6.9757,7.11,9.8781
				c11.0943,12.7401,26.4662,22.118,40.6291,31.0395c6.8268,4.3029,13.9572,8.3908,21.1198,12.0739
				c7.2436,3.7255,14.4393,8.9012,22.2325,11.4281c-18.4703-6.4778-36.7015-15.5651-53.4392-25.6699
				c-4.1864-2.5304-8.6207-7.0967-13.5085-7.3688c-2.1922-0.1179-6.7319,0.2517-7.6588,2.5535
				c-2.1805,5.3975,11.4494,14.6038,15.1096,17.1604c20.8253,14.5334,43.2946,27.0892,65.8622,38.7092
				c-7.193-3.7127-14.9855-6.5809-22.5078-9.563c-7.63-3.027-15.3764-6.3888-23.4521-8.0131
				c-3.6056-0.7244-7.5341-1.5414-11.2002-1.2021c-1.8363,0.1691-4.3063-0.025-2.7383,2.0795
				C156.73,445.6153,164.2836,449.1484,169.902,452.0534"/>
			<path fill-rule="evenodd" clip-rule="evenodd" fill="#F29FC5" d="M128.1026,398.4403c0.7748-2.4802,5.0023-3.325,7.5011-4.012
				c-4.0317-2.9245-7.6483-6.0452-11.4599-9.2303c-2.8888-2.4107-5.0155-5.5578-7.7907-8.0368
				c-9.2396-8.2622-18.4849-16.5275-27.7252-24.7956c-12.7046-11.3552-24.1242-25.0724-34.1781-38.7541
				c-5.1422-6.9983-10.5571-14.0337-14.5917-21.7449c20.7967,28.2311,44.6272,52.9048,70.8517,76.1266
				c-0.512-3.618-0.1557-5.9815,3.2265-7.424c-15.2618-12.9409-29.6883-25.5972-42.4758-40.9994
				c-6.1788-7.4447-12.603-14.8539-18.096-22.8093c-5.0528-7.3222-10.559-14.1333-17.4791-19.7357
				c-2.9628-2.3954-7.7286-4.944-11.4709-5.8146c2.3988,9.9059,5.1733,19.0051,9.4476,28.2682
				c4.098,8.9036,9.6063,17.0034,15.32,24.9077c5.4352,7.5207,12.5541,13.9438,19.1991,20.3616
				c8.1995,7.923,16.0838,16.5323,24.769,23.9252C104.8037,378.5941,116.4527,388.5177,128.1026,398.4403"/>
			<path fill-rule="evenodd" clip-rule="evenodd" fill="#F29FC5" d="M189.0393,401.8987
				c-1.8481-3.4409-3.2022-6.6645-4.4982-10.3557c-0.7029-1.9894-6.2162-3.6777-8.2168-4.9653
				c-5.1148-3.2903-9.565-7.5055-14.6932-10.841c-13.1313-8.5429-25.6192-17.1671-37.4291-27.4818
				c10.4459,6.585,20.8983,13.1682,31.3498,19.756c-1.4707-1.8596-3.0294-3.6711-4.4125-5.5923
				c-1.2319-1.7104-2.4624-4.5-3.9636-5.8378c-1.3896-1.2352-1.6061-3.5903-3.3886-4.6907
				c-2.7175-1.6684-5.4287-3.3318-8.1421-5.0025c-7.0718-4.3456-15.5155-9.2551-23.7292-10.6976
				c-2.9761-0.521-5.1536-0.743-4.1726,2.5399c1.1987,4.0221,4.7857,7.3756,7.5187,10.3887
				c6.2326,6.8774,13.4209,12.8951,20.7898,18.5575C152.832,380.5732,170.8394,391.1161,189.0393,401.8987"/>
			<path fill-rule="evenodd" clip-rule="evenodd" fill="#F29FC5" d="M118.7777,358.8009
				c-3.5241-3.6031-7.5507-7.0396-10.7231-10.9608c-1.4279-1.7661-2.589-3.6736-3.4772-5.7475
				c-1.0629-2.4742-3.148-4.1889-4.9547-6.1656C93.0308,328.7079,86.712,321.2688,80.669,313.6
				c-12.1951-15.4617-24.3801-32.5023-32.738-50.3934c-7.4671-15.9717-15.5283-31.4012-20.9514-48.2598
				c6.9055,18.0428,16.2528,35.5132,25.9543,52.1814c9.0242,15.4903,19.2229,31.2868,30.8814,44.9075
				c6.488,7.5729,12.9724,15.1469,19.4586,22.7222c1.2156-1.8441,2.2327-3.1582,4.5949-3.0759
				c-6.7406-8.107-13.5838-16.1295-20.212-24.321c-5.9533-7.3577-10.8796-15.4674-16.4638-23.0897
				c-11.7384-16.0333-21.2003-34.3083-30.2478-51.9498c-4.0002-7.8031-8.4805-15.684-10.7819-24.1765
				c-2.2087-8.1505-5.1375-16.4841-9.2026-23.8877c-7.0196,16.8736-0.0059,36.9819,5.0437,53.2155
				c6.1953,19.8921,17.9507,37.0324,29.4081,54.1768c8.1217,12.1615,17.8576,23.6281,27.8175,34.3301
				C94.3585,337.933,106.3212,348.2321,118.7777,358.8009"/>
			<path fill-rule="evenodd" clip-rule="evenodd" fill="#F29FC5" d="M90.1029,263.0725
				c-10.8324-11.3248-23.9876-41.7454-24.5946-43.4845c0.4563,9.2242,1.7402,17.6907,6.7175,25.6582
				c5.0064,8.0164,9.5301,16.2495,15.4231,23.7022c3.0223,3.8213,5.9427,8.0518,9.1901,11.6812
				c2.8568,3.1928,6.5201,6.8898,8.1623,9.4215C103.961,284.6461,100.9353,274.3973,90.1029,263.0725z"/>
			<path fill-rule="evenodd" clip-rule="evenodd" fill="#F29FC5" d="M113.308,330.3969
				c9.2551,2.7451,17.8913,9.0301,26.2505,13.9409c-13.6694-13.1258-27.3243-25.9377-39.5808-40.3483
				c-11.8256-13.9017-20.6483-29.8766-29.962-45.4024c3.1893,3.1229,5.6313,8.2817,8.2233,12.0111
				c2.6964,3.8868,5.498,7.7345,8.2912,11.5474c5.8229,7.9437,12.2205,15.526,18.6265,22.9949
				c6.01,7.0081,12.2645,14.1331,19.0679,20.3905c4.8746,4.4803,9.7495,8.9671,14.6172,13.4459
				c1.5726,1.4417,3.1403,2.8904,4.7091,4.3268c0.9818,0.9055,3.9534,0.3342,5.2864,0.6522
				c1.537,0.3669,3.0677,1.1703,4.5427,1.7325c-7.0704-6.148-13.2593-13.0033-19.9751-19.4697
				c-6.6024-6.3561-11.1751-14.9092-17.9656-20.9598c-15.0327-13.3959-28.0139-27.8572-39.2867-44.5691
				c-3.1522-4.6713-5.8975-9.5492-8.7037-14.4396c-2.0796-3.6316-4.1635-7.2641-6.2437-10.8881
				c-1.3903-2.4202-2.2867-1.7069-2.2016,0.9967c0.3879,11.9275,3.6103,22.3693,8.3466,33.2822
				c0.0223,1.4687,3.3387,5.3508,4.5632,7.3692c1.7587,2.9044,3.799,5.5887,5.6463,8.4301
				c3.5302,5.4409,7.8475,10.3226,11.3828,15.732C96.2419,312.33,104.7403,320.1928,113.308,330.3969z"/>
			<path fill-rule="evenodd" clip-rule="evenodd" fill="#F29FC5" d="M277.7765,604.1879c1.731-2.2805,4.9163-4.1359,7.1576-5.9859
				c2.3995-1.9753,4.4818-4.5208,6.6419-6.7603c2.2368-2.3144,4.1787-4.7554,6.162-7.2806c1.7848-2.2683,2.9957-5.068,4.9076-7.1879
				c1.374,4.2426,2.9836,13.7912,7.4244,16.2432c4.7417,2.6194,5.8035-6.3881,6.0045-9.3359
				c0.3318-4.6824-0.7195-10.9414-3.2027-14.9922c-2.638-4.2953-7.5821-0.7714-11.6626-3.2724
				c3.266-3.852,9.6428-12.186,6.9641-17.6306c-1.1755-2.3935-4.8773-3.6412-5.2997-6.8151
				c-0.4614-3.4615-1.2669-6.2079-4.2982-8.1149c-7.4336-4.6737-17.8737-3.9104-26.0304-6.9245
				c-9.4821-3.5069-18.6165-7.2287-24.6966-15.813c-11.1426-15.7285-6.8723-37.8536-4.1927-55.4928
				c1.5133-9.9512,4.0186-19.8459,4.9314-29.8677c0.9159-10.1035-5.8582-18.5902-12.4012-25.7276
				c-13.7182-14.9626-28.6801-28.9523-43.7232-42.5871c-15.3547-13.911-29.9722-28.4969-44.5795-43.1772
				c-24.7537-24.8723-45.8853-52.783-63.3255-83.1663c1.0548,5.3735,2.1112,10.7483,3.1679,16.1232
				c0.8284,4.2179,3.3625,8.4633,5.1016,12.3664c3.8344,8.612,9.0676,16.527,13.7705,24.6738
				c8.9211,15.4636,20.4588,29.6993,32.549,42.7964c18.0262,19.5267,38.934,35.23,61.1503,49.5996
				c-1.2501,1.8941-0.9929,2.254-2.9559,1.0559c-1.3396-0.818-2.6773-1.628-4.0197-2.435
				c-2.4244-1.4698-4.9203-2.8674-7.2863-4.4296c-4.4198-2.926-9.0762-5.7407-13.3007-8.9536
				c-4.3754-3.3329-8.7091-6.6728-12.9962-10.205c-2.979-2.4545-9.3276-3.6412-13.1172-4.4306
				c2.3878,8.938,10.7155,16.0634,16.619,22.9231c5.8506,6.801,13.8306,11.0741,20.9395,16.3066
				c6.9569,5.1143,16.0823,8.041,23.7628,11.9934c7.9581,4.0951,14.9645,9.2904,21.0483,15.8129
				c0.6046,0.6473,1.4159,1.5473,1.8437,2.3058c0.5864,1.0512-1.1406,1.5929-1.9277,0.6886
				c-1.3327-1.5258-2.7389-2.8788-4.3024-4.1926c-3.1598-2.6608-6.7817-4.3531-10.0371-6.7625
				c-3.3312-2.462-7.5445-3.4857-11.1781-5.3552c-4.2125-2.1762-8.8235-3.9151-13.171-5.8746
				c4.0935,8.4392,8.9147,15.8688,16.8191,21.3314c7.2809,5.0367,15.5712,10.2369,20.8248,17.4293
				c5.3281,7.2998,5.0326,16.5341,2.3286,24.8144c-3.2382,9.9214-5.6303,19.3831-5.7242,29.8734
				c-0.1811,19.1812,10.5692,39.3185,27.9099,48.2161c8.9291,4.5839,19.0519,7.5984,29.196,7.0928
				c1.7504-0.0921,9.5958-0.2502,7.9386,2.9001c-1.4238,2.7169-9.0338,1.7054-11.4648,1.684
				c-1.5582-0.0117-3.3536,3.5661-4.2787,4.7778c-0.3658-1.2633,0.48-3.5511,0.7957-5.0491
				c-1.8199,0.0834-3.6199-0.5194-5.4283-0.6757c0.2803,3.8454,0.7643,7.3538,1.5591,11.1291
				c4.3418-2.3425,9.1415-4.6757,12.4989-8.4401c1.416,2.8806,0.4716,8.5226,0.4626,11.9321
				c-0.0135,5.4301-1.8919,10.4777-3.6623,15.5209c5.9023-1.646,10.4986-7.1561,14.8268-11.1683
				c-0.2849,4.8155-6.1495,11.2752-10.2141,13.389c-1.4594,0.7643-10.6776,6.0488-9.1096,0.0247
				c-3.3293,5.0674-9.9399,12.7927-8.0318,19.206c6.3371-0.377,8.9325-9.6628,14.4625-12.2648
				C279.2824,591.1758,275.5488,598.2954,277.7765,604.1879"/>
			<path fill-rule="evenodd" clip-rule="evenodd" fill="#F29FC5" d="M254.7197,552.9315c3.2104-1.0256,4.9836-2.4783,7.5548-4.7477
				c0.5857-0.5095,2.2639-1.4767,2.2852-2.3057c0.0245-0.6856-1.582-0.5062-2.1635-0.8058
				c-0.7424-0.3708-4.2463,3.7025-4.9735,4.3953c0.5992-1.7388,1.1931-3.4775,1.7953-5.2167
				c0.1379-0.4028-1.3268-0.6806-1.6664-0.8001c-0.5831-0.2025-0.7327,0.6796-0.9738,1.1546
				C255.3631,546.9675,254.148,550.2393,254.7197,552.9315"/>
			<path fill-rule="evenodd" clip-rule="evenodd" fill="#F29FC5" d="M240.7066,544.2158c4.939,0.0556,7.4779-0.3625,11.8353-2.9963
				c-0.4694-0.2396-2.9642-1.9095-3.4907-1.6404c-1.7279,0.8726-3.4478,1.7552-5.1769,2.6259
				c0.9339-1.4271,1.8643-2.8633,2.7978-4.2932c-1.1668-0.5483-2.0885-1.4014-3.0917-2.2118
				C242.5873,538.2596,240.5827,541.4203,240.7066,544.2158"/>
			<path fill-rule="evenodd" clip-rule="evenodd" fill="#F29FC5" d="M230.0131,532.0639c2.5845,0.9139,5.8032-0.0143,8.4234-0.5168
				c-0.9334-0.9674-1.8665-1.9244-2.8033-2.8801c-0.4635-0.4794-3.2924,1.4936-3.94,1.841c2.2875-3.3267,2.8146-3.1823,0.2068-6.272
				C230.9237,525.9266,228.5402,530.3581,230.0131,532.0639"/>
			<path fill-rule="evenodd" clip-rule="evenodd" fill="#F29FC5" d="M220.8855,518.5691c1.9865,1.0472,5.2331,0.0784,7.3275-0.1637
				c-1.6904-2.8981-2.5442-1.649-5.645-1.3918c2.7649-3.1502,3.051-3.0366,1.4254-6.8395
				C222.7771,512.5281,220.7449,515.9821,220.8855,518.5691"/>
			<path fill-rule="evenodd" clip-rule="evenodd" fill="#F29FC5" d="M214.2205,500.2912c2.5245,0.9736,5.019,1.938,7.674,2.7292
				c-0.2429-0.8806-0.4939-3.6776-1.1746-4.2194c-0.7832-0.6248-3.5148-0.4113-4.5434-0.5344
				c0.8659-0.3636,3.7654-1.0031,4.2186-1.7666c0.4516-0.761-0.3376-3.5329-0.4247-4.462
				C218.1451,493.5081,210.4528,498.0438,214.2205,500.2912"/>
			<path fill-rule="evenodd" clip-rule="evenodd" fill="#F29FC5" d="M216.0591,485.4842c1.2413,0.5397,2.4851,1.0826,3.7233,1.6229
				c-0.1287-0.8625,0.53-3.3692,0.1499-3.8727c-0.5172-0.6879-4.0092-0.821-4.9206-1.0068
				c1.6339-0.5289,3.2716-1.0624,4.9063-1.5921c0.4096-0.1364,0.5953-2.9376,0.6864-3.4143
				c-2.118,0.8003-7.7054,1.7877-9.1769,3.7548C210.1745,482.6422,214.2294,484.7246,216.0591,485.4842"/>
			<path fill-rule="evenodd" clip-rule="evenodd" fill="#F29FC5" d="M226.0659,448.8276c-2.7947-1.1159-4.9444-2.1893-7.1236-4.2797
				c2.8404,0.5492,5.6882,1.0948,8.5309,1.6446c-0.099-1.5939-0.0076-6.1706-1.9616-6.5276
				c-2.5611-0.4682-4.6668-0.899-7.1225-0.5471c-2.0208,0.2905-3.716,0.7788-5.6773,1.5823
				c-0.9547,0.3916,1.4764,4.8986,1.9076,5.7929c2.1349,4.4769,6.9463,7.6185,11.0684,9.9706
				C225.6879,456.4637,228.3935,449.7605,226.0659,448.8276z"/>
			<path fill-rule="evenodd" clip-rule="evenodd" fill="#F29FC5" d="M223.8068,462.1922c-1.5256,0.1759-7.6978,0.6336-8.2312,2.4242
				c-0.5583,1.8698,4.701,6.7188,5.6514,7.8388c0,0,1.4217-3.7231,1.0665-4.3897c-0.422-0.7841-2.8421-1.5964-3.5988-2.4325
				C222.7448,465.676,222.8199,466.1364,223.8068,462.1922z"/>
		</g>
		<g>
			<path fill-rule="evenodd" clip-rule="evenodd" fill="#F29FC5" d="M752.9098,615.4121c0.6147-0.255,1.2103-0.8549,1.7555-1.2384
				c-4.3625-5.4621-12.2888-8.3963-18.822-10.9742c-3.9755-1.5624-7.871-3.3124-11.8508-4.8493
				c-2.2213-0.8583-4.3278-2.2849-6.424-3.4034c-2.3934-1.2824-1.4784-0.5477-3.4755-0.199
				c-6.7244,1.1766-13.7086-1.8673-19.9603-4.3268c-7.6716-3.0128-14.9546-6.8333-22.2756-10.607
				c2.1046,2.2665,4.0577,4.7683,5.8724,7.2701c1.9321,2.6561,2.6118,3.387,5.6693,4.9444
				c5.9739,3.0475,11.8641,6.1936,18.0529,8.7756c11.1237,4.6266,21.9691,8.0262,33.6774,10.694
				c-18.9374-1.3832-35.4356-7.3328-52.3704-15.785c1.1337,1.8008,0.6572,5.6002,2.1337,6.5385
				c3.5967,2.2817,7.1964,4.5677,10.7947,6.8482c4.7086,2.9863,8.6448,7.0759,12.4351,11.141
				c1.8887-1.4838,9.2498-0.5696,11.9695-0.5117c3.8363,0.0873,7.8658-0.2568,11.6956-0.6099
				C738.8766,618.4573,746.2754,617.9659,752.9098,615.4121"/>
			<path fill-rule="evenodd" clip-rule="evenodd" fill="#F29FC5" d="M776.8156,599.4837
				c-6.1601-6.6498-11.932-12.1144-19.3629-17.2744c-6.4532-4.4745-13.363-8.2816-20.2392-12.0716
				c-3.6385-2.0013-7.5565-3.5427-11.2479-5.4641c-3.41-1.7781-6.8806-1.9953-10.684-1.6069
				c-6.7029,0.6893-15.9299-2.0725-22.3091-4.1105c19.9656,10.9459,39.93,21.8939,59.8923,32.8423
				c-18.543-8.42-36.83-17.2188-54.8967-26.6238c5.8724,5.3507,10.9352,10.8978,16.0894,16.852
				c1.0361,1.1957,2.2045,2.8254,2.7167,4.3561c0.4413,1.309-0.0118,2.9219,1.2092,3.5621
				c4.0523,2.136,8.0615,4.2494,12.2444,6.1118c7.1716,3.2009,15.2816,5.027,23.1163,5.7846
				c3.6183,0.3528,7.7776,1.2953,11.3897,0.6041C768.8634,601.6497,772.7296,600.7172,776.8156,599.4837"/>
			<path fill-rule="evenodd" clip-rule="evenodd" fill="#F29FC5" d="M705.4077,624.9809c0.9289-1.7947-5.8641-7.8171-7.5178-8.8952
				c-4.4554-2.9133-8.916-5.8292-13.424-8.6799c-2.0479-1.2953-2.4901-1.9728-4.6093-1.1223
				c-8.8873,3.567-34.2295-10.4779-42.8032-14.3627c-3.4311-1.5538-6.2283-3.0214-9.16-5.4273
				c-3.1974-2.6192-5.819-6.1281-9.1054-8.5193c2.1572,2.8253,4.1953,5.6938,6.2129,8.6229
				c1.5676,2.2679,2.4186,4.2383,4.9263,5.4814c8.1352,4.0325,16.3307,7.4156,24.4703,11.4436
				c11.1659,5.5432,23.0177,9.3561,34.5114,14.1711c-20.732-4.8651-39.9249-14.5095-59.0551-23.5711
				c1.8625,3.3345,4.0432,6.6898,5.289,10.2978c0.3329,0.9704,0.3313,4.0391,0.8669,4.6956
				c0.4392,0.5338,2.5963,0.8076,3.2281,1.0037c8.0203,2.4987,16.0978,4.857,24.1151,7.3761
				C676.4885,621.6288,691.5706,625.7803,705.4077,624.9809"/>
			<path fill-rule="evenodd" clip-rule="evenodd" fill="#F29FC5" d="M774.0971,571.1789
				c-0.9859-5.2731-7.4332-10.1959-10.7697-13.8793c-3.9078-4.3146-7.668-8.6201-11.9844-12.5183
				c-3.4765-3.1312-6.9501-6.2724-10.4333-9.4054c-1.8525-1.6718-2.9124-3.8225-5.4054-2.5471
				c-4.7025,2.4022-11.9954,1.6566-17.1396,1.8611c13.3582,7.8188,25.2049,16.1826,36.097,27.1699
				c-7.0448-5.5505-14.793-10.6949-22.5129-15.2571c-5.3282-3.1453-10.659-6.2938-15.9829-9.4437
				c-1.1946-0.7001-3.4983-2.7676-4.9369-2.781c-2.5096-0.035-5.005-0.1172-7.5187-0.2524
				c6.7395,4.2838,13.2801,9.4374,18.7425,15.216c1.9833,2.0967,3.0366,4.144,4.2982,6.5797
				c1.4742,2.8412-1.4915,3.2956,2.1129,5.0507C742.5095,567.7153,758.5265,575.7731,774.0971,571.1789"/>
			<path fill-rule="evenodd" clip-rule="evenodd" fill="#F29FC5" d="M777.4232,558.8448
				c-8.5605-13.5291-22.1449-23.0417-35.6259-31.054c-0.1585,0.2014-0.696,1.4162-0.7309,1.5871
				c6.3273,5.7266,13.3151,11.1299,19.0002,17.5066c2.4651,2.765,5.028,5.4791,7.8495,7.8634
				c1.3311,1.1394,2.7979,2.1595,4.2203,3.1761C774.2924,559.4562,774.7908,559.4169,777.4232,558.8448"/>
			<path fill-rule="evenodd" clip-rule="evenodd" fill="#F29FC5" d="M712.7275,590.3016c0.6434-1.9465-2.0199-5.3994-3.3416-7.0666
				c-2.2842-2.8942-4.9352-5.6356-7.5778-8.2355c-6.5701-6.46-13.6984-12.2457-20.8039-18.088
				c1.1127,2.1479,2.4578,3.9872,2.9666,6.3417c0.1833,0.8533,0.1387,1.4744,0.1405,2.3505
				c0.0052,0.5863-0.8857,2.0248-0.8237,2.2659c0.1774,0.6384,2.2432,1.786,2.7416,2.1856c2.0068,1.6054,4.018,3.2062,6.0253,4.8086
				c2.924,2.3358,5.8438,4.6696,8.764,7.004c-3.9144-2.3716-7.8297-4.7415-11.7405-7.1083
				c-3.2584-1.9783-6.3613-4.6003-9.8554-4.7999c-6.0222-0.3438-13.3028-2.2241-18.2753-6.0845
				c1.2792,1.9928,2.6888,4.087,3.3544,6.382c0.4977,1.7111,6.5042,3.7497,8.0656,4.5844
				c4.5294,2.4053,9.0477,4.8656,13.7412,6.9476C694.6157,585.5671,703.3471,590.4252,712.7275,590.3016"/>
			<path fill-rule="evenodd" clip-rule="evenodd" fill="#F29FC5" d="M679.0947,601.5253c3.36-1.0612-10.1098-18.071-11.7923-19.9988
				c-0.7394,7.5209-9.9289,3.8616-13.8607,1.3539c-8.1083-5.165-15.0919-12.0683-21.4207-19.2783
				c2.2142,5.4182,4.235,10.7099,6.173,16.2343c0.8162,2.3216,1.5316,4.6555,1.4412,7.1241
				c-0.0804,2.2642,5.3358,3.7063,7.5439,4.6802c6.0503,2.6837,11.9875,5.3768,18.256,7.4975
				C668.6429,600.2195,675.9431,603.7935,679.0947,601.5253"/>
			<path fill-rule="evenodd" clip-rule="evenodd" fill="#F29FC5" d="M631.4728,610.863c-0.5928-2.8181-0.97-5.6869-2.1445-8.3115
				c-1.0192-2.2748-2.4941-4.285-3.6197-6.4679c-2.4008-4.676-5.7776-8.9156-8.8992-13.1558
				c0.327,3.3802-0.0063,4.4626-1.9009,6.9002c-1.7661,2.2595-7.476-1.3917-8.9117-2.5561
				c4.7692,4.9244,9.5291,9.8574,14.2948,14.7843c-6.5479-4.6403-14.1724-9.6326-19.35-15.8253
				c0.3488,3.0833,0.5618,7.7249-2.78,9.3303c5.4766,4.6959,11.786,8.6403,18.1934,11.86
				C619.7678,609.1332,627.8632,613.6772,631.4728,610.863"/>
			<path fill-rule="evenodd" clip-rule="evenodd" fill="#F29FC5" d="M775.4915,534.9872
				c-4.6646-7.2053-9.3468-15.4593-16.2972-20.774c-7.5598-5.7824-15.1732-12.7076-24.1653-16.2421
				c-8.8937-3.4967-17.9072-6.9267-27.3234-8.7496c-4.6085-0.8903-9.1967-1.8792-13.8115-2.7179
				c-3.9274-0.7154-8.9576,1.2885-13.0687,1.702c14.1428,3.3384,27.4314,6.9052,40.6414,13.0545
				c12.9582,6.0388,25.2219,13.5766,36.4134,22.4918c-21.6235-13.4754-44.8527-24.9818-69.8723-30.4497
				c10.049,4.0003,19.7097,8.6579,29.6088,12.9514c7.7894,3.3781,18.773,8.7711,23.2574,16.2397
				c0.6586-0.7292,6.6771,4.4843,8.0289,5.241c2.7692,1.5593,5.5193,3.2826,8.4678,4.4758
				C762.1672,534.1385,770.3713,536.7966,775.4915,534.9872"/>
			<path fill-rule="evenodd" clip-rule="evenodd" fill="#F29FC5" d="M721.8685,558.0307
				c3.3851-2.7332-19.5026-19.2311-22.0502-21.0856c0.2582,5.0324-7.0518,4.6428-10.3189,4.6779
				c6.4332,2.8648,12.3398,6.3452,18.5608,9.5741c-9.6511-3.4618-19.2991-6.9197-28.9514-10.3796
				c-6.5251-2.3394-13.4138-3.3102-20.0425-5.3427c4.1949,3.4088,8.8832,6.845,12.4989,10.8231
				c3.8473,4.2433,11.6683,5.4109,17.2339,6.9028c6.1125,1.6267,12.314,3.1728,18.5596,4.2028
				C711.66,558.1122,717.7061,559.8354,721.8685,558.0307"/>
			<path fill-rule="evenodd" clip-rule="evenodd" fill="#F29FC5" d="M662.4741,581.5834c1.3796-6.3022-5.3073-15.569-8.6142-20.6832
				c-1.9499-3.0098-5.3912-5.7674-8.1375-8.0786c-3.0598-2.5887-5.3233-6.3745-7.5544-9.6606
				c4.7014,3.7803,9.7298,7.3757,14.846,10.5692c7.1813,4.4915,14.9606,10.2043,23.5084,11.5518
				c0.6296,0.0984,2.8442,0.5229,3.2552-0.1671c0.3005-0.5018-1.1002-2.7488-1.3616-3.2371
				c-1.9181-3.4865-4.4324-6.7775-7.4238-9.429c-7.6317-6.76-14.8216-13.874-23.1108-19.949
				c-1.9058-1.3958-10.34-4.1454-12.2665-3.1689c-2.3467,1.1951-6.8894,0.7691-9.4196-0.0093
				c1.0391,2.4806,1.6042,5.2687,1.6857,7.9228c0.1396,4.3044-2.4818,4.2807-6.2206,4.4084
				c1.2523,2.3744,2.2638,4.9515,3.6826,6.7529c1.6252,2.0787,3.1912,4.2251,4.8934,6.2424
				c3.5076,4.1591,7.3361,7.9947,10.8837,12.0954c2.9703,3.4335,7.4576,7.5547,11.3088,9.9081
				C655.1952,578.3437,658.9711,581.9545,662.4741,581.5834"/>
			<path fill-rule="evenodd" clip-rule="evenodd" fill="#F29FC5" d="M635.0353,585.9871c0.0981-6.2208-4.3325-13.347-6.6577-18.9425
				c-2.8989-6.9666-6.2906-13.7281-9.5482-20.531c-0.4735-0.9875-1.6445-4.9478-2.7588-5.2272
				c-1.952-0.4892-2.8053-1.2358-2.426,1.0112c0.403,2.3876,1.4262,7.5179-2.1927,8.0943
				c-4.8637,0.7818-8.8427-2.1962-12.0551-5.4886c-0.2121,2.6454-0.8293,10.5164-3.1238,12.2239
				c-2.0388,1.5172-9.1833-4.5673-11.3008-6.0264c0.0497,3.1519-0.7338,7.5701,1.2805,10.2001
				c3.0624,3.9852,6.478,7.4346,9.9979,11.0349c4.9175,5.0323,10.0334,10.1597,16.2557,13.4324
				c0.2099-4.4001-1.2073-9.4138-2.6528-13.5287c-1.4542-4.1724-3.8845-8.3264-4.9843-12.5485
				c5.3604,4.55,10.9662,8.9315,15.9936,13.8521C625.377,577.9495,629.8187,582.525,635.0353,585.9871"/>
			<path fill-rule="evenodd" clip-rule="evenodd" fill="#F29FC5" d="M736.4838,527.4697
				c4.3618-1.9896-8.5082-10.2789-10.3688-11.4211c-6.9592-4.235-14.4881-7.5265-21.8325-11.0961
				c0.2453,5.6924-8.0057,6.6247-12.1007,7.1371c4.3678,1.1739,8.7294,2.3146,13.0109,3.7513
				c2.8853,0.9608,7.8859,2.6797,10.1022,4.6579c-8.9489-2.0935-17.897-4.1931-26.8453-6.2861
				c-6.8993-1.6171-13.5808-2.1622-20.6199-2.9491c5.4095,2.7596,10.4438,6.2645,15.5443,9.5036
				c2.9387,1.8611,5.8409,4.0448,8.9097,5.6419c1.2839,0.6692,2.3951,2.0007,3.7343,2.4914
				c1.2958,0.4814,3.348,0.2314,4.7184,0.3254c6.3488,0.4244,12.8101,1.1896,19.1655,0.8334
				C725.0032,529.7723,731.9865,530.3018,736.4838,527.4697"/>
			<path fill-rule="evenodd" clip-rule="evenodd" fill="#F29FC5" d="M776.838,503.9996
				c-14.2564-11.0404-34.3965-13.3555-51.8782-14.8217c8.8646,2.7805,17.3398,6.8629,25.1103,11.9424
				c3.8621,2.5191,6.965,4.6148,11.8175,4.5058C767.1014,505.5045,771.7719,505.3759,776.838,503.9996"/>
			<path fill-rule="evenodd" clip-rule="evenodd" fill="#F29FC5" d="M695.1182,536.606c-1.3326-3.5774-6.3342-6.2659-9.2449-8.5527
				c-4.2454-3.3256-9.1828-5.5316-13.4944-8.6863c-8.4741-6.2145-17.8453-10.4058-26.9208-15.0912
				c1.1578,2.9774,3.5319,6.7854,1.4248,9.8499c-2.2366,3.2484-6.6244,2.3817-10.0969,2.179c0.905,1.5637,2.3347,4.6469,2.245,6.453
				c-0.105,2.0734-0.0875,1.8162,1.8316,2.437c2.2252,0.7157,4.4418,1.431,6.663,2.1521
				c5.5823,1.8019,11.2565,3.6046,16.9891,4.8505c5.7692,1.2462,11.5186,2.5112,17.2921,3.7032
				C685.3491,536.6281,691.7238,538.4842,695.1182,536.606"/>
			<path fill-rule="evenodd" clip-rule="evenodd" fill="#F29FC5" d="M766.8463,485.2098c-6.9822-2.4654-13.6096-3.44-20.7383-5.0457
				c-6.5892-1.4848-12.7933,1.9071-18.5507,4.6218c6.6921-0.3284,14.21,1.5477,20.7834,2.7164
				C754.6048,488.6167,760.8376,486.474,766.8463,485.2098"/>
			<path fill-rule="evenodd" clip-rule="evenodd" fill="#F29FC5" d="M698.741,505.9602c2.3947-1.3091-3.677-4.7447-4.8611-5.3706
				c-3.2314-1.7139-7.3818-3.3747-10.9241-4.2881c-9.3459-2.4236-18.5125-5.417-28.0316-7.2066
				c3.7147,5.9011-4.1651,8.6205-8.3233,10.3292c4.3381,2.5305,8.4515,5.1838,13.4438,5.9791
				c3.155,0.5017,10.8024,2.7556,13.1472,1.5617c2.3028,0.8484,4.9826,0.6068,7.3748,0.7645
				c2.1052,0.1337,4.655,0.5384,6.7029,0.0474C690.9907,506.8883,695.0822,507.5364,698.741,505.9602"/>
			<path fill-rule="evenodd" clip-rule="evenodd" fill="#F29FC5" d="M734.3383,476.747
				c7.4367-4.5011,13.8415-9.5924,20.7866-14.6977c6.4063-4.7137,10.6423-11.9857,15.2338-18.3589
				c-6.5928-0.777-12.4414,2.0537-17.5331,5.912c-5.6241,4.2662-11.7825,8.3162-17.7612,12.0704
				c-6.0633,3.8094-12.1075,7.9076-18.4731,11.1806c-3.0397,1.5621-6.0743,3.1348-9.1185,4.6872
				c-2.4242,1.2346-8.8582,2.4679-9.4772,5.1667c1.7162,0.8356,3.3293-0.3726,4.8686-1.0347
				c3.0356-1.3149,6.0678-2.631,9.0966-3.9408c4.66-2.0169,9.4044-3.8995,13.9993-6.0599
				c8.8107-4.1393,17.3455-9.3163,25.646-14.3937c-6.1948,5.1909-12.8419,10.8268-20.0571,14.5376
				c-8.2297,4.2317-16.6135,8.1515-25.083,11.9949C716.2928,483.8695,725.7291,481.8762,734.3383,476.747"/>
			<path fill-rule="evenodd" clip-rule="evenodd" fill="#F29FC5" d="M693.2681,480.5943c4.0984-1.5468-3.4849-4.778-4.8258-5.4216
				c-3.8942-1.8711-7.9861-3.2109-12.2109-4.1609c-4.5134-1.0148-9.9399-3.0252-14.541-2.9715
				c-4.5285,0.0596-8.4122-2.4044-12.7981-0.6894c2.604,1.1126,10.4058,3.5075,9.0629,7.9113
				c-1.2007,3.9634-5.2269,5.8667-8.8799,7.7453c1.4086,2.0543,8.2844,1.3972,10.7521,1.4529
				c4.2903,0.1009,8.7053,0.2079,12.9957-0.0243C679.2326,484.0892,687.6735,483.8016,693.2681,480.5943"/>
			<path fill-rule="evenodd" clip-rule="evenodd" fill="#F29FC5" d="M713.0555,469.5234
				c14.5518-9.4834,29.4136-18.0695,43.3784-28.5032c7.15-5.3388,13.829-10.5948,20.0455-16.9955
				c6.358-6.5436,9.999-14.5835,14.2533-22.6278c-6.0403,1.0605-12.2247,2.1484-17.7728,4.8917
				c-16.2562,8.0319-29.9843,21.5982-45.0901,31.7656c-16.7968,11.2992-34.4949,19.7941-52.943,28.0247
				c2.0953,0.538,9.4518,3.6154,11.2168,2.7304c5.7595-2.8875,11.5167-5.7743,17.2704-8.6588
				c7.9495-3.9841,15.6914-8.4225,23.2357-13.0912c16.972-10.5021,32.8274-22.2173,48.7905-34.1667
				c-6.58,5.7964-13.3978,11.3958-19.9329,17.2173c-6.4471,5.7432-13.9348,10.2702-20.8415,15.4098
				c-13.5715,10.099-29.3967,17.9905-44.6304,25.2132c1.9829,0.931,3.8769,1.7951,5.5798,3.1958
				c1.2404,1.0316,1.9435,2.91,3.5054,2.1695C703.7664,473.9078,708.4109,471.7157,713.0555,469.5234"/>
			<path fill-rule="evenodd" clip-rule="evenodd" fill="#F29FC5" d="M694.9905,452.1226c14.4647-7.435,28.07-16.2953,41.3713-25.62
				c17.1434-12.0129,33.1025-25.9714,47.1536-41.4485c6.4156-7.0735,12.2045-14.6172,17.7985-22.3526
				c5.9286-8.2052,10.0937-16.7485,13.6377-26.1788c-2.8634,0.3393-5.8825,0.1779-8.3267,1.7539
				c-2.0717,1.3328-3.9711,2.8727-6.022,4.2085c-4.2947,2.8028-8.2679,6.3953-12.1204,9.7608
				c-16.2729,14.2143-32.6077,28.3912-49.0532,42.4544c-2.7964,2.3944-3.5076,4.8536-5.6929,7.8026
				c-2.5452,3.4374-6.245,6.0849-9.4409,8.9006c-7.4348,6.5391-16.7562,11.1292-25.2214,16.1996
				c1.3498-0.1832,2.703-0.5932,4.0795-0.7297c1.7482-0.178,4.2164,0.5279,5.7037-0.439c2.0251-1.3112,4.0584-2.6323,6.0835-3.9472
				c5.6178-3.6426,11.2311-7.2843,16.8417-10.9266c7.8617-5.1019,15.118-11.302,22.452-17.1238
				c15.2119-12.0745,29.3599-25.7014,42.2386-40.2303c-10.9504,13.6177-22.4719,28.1352-36.3083,39.0361
				c-7.248,5.7056-13.9358,12.5327-21.7094,17.5639c-8.4449,5.4589-16.7409,11.2442-25.1717,16.7645
				c10.3117,6.8905-8.4359,16.7229-13.751,19.79c-11.7401,6.7829-25.5502,11.9248-38.4958,15.8598
				c1.5414,0.2605,5.3734,1.7248,6.6937,1.1368c2.809-1.2613,5.6107-2.5222,8.4166-3.7809
				C682.4264,457.7597,688.7114,454.9398,694.9905,452.1226"/>
			<path fill-rule="evenodd" clip-rule="evenodd" fill="#F29FC5" d="M694.098,445.0094c5.6184-2.9049,13.1721-6.4381,17.0286-11.623
				c1.5681-2.1045-0.902-1.9103-2.7383-2.0795c-3.6661-0.3394-7.5945,0.4777-11.2002,1.2021
				c-8.0757,1.6244-15.8221,4.9861-23.452,8.0131c-7.5224,2.9822-15.3149,5.8504-22.5079,9.563
				c22.5676-11.62,45.0369-24.1758,65.8622-38.7092c3.6602-2.5565,17.2902-11.7629,15.1097-17.1604
				c-0.9269-2.3018-5.4667-2.6714-7.6588-2.5535c-4.8878,0.2721-9.3221,4.8384-13.5085,7.3688
				c-16.7377,10.1047-34.9689,19.192-53.4392,25.6699c7.7932-2.5269,14.9889-7.7026,22.2325-11.4281
				c7.1625-3.6831,14.293-7.771,21.1198-12.0739c14.1629-8.9214,29.5348-18.2994,40.6291-31.0395
				c2.5281-2.9023,6.018-6.074,7.11-9.8781c1.0759-3.752-1.8087-2.5078-4.5352-2.0653c-8.2251,1.3427-16.5594,7.624-23.1528,12.409
				c-7.4301,5.3944-15.674,9.453-23.1774,14.6435c-3.8658,2.6665-8.2595,4.8064-12.4467,6.9533
				c-2.7325,1.4065-9.419,6.3367-12.0653,5.9111c-2.5427,4.2268-6.0463,7.8329-9.7522,11.0791
				c21.9689-12.2594,44.4937-23.7261,65.7502-37.1501c-14.3626,11.0009-29.9768,20.1731-45.4819,29.4493
				c-7.7062,4.6089-15.555,8.8721-23.3538,13.3253c-7.0095,3.9977-15.4057,6.4338-19.9625,13.173
				c3.8646-0.4641,15.9476-0.9886,15.949,5.1412c20.4232-10.041,40.6812-20.3352,60.9023-30.6971
				c-12.9803,8.4122-25.7319,16.8683-39.5181,23.9551c-7.1698,3.6874-14.4639,7.1095-21.7317,10.5917
				c-1.8643,0.8923-3.479,5.5766-4.5831,7.469c-1.3564,2.3257-4.5632,5.4953-7.0406,6.6548
				c2.1531,0.5104,3.9069,1.4318,5.9387,2.1125c1.064,0.356,0.2808,1.0092,1.4791,0.5523c0.8867-0.3423,1.7721-0.6827,2.658-1.0221
				c5.6402-2.1599,11.2806-4.3227,16.9183-6.4822c7.7582-2.9707,15.7841-5.2831,23.4852-8.3758
				c-7.2267,3.7479-14.4407,7.1444-21.934,10.3306c-5.7551,2.4439-11.5119,4.8959-17.2689,7.3413
				c-0.9594,0.4056-2.8776,0.6918-2.8739,1.8303c-0.0056,1.4667-0.2642,2.8423-1.2755,3.9998
				c7.4362-2.3541,15.2944-4.4565,22.4449-7.6084c3.2986-1.4493,6.6711-2.7536,9.9703-4.2058
				C687.3017,448.1565,690.6331,445.923,694.098,445.0094"/>
			<path fill-rule="evenodd" clip-rule="evenodd" fill="#F29FC5" d="M735.8974,391.3963
				c11.6499-9.9226,23.2989-19.8462,34.9525-29.7675c8.6852-7.3929,16.5695-16.0022,24.7689-23.9252
				c6.645-6.4178,13.7639-12.8409,19.1991-20.3616c5.7137-7.9044,11.222-16.0042,15.3201-24.9077
				c4.2742-9.2631,7.0488-18.3623,9.4475-28.2682c-3.7423,0.8706-8.5081,3.4192-11.4709,5.8146
				c-6.92,5.6025-12.4263,12.4136-17.4791,19.7358c-5.493,7.9554-11.9172,15.3646-18.096,22.8092
				c-12.7875,15.4022-27.2141,28.0585-42.4758,40.9994c3.3822,1.4425,3.7385,3.806,3.2264,7.424
				c26.2244-23.2218,50.055-47.8955,70.8517-76.1266c-4.0345,7.7112-9.4495,14.7466-14.5917,21.7449
				c-10.0539,13.6817-21.4734,27.3989-34.178,38.7541c-9.2403,8.2681-18.4856,16.5334-27.7252,24.7956
				c-2.7751,2.4791-4.9019,5.6261-7.7907,8.0368c-3.8115,3.1851-7.4282,6.3058-11.4598,9.2303
				C730.8951,388.0713,735.1226,388.9161,735.8974,391.3963"/>
			<path fill-rule="evenodd" clip-rule="evenodd" fill="#F29FC5" d="M674.9608,394.8547
				c18.1999-10.7826,36.2072-21.3256,52.9877-34.2226c7.369-5.6624,14.5572-11.6801,20.7898-18.5575
				c2.733-3.013,6.3199-6.3666,7.5187-10.3887c0.981-3.2829-1.1965-3.0609-4.1726-2.5399
				c-8.2137,1.4425-16.6574,6.352-23.7292,10.6976c-2.7134,1.6707-5.4246,3.3341-8.1421,5.0025
				c-1.7825,1.1004-1.999,3.4556-3.3886,4.6907c-1.5013,1.3378-2.7318,4.1273-3.9636,5.8378
				c-1.3831,1.9211-2.9418,3.7327-4.4125,5.5923c10.4515-6.5879,20.9039-13.171,31.3498-19.756
				c-11.8098,10.3147-24.2979,18.9389-37.4291,27.4818c-5.1282,3.3355-9.5784,7.5507-14.6932,10.841
				c-2.0006,1.2876-7.5139,2.9759-8.2168,4.9653C678.163,388.1902,676.8088,391.4138,674.9608,394.8547"/>
			<path fill-rule="evenodd" clip-rule="evenodd" fill="#F29FC5" d="M745.2223,351.7569
				c12.4565-10.5688,24.4193-20.8679,35.5478-32.8212c9.9598-10.702,19.6957-22.1685,27.8174-34.33
				c11.4573-17.1445,23.2128-34.2847,29.4081-54.1768c5.0496-16.2336,12.0633-36.3418,5.0437-53.2155
				c-4.0651,7.4037-6.9939,15.7373-9.2026,23.8877c-2.3013,8.4925-6.7817,16.3734-10.7819,24.1765
				c-9.0475,17.6415-18.5094,35.9165-30.2478,51.9498c-5.5842,7.6222-10.5105,15.7319-16.4638,23.0896
				c-6.6282,8.1916-13.4714,16.2141-20.212,24.321c2.3622-0.0823,3.3794,1.2318,4.595,3.0759
				c6.4862-7.5753,12.9706-15.1493,19.4586-22.7222c11.6584-13.6206,21.8572-29.4172,30.8814-44.9075
				c9.7015-16.6682,19.0488-34.1386,25.9543-52.1814c-5.4231,16.8587-13.4844,32.2882-20.9515,48.2598
				c-8.3579,17.8911-20.543,34.9317-32.738,50.3934c-6.043,7.6688-12.3618,15.1078-18.9537,22.3269
				c-1.8067,1.9767-3.8918,3.6914-4.9547,6.1656c-0.8883,2.0739-2.0493,3.9814-3.4772,5.7475
				C752.773,344.7172,748.7463,348.1538,745.2223,351.7569"/>
			<path fill-rule="evenodd" clip-rule="evenodd" fill="#F29FC5" d="M758.9987,283.007c1.6422-2.5316,5.3055-6.2286,8.1623-9.4215
				c3.2474-3.6295,6.1678-7.86,9.1901-11.6812c5.8931-7.4527,10.4168-15.6857,15.4232-23.7022
				c4.9773-7.9674,6.2612-16.4339,6.7175-25.6582c-0.6071,1.7391-13.7621,32.1597-24.5946,43.4845
				C763.0647,267.3533,760.039,277.6021,758.9987,283.007z"/>
			<path fill-rule="evenodd" clip-rule="evenodd" fill="#F29FC5" d="M775.0573,294.1283
				c3.5353-5.4094,7.8526-10.2911,11.3828-15.732c1.8474-2.8413,3.8876-5.5256,5.6464-8.4301
				c1.2245-2.0184,4.541-5.9005,4.5632-7.3692c4.7364-10.9129,7.9587-21.3547,8.3466-33.2822
				c0.085-2.7036-0.8113-3.4169-2.2016-0.9967c-2.0801,3.624-4.1641,7.2565-6.2437,10.888
				c-2.8063,4.8904-5.5515,9.7683-8.7037,14.4396c-11.2728,16.7118-24.254,31.1732-39.2867,44.5691
				c-6.7905,6.0506-11.3633,14.6036-17.9656,20.9598c-6.7157,6.4665-12.9047,13.3217-19.975,19.4697
				c1.475-0.5623,3.0057-1.3656,4.5427-1.7325c1.333-0.318,4.3046,0.2534,5.2864-0.6522c1.5688-1.4364,3.1365-2.8851,4.7091-4.3268
				c4.8677-4.4788,9.7425-8.9656,14.6171-13.4459c6.8035-6.2574,13.058-13.3824,19.068-20.3905
				c6.406-7.4688,12.8035-15.0512,18.6265-22.9949c2.7932-3.8128,5.5948-7.6605,8.2912-11.5474
				c2.5919-3.7294,5.034-8.8882,8.2233-12.0111c-9.3137,15.5257-18.1364,31.5006-29.962,45.4024
				c-12.2565,14.4106-25.9114,27.2226-39.5807,40.3483c8.3593-4.9109,16.9954-11.1958,26.2505-13.941
				C759.2597,313.1488,767.7581,305.2859,775.0573,294.1283z"/>
			<path fill-rule="evenodd" clip-rule="evenodd" fill="#F29FC5" d="M586.2235,597.1439
				c2.2277-5.8925-1.5059-13.0121-4.1501-18.1588c5.53,2.602,8.1254,11.8878,14.4625,12.2648
				c1.9081-6.4133-4.7026-14.1386-8.0318-19.206c1.568,6.0242-7.6502,0.7397-9.1096-0.0247
				c-4.0646-2.1138-9.9293-8.5735-10.2141-13.389c4.3281,4.0123,8.9245,9.5223,14.8267,11.1683
				c-1.7704-5.0432-3.6488-10.0908-3.6623-15.5209c-0.009-3.4094-0.9534-9.0515,0.4626-11.9321
				c3.3574,3.7643,8.1572,6.0976,12.4989,8.4401c0.7949-3.7753,1.2788-7.2837,1.5591-11.1291
				c-1.8085,0.1562-3.6084,0.7591-5.4283,0.6757c0.3157,1.498,1.1615,3.7858,0.7957,5.0491
				c-0.9252-1.2117-2.7205-4.7894-4.2787-4.7778c-2.431,0.0215-10.041,1.033-11.4648-1.684
				c-1.6572-3.1503,6.1882-2.9923,7.9386-2.9001c10.144,0.5057,20.2668-2.5089,29.1959-7.0928
				c17.3408-8.8975,28.091-29.0349,27.9099-48.2161c-0.0939-10.4902-2.486-19.952-5.7242-29.8734
				c-2.7041-8.2802-2.9996-17.5146,2.3286-24.8144c5.2537-7.1925,13.5439-12.3926,20.8248-17.4293
				c7.9043-5.4626,12.7255-12.8922,16.819-21.3314c-4.3475,1.9595-8.9585,3.6984-13.171,5.8746
				c-3.6336,1.8695-7.8469,2.8932-11.1782,5.3552c-3.2554,2.4094-6.8773,4.1017-10.0371,6.7625
				c-1.5635,1.3138-2.9697,2.6669-4.3024,4.1926c-0.787,0.9042-2.5142,0.3626-1.9277-0.6886
				c0.4277-0.7585,1.2391-1.6585,1.8437-2.3058c6.0838-6.5225,13.0902-11.7178,21.0483-15.8129
				c7.6805-3.9525,16.8058-6.8792,23.7628-11.9934c7.1089-5.2325,15.0888-9.5057,20.9395-16.3067
				c5.9036-6.8596,14.2313-13.9851,16.6191-22.9231c-3.7896,0.7895-10.1382,1.9761-13.1172,4.4306
				c-4.287,3.5322-8.6207,6.8721-12.9962,10.205c-4.2245,3.2128-8.881,6.0275-13.3007,8.9535
				c-2.366,1.5622-4.8619,2.9598-7.2863,4.4296c-1.3424,0.8069-2.6801,1.617-4.0197,2.4349
				c-1.963,1.1982-1.7058,0.8383-2.9559-1.0558c22.2162-14.3695,43.1241-30.0729,61.1503-49.5996
				c12.0902-13.0971,23.6279-27.3328,32.549-42.7964c4.7029-8.1467,9.936-16.0618,13.7704-24.6738
				c1.739-3.9031,4.2732-8.1485,5.1016-12.3664c1.0567-5.375,2.1132-10.7497,3.1679-16.1232
				c-17.4402,30.3833-38.5718,58.2941-63.3255,83.1663c-14.6073,14.6803-29.2248,29.2662-44.5795,43.1773
				c-15.0431,13.6347-30.0049,27.6244-43.7232,42.5871c-6.543,7.1374-13.3171,15.6241-12.4012,25.7276
				c0.9127,10.0218,3.4181,19.9165,4.9314,29.8677c2.6795,17.6392,6.9499,39.7643-4.1927,55.4928
				c-6.0801,8.5843-15.2145,12.3061-24.6966,15.813c-8.1567,3.0141-18.5968,2.2507-26.0304,6.9245
				c-3.0313,1.907-3.8369,4.6533-4.2982,8.1149c-0.4224,3.174-4.1242,4.4216-5.2997,6.8151
				c-2.6787,5.4445,3.6982,13.7786,6.9641,17.6306c-4.0804,2.501-9.0246-1.0229-11.6626,3.2724
				c-2.4833,4.0508-3.5345,10.3098-3.2027,14.9922c0.201,2.9479,1.2629,11.9554,6.0045,9.3359
				c4.4408-2.452,6.0504-12.0007,7.4244-16.2433c1.9119,2.12,3.1228,4.9196,4.9076,7.188c1.9833,2.5251,3.9252,4.9662,6.162,7.2806
				c2.1602,2.2395,4.2424,4.785,6.6419,6.7603C581.3072,593.008,584.4925,594.8634,586.2235,597.1439"/>
			<path fill-rule="evenodd" clip-rule="evenodd" fill="#F29FC5" d="M609.2803,545.8875c0.5717-2.6923-0.6434-5.964-1.858-8.326
				c-0.2411-0.475-0.3907-1.3571-0.9738-1.1546c-0.3396,0.1195-1.8043,0.3973-1.6664,0.8001
				c0.6021,1.7393,1.1961,3.4779,1.7952,5.2167c-0.7271-0.6929-4.2311-4.7662-4.9735-4.3953
				c-0.5815,0.2996-2.188,0.1202-2.1635,0.8058c0.0213,0.829,1.6995,1.7961,2.2852,2.3057
				C604.2967,543.4091,606.0698,544.8619,609.2803,545.8875"/>
			<path fill-rule="evenodd" clip-rule="evenodd" fill="#F29FC5" d="M623.2934,537.1718c0.124-2.7955-1.8807-5.9562-2.8739-8.5157
				c-1.0031,0.8104-1.9249,1.6634-3.0917,2.2118c0.9335,1.4299,1.864,2.866,2.7979,4.2932c-1.7291-0.8707-3.449-1.7533-5.1769-2.626
				c-0.5265-0.269-3.0213,1.4008-3.4907,1.6404C615.8155,536.8093,618.3544,537.2274,623.2934,537.1718"/>
			<path fill-rule="evenodd" clip-rule="evenodd" fill="#F29FC5" d="M633.9869,525.0199c1.4729-1.7058-0.9106-6.1373-1.8869-7.8279
				c-2.6078,3.0898-2.0807,2.9454,0.2068,6.272c-0.6476-0.3474-3.4765-2.3204-3.94-1.841
				c-0.9368,0.9557-1.8699,1.9127-2.8033,2.8801C628.1837,525.0056,631.4025,525.9338,633.9869,525.0199"/>
			<path fill-rule="evenodd" clip-rule="evenodd" fill="#F29FC5" d="M643.1145,511.5251c0.1406-2.5869-1.8916-6.0409-3.108-8.395
				c-1.6255,3.8029-1.3394,3.6892,1.4255,6.8395c-3.1008-0.2572-3.9546-1.5063-5.645,1.3918
				C637.8814,511.6035,641.1279,512.5722,643.1145,511.5251"/>
			<path fill-rule="evenodd" clip-rule="evenodd" fill="#F29FC5" d="M649.7795,493.2472c3.7678-2.2475-3.9246-6.7831-5.7498-8.2533
				c-0.0871,0.9291-0.8763,3.7011-0.4247,4.462c0.4532,0.7635,3.3527,1.403,4.2186,1.7666
				c-1.0286,0.1231-3.7603-0.0904-4.5435,0.5344c-0.6807,0.5418-0.9316,3.3388-1.1746,4.2194
				C644.7604,495.1852,647.255,494.2207,649.7795,493.2472"/>
			<path fill-rule="evenodd" clip-rule="evenodd" fill="#F29FC5" d="M647.9409,478.4402c1.8297-0.7596,5.8846-2.842,4.6316-4.5082
				c-1.4716-1.9671-7.0588-2.9545-9.1769-3.7548c0.0911,0.4767,0.2767,3.2779,0.6863,3.4143
				c1.6348,0.5296,3.2724,1.0632,4.9063,1.592c-0.9114,0.1859-4.4034,0.3189-4.9206,1.0068
				c-0.3801,0.5034,0.2786,3.0102,0.15,3.8726C645.4558,479.5227,646.6996,478.9798,647.9409,478.4402"/>
			<path fill-rule="evenodd" clip-rule="evenodd" fill="#F29FC5" d="M638.3121,449.4196c4.1222-2.3521,8.9336-5.4936,11.0685-9.9706
				c0.4313-0.8943,2.8623-5.4013,1.9076-5.7929c-1.9613-0.8036-3.6565-1.2919-5.6772-1.5823
				c-2.4557-0.3519-4.5615,0.0789-7.1225,0.5471c-1.954,0.357-1.8625,4.9337-1.9616,6.5276
				c2.8427-0.5497,5.6904-1.0954,8.5309-1.6446c-2.1792,2.0904-4.3289,3.1638-7.1236,4.2796
				C635.6066,442.7165,638.3121,449.4196,638.3121,449.4196z"/>
			<path fill-rule="evenodd" clip-rule="evenodd" fill="#F29FC5" d="M640.1932,455.1482c1.5256,0.1759,7.6978,0.6336,8.2311,2.4242
				c0.5583,1.8698-4.701,6.7188-5.6514,7.8388c0,0-1.4218-3.7231-1.0665-4.3897c0.422-0.7841,2.8422-1.5964,3.5988-2.4325
				C641.2552,458.632,641.1801,459.0924,640.1932,455.1482z"/>
		</g>
	</g>
	<g>
		<g>
			<path d="M236.6488,271.8666c3.4702-7.1044,5.3902-15.1034,5.707-23.7687c0.4724-9.5971-0.805-18.7415-3.7994-27.1791
				c-2.9843-8.3992-6.9246-16.4393-11.7115-23.8983c-4.787-7.4488-10.149-14.6783-15.9382-21.4868
				c-5.7825-6.7972-11.2426-13.5233-16.228-19.9907c-4.9696-6.4392-9.2718-12.8717-12.786-19.1187
				c-3.469-6.1664-5.3845-12.5712-5.6934-19.0364c0.0011-4.3411,0.3935-8.4967,1.1658-12.3514
				c0.7644-3.8281,2.1601-7.2419,4.1489-10.1467c1.9764-2.8896,4.6021-5.2447,7.8051-7.0007
				c3.2041-1.7514,7.3147-2.7176,12.2178-2.8715c5.0587-0.1539,9.4015,0.6601,12.91,2.411c3.5164,1.7593,6.459,4.1601,8.7476,7.1343
				c2.2988,2.9876,4.0474,6.5272,5.1996,10.5204c1.1579,4.0158,1.823,8.4043,1.9786,13.0244c0,1.4521,0.5987,2.6021,1.7791,3.4177
				c1.1049,0.7655,2.3924,1.1956,3.8253,1.2785c1.4408,0.0902,2.7452-0.2176,3.8693-0.9081c1.1973-0.7356,1.805-2.0102,1.805-3.805
				c-0.159-5.3811-1.2852-10.4455-3.3473-15.0521c-2.0654-4.6032-4.9223-8.6264-8.4905-11.9579
				c-3.5671-3.3292-7.8299-5.9432-12.6687-7.7696c-4.84-1.8213-10.0971-2.7447-15.6428-2.7441
				c-5.0643,0.1595-9.9618,1.1629-14.556,2.9831c-4.5965,1.823-8.6596,4.3975-12.0746,7.6529
				c-3.4127,3.2515-6.1872,7.1517-8.2482,11.5937c-2.0699,4.4567-3.0395,9.3761-2.8794,14.6175
				c0.1556,6.809,2.0012,13.5504,5.4837,20.0369c3.4442,6.4262,7.6991,12.9872,12.6451,19.4997
				c4.9336,6.5007,10.3654,13.242,16.1479,20.0369c5.7509,6.7639,11.0825,13.9517,15.8458,21.3628
				c4.7396,7.3846,8.7217,15.2702,11.8367,23.4372c3.0947,8.1298,4.5085,16.8869,4.1996,26.0235
				c-0.3134,7.7639-1.6494,15.0346-3.9707,21.6085c-2.3146,6.5621-5.681,12.2781-10.0035,16.989
				c-4.3214,4.7036-9.6428,8.459-15.8165,11.1625c-6.1816,2.7018-13.3914,4.0717-21.4287,4.0717
				c-10.5311,0-19.8718-1.9606-27.7636-5.8265c-7.902-3.8749-14.6518-9.0159-20.0646-15.2809
				c-5.4262-6.2757-9.7487-13.5459-12.8469-21.608c-3.106-8.0661-5.0745-16.4501-5.8501-24.9198
				c-0.779-8.4629-0.425-16.8858,1.053-25.0359c1.4701-8.1382,4.0237-15.525,7.5886-21.9547
				c3.5502-6.4048,8.2448-11.6868,13.9529-15.6992c5.6833-3.9933,12.4669-6.097,20.1671-6.2521
				c5.3665-0.1528,9.981,0.7768,13.7217,2.7577c3.7464,1.9899,6.849,4.6652,9.22,7.9505c2.3834,3.3107,4.1748,7.207,5.3259,11.5819
				c1.1579,4.402,1.8253,8.9934,1.982,13.6259c0,0.8326,0.3529,1.9499,2.0305,2.5446c1.177,0.4228,2.4938,0.5507,3.9099,0.3833
				c1.3799-0.1607,2.6269-0.4938,3.7081-0.991c1.2368-0.5716,1.8647-1.3027,1.8647-2.1889
				c-0.159-5.6991-1.3642-11.0808-3.5829-15.9957c-2.221-4.911-5.2334-9.2093-8.955-12.7753
				c-3.7227-3.5632-8.1399-6.4144-13.1287-8.4748c-4.9956-2.0587-10.406-3.0203-16.1231-2.8687
				c-8.5537,0.1601-16.0667,2.4121-22.3284,6.6935c-6.2459,4.2678-11.4139,9.9162-15.3599,16.7872
				c-3.9358,6.8462-6.7712,14.7088-8.4251,23.3696c-1.6517,8.6517-2.0496,17.6181-1.1849,26.6498
				c0.8625,9.0311,2.9335,17.9529,6.1568,26.5173c3.221,8.5745,7.8513,16.3187,13.7623,23.0172
				c5.9099,6.6951,13.1783,12.1676,21.6046,16.264c8.4387,4.101,18.3858,6.1799,29.5652,6.1799
				c8.3395,0,16.3678-1.398,23.8605-4.1556c7.4849-2.7599,14.2381-6.716,20.0736-11.76
				C228.4548,285.1289,233.1764,278.9676,236.6488,271.8666z"/>
			<path d="M667.3123,197.5369c14.2944-8.8834,26.0049-18.2049,34.8099-27.7112c8.8593-9.5655,15.5459-18.9597,19.8729-27.9232
				c4.3248-8.9657,6.7994-17.5916,7.3552-25.6385c0.5502-8.0475-0.2932-15.1778-2.5074-21.1931
				c-2.2255-6.0362-5.5333-10.8728-9.8299-14.3745c-4.327-3.5226-9.123-5.309-14.255-5.309c-5.283,0-10.1118,1.5823-14.3497,4.703
				c-4.1974,3.0869-8.0475,7.3366-11.4455,12.6315c-3.3856,5.2735-6.371,11.6524-8.8705,18.9597
				c-2.4893,7.2724-4.6472,15.2167-6.4127,23.612c-1.7632,8.3902-3.1624,17.281-4.1556,26.4254
				c-0.9155,8.4071-1.5468,16.9619-1.8782,25.4621c-1.6133-2.9194-3.6157-5.3513-5.9708-7.2493
				c-2.92-2.3495-6.6066-3.5412-10.9562-3.5412c-6.7272,0-12.4929,2.517-17.1378,7.4809c-2.2021,2.3541-4.1819,5.0082-5.9398,7.9285
				c-0.4371-0.0466-0.8055,0.0013-1.0975,0.1675c-0.319,0.181-0.5389,0.4825-0.6347,0.8709l-0.0056,0.0254
				c-0.1937,0.9678-0.4735,2.2247-0.8287,3.7321c-0.8478,1.789-1.6285,3.6536-2.3281,5.604
				c-2.1728,6.0578-3.6627,12.6399-4.4628,19.6055c-0.1246,0.4202-0.2469,0.8353-0.3738,1.2607
				c-2.0305,6.7921-4.3259,13.9534-6.8208,21.2861c-2.4916,7.3197-5.0993,14.0763-7.7498,20.0826
				c-2.6415,5.977-5.3564,11.0154-8.0712,14.9749c-2.6314,3.8332-5.0587,5.8484-7.176,5.9888c-2.8276,0-4.937-2.6263-6.2684-7.8068
				c-1.3958-5.4257-2.221-12.3931-2.4543-20.7089c-0.2345-8.3586-0.0767-17.6502,0.4701-27.6165
				c0.5468-10.0199,1.2198-19.7173,2.0001-28.8234c0.7824-9.1642,1.5739-17.2782,2.3529-24.1165
				c0.7813-6.8885,1.2571-11.5712,1.416-13.9562c0-0.8174-0.3461-1.9397-1.9966-2.6489c-2.3135-0.9915-5.5221-0.9622-8.1703-0.1381
				c-1.8918,0.5913-2.2886,1.7142-2.2886,2.5519c0,0.9228-0.0395,2.1804-0.1161,3.7368c-0.0474,0.9081-0.106,1.8952-0.1781,2.9606
				c-1.2785-2.6562-3.0373-4.858-5.2493-6.5661c-2.8388-2.1883-6.8795-3.2982-12.0081-3.2982
				c-6.7261,0-12.4906,2.4764-17.1333,7.3598c-4.5863,4.8236-8.2335,10.9917-10.8389,18.334
				c-0.9087,2.5611-1.6923,5.208-2.3636,7.9225c-0.2475,0.0592-0.4473,0.1428-0.5846,0.2716
				c-0.1432,0.1342-0.2322,0.3078-0.2548,0.4955c-0.7813,2.9459-2.0756,6.6269-3.8479,10.9432
				c-1.7813,4.3366-3.9539,9.0356-6.4544,13.9664c-2.4961,4.911-5.3394,9.9263-8.4511,14.9055
				c-3.1128,4.9781-6.3834,9.5108-9.7217,13.472c-3.3349,3.9505-6.7814,7.1636-10.247,9.5497
				c-3.4127,2.354-6.7487,3.5474-9.9133,3.5474c-2.8062,0-5.1523-1.4572-7.1737-4.455c-2.0722-3.0683-3.7475-7.1258-4.9798-12.0599
				c-1.2424-4.9556-2.0282-10.6608-2.3383-16.9574c-0.3055-6.1303-0.2368-12.4043,0.2018-18.6564
				c8.4567-1.2666,15.4534-3.3631,20.8019-6.2335c5.4555-2.9245,9.7138-6.2616,12.6552-9.9178
				c2.9538-3.6737,4.7374-7.5305,5.3011-11.4635c0.5592-3.9273,0.1917-7.5514-1.0958-10.7735
				c-1.2909-3.2227-3.3755-5.92-6.1951-8.0176c-2.8388-2.1066-6.2425-3.1748-10.114-3.1748c-7.1997,0-13.3226,2.6765-18.1998,7.955
				c-4.8197,5.2126-8.5841,11.8181-11.1895,19.6328c-1.1317,3.396-2.0451,6.942-2.7627,10.6032
				c-0.1801,0.144-0.3309,0.3284-0.4143,0.583l-0.0113,0.0395c-0.7914,3.1624-2.0169,7.6314-3.6427,13.2832
				c-1.6212,5.6382-3.5615,12.0098-5.7645,18.9366c-2.1815,6.8524-4.6731,13.9314-7.4048,21.0398
				c-2.7283,7.0942-5.5728,13.6124-8.4533,19.3729c-2.8783,5.752-5.7892,10.552-8.6518,14.2674
				c-2.7768,3.6004-5.4352,5.4257-7.9009,5.4257c-1.5784,0-2.8152-1.7154-3.6788-5.0981c-0.929-3.6399-1.478-8.508-1.6302-14.4698
				c-0.1567-5.9865,0.0011-12.9804,0.4701-20.7867c0.469-7.8186,1.1409-16.0092,1.9989-24.3436
				c0.8546-8.3316,1.8039-16.724,2.8242-24.944c1.0158-8.2115,2.0846-15.8886,3.1759-22.8188
				c1.0789-6.8727,2.1071-12.9269,3.0575-17.994c0.9324-4.9708,1.7159-8.3462,2.3044-9.9748
				c0.3112-0.6291-0.08-1.2779-1.1624-1.9285c-0.8377-0.5011-1.8896-0.907-3.23-1.2447c-3.3935-0.7695-6.92-1.9848-10.4827-3.6117
				c-3.4544-1.5761-6.5864-3.3591-9.3113-5.3011c0.1308-13.3677-1.23-23.7563-4.0474-30.8787
				c-2.8569-7.2216-6.141-12.0661-9.7589-14.3993c-3.7205-2.3941-7.2549-2.5953-10.503-0.5947
				c-3.212,1.9758-5.0068,5.4155-5.336,10.2234c-0.3179,4.7216,1.3687,10.4917,5.0136,17.1496
				c3.6111,6.5886,10.3947,13.5605,20.1649,20.7252c-0.3236,7.4223-1.1094,15.8937-2.3371,25.1858
				c-1.248,9.4229-3.221,20.3599-5.8659,32.5078c-0.0812,0.2131-0.0721,0.4391,0.0271,0.6454
				c0.0085,0.0175,0.0265,0.031,0.0361,0.0479c-1.4064,5.7032-3.6277,11.7761-6.6235,18.0696
				c-3.1105,6.5271-6.9685,12.7082-11.4669,18.3706c-4.4995,5.6624-9.6495,10.5762-15.3046,14.6039
				c-4.9651,3.5378-10.3248,5.9009-15.9653,7.0424c3.6573-3.0683,6.8118-7.1596,9.3981-12.1941
				c2.9922-5.8315,5.2278-12.3378,6.6438-19.3379c1.4127-6.9809,2.0497-14.1924,1.8952-21.4338
				c-0.1578-7.2261-1.0361-13.8863-2.6089-19.7957c-1.5851-5.9381-4-10.884-7.1782-14.7003
				c-3.2424-3.8873-7.2729-5.858-11.9799-5.858c-4.017,0-7.6867,1.0615-10.9088,3.1539c-3.1771,2.0643-6.1151,4.8005-8.7329,8.132
				c-2.6021,3.3112-4.8839,7.114-6.7814,11.3023c-1.885,4.1607-3.5942,8.455-5.0824,12.7629
				c-1.4837,4.2909-2.717,8.508-3.6652,12.5351c-0.5806,2.4679-1.0913,4.6906-1.5389,6.7104
				c-0.7565-8.6816-1.7035-17.2793-2.8242-25.6086c-1.2852-9.5588-3.2458-18.0735-5.8299-25.3205
				c-0.5659-1.4882-1.752-2.2233-3.4048-2.1359c-0.8038,0.0462-1.3946,0.3241-1.7565,0.827
				c-0.4352,0.6043-0.4938,1.4577-0.1781,2.6156c0.9301,3.2514,1.796,7.8186,2.5739,13.5735
				c0.7768,5.7611,1.3315,12.4765,1.6494,19.9597c0.3202,7.5086,0.4814,15.6987,0.4814,24.3436
				c0,8.6123-0.2412,17.6333-0.7181,26.8155c-3.0914,6.6224-7.079,12.516-11.8547,17.5189
				c-4.8073,5.044-9.8671,9.9849-15.0374,14.6862c-5.1523,4.6844-10.2301,9.5633-15.0915,14.5019
				c-4.8907,4.9713-9.0441,10.7623-12.3519,17.2263c-1.5829,3.3293-2.982,7.2036-4.1568,11.5148
				c-1.1793,4.3225-1.9775,8.8327-2.3721,13.4049c-0.3923,4.5739-0.2728,9.1331,0.3563,13.5509
				c0.6359,4.4352,1.8839,8.4584,3.7092,11.9579c1.8478,3.5294,4.4893,6.415,7.8513,8.5757
				c3.3743,2.1697,7.6777,3.2701,12.7905,3.2701c5.2819,0,10.7837-2.0976,16.3531-6.2352
				c5.5424-4.1179,10.6766-10.9613,15.2584-20.3402c4.5615-9.3406,8.3801-21.6266,11.3474-36.5157
				c2.9662-14.879,4.4702-33.3731,4.4702-54.9698v-10.7121c0-3.6111-0.0789-7.4606-0.2379-11.3694
				c0.619-7.1433,1.8828-14.9991,3.7565-23.3493c1.867-8.3265,4.3124-16.1366,7.2673-23.2128
				c2.9369-7.039,6.5469-13.0053,10.7296-17.7325c4.106-4.6359,8.7916-6.9866,13.9292-6.9866c2.2334,0,4.15,2.1308,5.698,6.3327
				c1.619,4.3958,2.717,10.008,3.2627,16.6812c0.5423,6.6906,0.5423,14.0678-0.0011,21.9265
				c-0.5457,7.8519-1.7283,15.2218-3.5142,21.9039c-1.7813,6.6579-4.2086,12.2623-7.2166,16.6575
				c-2.9313,4.2853-6.5345,6.4584-10.707,6.4584c-3.1748,0-5.7284-0.5665-7.5909-1.6832c-1.5716-0.9425-2.9211-2.2469-4.0237-3.8867
				c1.6595,0.0282,3.0135-0.4448,4.0181-1.4493c1.1939-1.1945,1.8444-2.588,1.9335-4.1438c0.0846-1.5322-0.345-2.9989-1.2773-4.3614
				c-0.9763-1.4155-2.601-2.1331-4.831-2.1331c-2.0654,0-3.7238,0.7881-4.929,2.3416c-1.212,1.5558-1.5626,3.3106-1.0429,5.2126
				c1.1195,4.1725,3.1579,7.5943,6.0587,10.1704c2.9121,2.5897,7.2278,4.0643,12.8176,4.3823
				c8.2143,0.6325,16.0656-0.5293,23.3329-3.4538c7.2538-2.9172,13.892-7.2752,19.7286-12.9534
				c5.8253-5.6709,11.0103-12.6484,15.4083-20.7387c4.3969-8.0914,8.0565-17.1209,10.8773-26.8375l0.0226-0.1607
				c0-0.2392-0.0896-0.418-0.226-0.5605c2.5223-11.1048,4.4209-21.2674,5.6342-30.2044c1.1962-8.8271,1.9753-16.9168,2.318-24.0657
				c1.9053,1.0789,3.8107,2.1116,5.6732,3.0756c1.9876,1.0316,4.0305,1.9341,6.0779,2.6866
				c-0.4735,2.3895-1.1883,6.1134-2.141,11.1732c-1.0113,5.3546-2.0902,11.5588-3.2977,18.967
				c-1.1793,7.2312-2.2898,15.2003-3.2999,23.6858c-1.0192,8.5283-1.8523,17.1316-2.4758,25.5708
				c-0.6257,8.4302-0.9425,16.7224-0.9425,24.6464c0,7.9364,0.5175,15.0583,1.5378,21.1666
				c1.0271,6.1709,2.7171,11.1918,5.0226,14.923c2.3766,3.8535,5.5909,5.8073,9.556,5.8073c3.2943,0,6.7273-2.0068,10.2042-5.9651
				c3.3946-3.8682,6.6698-8.9398,9.7352-15.0729c3.0474-6.0937,6.0644-12.9218,8.9674-20.2946
				c2.9008-7.3721,5.5187-14.711,7.7825-21.8137c1.3616-4.2758,2.6142-8.3526,3.7506-12.2017
				c0.1567,6.344,0.8864,12.3913,2.1976,18.0423c1.814,7.818,4.8208,14.4681,8.9348,19.7652
				c4.1748,5.3817,9.477,8.1106,15.7601,8.1106c5.6213,0,11.4579-2.8253,17.3486-8.3981
				c5.8174-5.504,11.273-12.1941,16.2167-19.8842c4.9369-7.6782,9.2278-15.5453,12.7533-23.3837
				c0.1657-0.3678,0.3157-0.7163,0.4761-1.0777c-0.3363,7.2744,0.0829,14.1919,1.2523,20.6033
				c1.3416,7.344,3.7092,13.5188,7.0384,18.3526c3.3935,4.9307,7.831,7.4308,13.1896,7.4308c3.8749,0,7.3158-1.0665,10.2268-3.1697
				c2.8658-2.0677,5.4104-4.8135,7.5638-8.1608c2.1263-3.3095,4.0057-7.0266,5.584-11.0498
				c1.0756-2.7469,2.0474-5.5294,2.9031-8.3102c0.0552,6.8079,0.2469,13.5633,0.575,20.135
				c0.3878,7.9178,1.2233,15.0758,2.4814,21.276c1.2616,6.2374,3.0271,11.3649,5.2447,15.2398
				c2.2954,4.0203,5.3158,6.0593,8.9765,6.0593c3.309,0,6.6303-2.0942,9.8727-6.2245c3.1522-4.0215,6.2639-9.2465,9.2493-15.5301
				c2.9809-6.2802,5.8017-13.3114,8.3834-20.8977c0.9084-2.6703,1.7762-5.3191,2.6235-7.9536
				c0.2021,3.5856,0.5975,7.0453,1.2063,10.3443c1.3428,7.269,3.7103,13.4032,7.0362,18.2336
				c3.3935,4.9308,7.831,7.4308,13.1896,7.4308c3.4104,0,6.6968-1.1883,9.769-3.5322c3.0192-2.3039,5.876-5.4803,8.4883-9.4409
				c2.5942-3.9279,4.911-8.5198,6.8851-13.6479c1.5435-4.0141,2.884-8.2025,4.0001-12.4917
				c0.5897,6.7989,1.3822,13.2054,2.3631,19.0888c1.1432,6.8851,2.5434,12.972,4.1613,18.0899
				c1.6235,5.1393,3.5311,9.2346,5.6686,12.1732c2.2142,3.0479,4.7047,4.5936,7.4003,4.5936c3.4611,0,6.937-2.0496,10.3304-6.092
				c3.3056-3.933,6.6168-9.0779,9.8412-15.2911c3.2053-6.1794,6.3034-13.1298,9.2087-20.6593
				c2.8986-7.5244,5.5164-14.9416,7.7803-22.046c2.2785-7.1557,4.2605-13.737,5.8918-19.5612
				c1.6133-5.7628,2.7554-10.2025,3.3935-13.2009l0.15-0.1776l-0.1127-0.3382c-0.1376-0.4143-0.5637-0.5902-1.9053-0.7836
				c-1.0226-0.1443-2.1151-0.19-2.4803,0.5519l-0.0462,0.1297c-0.6257,2.8106-1.7712,7.1162-3.4048,12.7973
				c-1.6144,5.6156-3.5931,11.9855-5.8795,18.9315c-2.2537,6.8355-4.7464,13.9985-7.4105,21.2895
				c-2.6517,7.2481-5.495,13.9218-8.45,19.8351c-2.9471,5.8947-5.937,10.8136-8.8874,14.6197
				c-2.8513,3.6787-5.5502,5.544-8.0193,5.544c-1.752,0-3.23-1.845-4.3936-5.4849c-1.2368-3.8546-2.2198-8.8479-2.92-14.8412
				c-0.7035-6.017-1.1759-12.6941-1.4047-19.8458c-0.23-7.1314-0.3461-14.0955-0.3461-20.6998
				c0-6.7323,0.0744-12.4252,0.2277-17.405C667.2277,202.568,667.3044,199.3475,667.3123,197.5369z M667.5987,192.1558
				c0.9526-19.9698,2.8331-37.0761,5.5897-50.8615c2.8062-14.0295,6.1591-25.5145,9.9675-34.1369
				c3.7949-8.5965,7.866-14.9078,12.1028-18.7584c4.1895-3.8061,8.2966-5.7357,12.2087-5.7357
				c3.7351,0,7.1568,1.6415,10.1715,4.8777c3.0508,3.2842,5.2222,7.7487,6.451,13.2696c1.2334,5.5508,1.3101,12.0949,0.2277,19.4501
				c-1.0857,7.3575-3.7982,15.2172-8.0632,23.36c-4.274,8.1568-10.4996,16.5487-18.5042,24.9434
				C689.9248,176.766,679.7849,184.6996,667.5987,192.1558z M655.0934,204.9846v5.8721c-0.1556,6.5277-1.062,13.4196-2.6934,20.4851
				c-1.6313,7.0711-3.7588,13.6113-6.3225,19.4388c-2.5547,5.8062-5.4939,10.6693-8.7386,14.454
				c-3.1647,3.694-6.5818,5.5666-10.1569,5.5666c-2.2323,0-4.1489-2.1308-5.6979-6.3327
				c-1.6201-4.4025-2.6787-10.0125-3.1432-16.6738c-0.469-6.7047-0.4284-14.0447,0.1184-21.816
				c0.5423-7.7729,1.7249-15.1028,3.513-21.7867c1.7757-6.6478,4.2053-12.2933,7.22-16.7782
				c2.9335-4.3614,6.5345-6.5728,10.7036-6.5728c5.1478,0,8.7927,2.208,11.1411,6.7509
				C653.4169,192.2009,654.7822,198.0612,655.0934,204.9846z M559.9781,182.5694c-0.3157,3.7661-0.5535,7.8547-0.708,12.1524
				c-0.1578,4.3123-0.3946,8.7679-0.7024,13.2443c-0.7813,3.7351-1.8467,8.2684-3.1646,13.4748
				c-1.3202,5.2036-3.053,10.2425-5.1478,14.9771c-2.0846,4.7092-4.6652,8.7763-7.6698,12.0881
				c-2.9301,3.2334-6.4691,4.8727-10.5199,4.8727c-2.2322,0-4.1489-2.1308-5.6979-6.3327
				c-1.6212-4.4025-2.6798-10.0125-3.1432-16.6739c-0.4679-6.703-0.4296-14.0825,0.1172-21.9338
				c0.5423-7.8519,1.7249-15.2212,3.513-21.9045c1.7768-6.65,4.2053-12.2544,7.2177-16.657
				c2.9324-4.2853,6.5345-6.4584,10.707-6.4584c2.8693,0,5.2751,0.4932,7.1489,1.4651c1.8647,0.9724,3.3754,2.332,4.4916,4.0412
				c1.1297,1.7323,1.9752,3.8078,2.5107,6.1681C559.4697,177.4876,559.8215,180.0305,559.9781,182.5694z M449.8503,203.1153
				c0.3281-2.8535,0.8918-6.4612,1.6776-10.7408c0.8467-4.6393,2.1827-9.2358,3.9696-13.6609
				c1.77-4.3918,4.0339-8.2194,6.7307-11.3773c2.619-3.0683,5.9167-4.6241,9.8028-4.6241c2.3676,0,4.5852,0.7909,6.5909,2.3501
				c2.0192,1.5705,3.5006,3.6601,4.4014,6.2109c0.903,2.5626,1.0936,5.4358,0.5637,8.5396
				c-0.5333,3.1071-2.0372,6.2273-4.4724,9.2724c-2.4487,3.0621-6.15,5.902-11.0013,8.4426
				C463.4018,199.9958,457.2608,201.8741,449.8503,203.1153z M361.9719,118.6068c-3.3123-4.8541-5.3811-9.1811-6.1512-12.8593
				c-0.752-3.6173-0.5716-6.5384,0.5378-8.6811c1.08-2.0874,2.5682-3.1021,4.548-3.1021c1.4284,0,3.0508,0.7103,4.8219,2.1111
				c1.8106,1.4374,3.5401,3.7881,5.1388,6.9871c1.6122,3.2244,2.9425,7.4528,3.9538,12.5667
				c0.9527,4.849,1.4611,10.8164,1.5141,17.7517C369.9822,128.2309,365.1535,123.2641,361.9719,118.6068z M267.3945,262.4865
				c-0.9403,12.7815-2.3439,25.5133-4.1759,37.8839c-1.9482,13.171-4.5559,25.103-7.7498,35.4661
				c-3.1804,10.3226-7.1523,18.821-11.8063,25.2585c-4.5728,6.3248-9.9607,9.5317-16.0126,9.5317
				c-5.787,0-9.742-2.0592-12.0904-6.2943c-2.3755-4.2943-3.6584-9.5131-3.8129-15.5098
				c-0.1522-6.0463,0.5152-12.2144,1.9854-18.3317c1.478-6.1365,3.088-11.0492,4.7814-14.5921
				c2.938-5.8766,6.6235-11.0137,10.9539-15.268c4.3518-4.2757,8.9359-8.4646,13.6248-12.45
				c4.716-4.008,9.3586-8.2143,13.7995-12.5024C260.8295,271.8802,264.3549,267.4511,267.3945,262.4865z"/>
		</g>
		<g>
			<path d="M568.1418,606.3957c-1.053,0-2.1398,0-2.221,0.7244c-1.0869,4.4843-2.7351,9.2273-4.8986,14.0983
				c-2.1804,4.8986-4.7814,9.7454-7.7307,14.405c-2.9617,4.6765-6.2335,9.1304-9.7217,13.2375
				c-3.1996,3.7678-6.5378,7.0215-9.9382,9.6862c-0.0281-2.5344-0.1443-5.7875-0.3472-9.6957
				c-0.2356-4.5491-0.4713-9.4916-0.7057-14.8282c-0.2289-5.1878-0.5457-10.8164-0.9425-16.7297
				c-0.3935-5.8056-0.7869-11.4201-1.177-16.8362c-0.3946-5.424-0.8309-10.4595-1.2977-14.9681
				c-0.4702-4.5508-0.8636-8.3186-1.1736-11.2419c0-0.6049-0.2672-1.4341-1.5412-1.9493c-0.8681-0.3444-1.8264-0.4758-2.8524-0.3912
				c-1.0056,0.0868-1.8997,0.3004-2.6584,0.637c-1.1579,0.5186-1.4014,1.3405-1.4003,1.982
				c0.3146,4.2498,0.5919,9.7081,0.823,16.2234c0.2357,6.5734,0.5073,13.6146,0.8219,21.1243
				c-1.4003,7.1433-3.1714,14.109-5.2673,20.7055c-2.0992,6.6089-4.4645,12.5616-7.0294,17.6924
				c-2.5479,5.0953-5.4014,9.202-8.4804,12.2054c-3.0147,2.9374-6.2853,4.4268-9.7206,4.4268c-1.9775,0-3.5784-1.3185-4.8964-4.0305
				c-1.3788-2.8344-2.4307-6.7374-3.1263-11.6011c-0.7001-4.9054-1.1736-10.6281-1.407-17.0087
				c-0.2345-6.3992-0.274-13.1603-0.1172-20.0961c0.1522-6.8777,0.4679-13.9585,0.9403-21.0465
				c0.4701-7.0547,1.1037-13.6969,1.8771-19.7213c0.1398-0.854-0.0733-2.0243-1.8862-2.7487
				c-1.2469-0.4994-2.6359-0.7136-4.1308-0.6285c-1.4747,0.084-2.8783,0.3732-4.1714,0.8596
				c-1.867,0.6984-2.2593,1.8315-2.2571,2.6043c-0.6302,6.6118-1.1454,13.6699-1.531,20.9783
				c-0.2703,5.1041-0.4014,10.2125-0.4106,15.2648c-0.5307,1.959-1.1294,4.1575-1.8047,6.6267
				c-1.5491,5.6545-3.4871,12.0216-5.7588,18.9241c-2.2548,6.8389-4.787,13.9602-7.5266,21.1655
				c-2.7283,7.172-5.5728,13.8102-8.4545,19.7297c-2.8693,5.8925-5.8174,10.7679-8.7622,14.4912
				c-2.8546,3.6038-5.5536,5.4313-8.0238,5.4313c-1.752,0-3.23-1.845-4.3935-5.4849c-1.2368-3.8546-2.2198-8.8479-2.92-14.8412
				c-0.7013-5.9995-1.1759-12.6766-1.4093-19.8458c-0.2345-7.2007-0.3529-14.1653-0.3529-20.6998
				c0-6.5773,0.0789-12.4326,0.2356-17.4044c0.1511-4.9172,0.2266-8.0599,0.2345-9.8203
				c14.2911-8.8818,25.9621-18.2043,34.6938-27.713c8.7803-9.5638,15.4659-18.9563,19.8706-27.9181
				c4.4037-8.9703,6.9178-17.5972,7.4736-25.6418c0.5502-8.0475-0.2931-15.1778-2.5074-21.1931
				c-2.2255-6.0362-5.5333-10.8727-9.8299-14.3745c-4.327-3.5226-9.123-5.309-14.255-5.309c-7.5153,0-14.1558,3.1539-19.7353,9.3739
				c-5.5142,6.141-10.2245,14.321-14.0013,24.3138c-3.7656,9.9669-6.7859,21.4885-8.9765,34.2452
				c-2.1894,12.7386-3.6968,25.949-4.4803,39.2638c-0.2469,4.2003-0.4034,8.3838-0.5178,12.555
				c-2.0164,6.5377-5.7828,11.9548-11.2603,16.0953c-6.0418,4.5723-12.9946,8.1461-20.6655,10.6236
				c-7.7014,2.4899-15.7804,4.185-24.0139,5.0367c-8.0396,0.8348-15.2708,1.3439-21.5076,1.513
				c-0.1443-6.3333-0.1398-12.2651,0.0135-17.6389c0.1477-5.3237,0.301-9.7702,0.4555-13.2234
				c14.2956-8.8823,25.9711-18.1271,34.704-27.4824c8.787-9.4167,15.4737-18.7314,19.874-27.6859
				c4.4048-8.9736,6.92-17.6011,7.4736-25.6424c0.5502-8.0475-0.2525-15.1755-2.3867-21.1869
				c-2.1455-6.0362-5.4116-10.9128-9.7093-14.494c-4.3247-3.6038-9.123-5.4313-14.2471-5.4313
				c-6.5581-0.1573-12.4782,2.1111-17.5887,6.7419c-5.0565,4.5829-9.6146,10.8981-13.5481,18.7692
				c-3.9234,7.8484-7.2256,17.0369-9.813,27.3104c-2.5863,10.2645-4.6494,21.2179-6.1354,32.5563
				c-1.4825,11.3023-2.3958,22.9665-2.7114,34.6696c-0.3066,11.4337-0.0079,22.449,0.8884,32.7542
				c-3.495,0.0163-5.8749,0.1747-7.2662,0.4831c-1.3236,0.2965-1.9256,0.6285-2.0756,1.1465
				c-0.0417,0.1449-0.1003,0.5203,0.2638,0.8839c0.2976,0.2988,0.9786,0.7734,3.4352,1.4442
				c1.6607,0.4521,3.7509,0.765,6.2154,0.9301c1.4172,14.5104,3.7498,26.0392,6.9347,34.2716
				c3.2346,8.3694,6.8919,14.3864,10.8705,17.8831c3.4792,3.0654,7.0497,4.6116,10.6382,4.6116c0.5705,0,1.141-0.0389,1.7114-0.1167
				c4.1184-0.5648,7.7194-2.4871,10.7036-5.7131c2.9516-3.1906,5.1353-7.3113,6.4905-12.2471
				c1.354-4.9465,1.274-10.0825-0.239-15.2646c-1.5175-5.1793-4.8197-10.1394-9.8152-14.7426
				c-4.3281-3.9826-10.4105-7.1647-18.1141-9.4832c5.8952-0.2565,12.3362-0.8073,19.2055-1.6432
				c8.3981-1.0198,16.5211-2.9313,24.1413-5.681c7.6348-2.7526,14.5053-6.6681,20.4219-11.6371
				c2.5398-2.1334,4.6985-4.5974,6.5131-7.3406c0.0042,5.2646,0.0868,10.4933,0.3067,15.6343
				c0.5468,12.7623,1.6979,24.3121,3.4217,34.3292c1.7261,10.0469,4.0384,18.2539,6.8727,24.3943
				c2.9155,6.3152,6.4183,9.5176,10.4128,9.5176c3.4612,0,6.937-2.0496,10.3305-6.092c3.3011-3.9279,6.6122-9.0317,9.84-15.171
				c3.2222-6.1354,6.282-13.0493,9.0937-20.5488c2.8219-7.5226,5.4375-14.9365,7.7769-22.0353
				c1.356-4.1137,2.5753-8.039,3.6787-11.7889c0.2278,4.2368,0.5423,8.3845,0.9651,12.3751
				c0.7058,6.6766,1.9019,12.6569,3.5559,17.7742c1.6618,5.1466,3.796,9.3293,6.3417,12.4314
				c2.6133,3.1866,5.9325,4.8022,9.8649,4.8022c3.7272,0,7.2538-1.3101,10.4838-3.893c3.1759-2.5389,6.1117-5.9955,8.7262-10.274
				c2.5953-4.2476,4.9877-9.2708,7.1106-14.9309c1.6832-4.4871,3.2086-9.2769,4.5514-14.282
				c0.2322,7.2312,0.3833,14.1298,0.4521,20.5594c0.0755,7.3524,0.0394,13.1389-0.106,17.2072
				c-14.4568,9.0413-26.2112,18.4056-34.9385,27.8347c-8.7904,9.4922-15.476,18.8864-19.8718,27.9215
				c-4.4082,9.0543-6.8434,17.7246-7.238,25.7692c-0.3924,8.0469,0.5299,15.1733,2.7419,21.1824
				c2.2278,6.0378,5.5784,10.8367,9.9573,14.2634c4.2109,3.2926,8.8942,4.9589,13.9303,4.9589c0.2278,0,0.4566-0.0034,0.6866-0.0101
				c5.282-0.1618,10.7431-2.4211,16.2302-6.7149c5.4578-4.2717,10.4647-11.1534,14.8807-20.4546
				c4.3924-9.2645,8.0914-21.5093,10.9934-36.3946c2.8963-14.888,4.3653-33.3026,4.3653-54.7325v-6.2932
				c4.1636-2.9583,8.2313-6.6511,12.096-10.9799c3.9279-4.3986,7.5897-9.2149,10.8852-14.3153
				c3.2965-5.0999,6.1624-10.3947,8.5176-15.7364c2.3563-5.3366,4.1117-10.6016,5.2166-15.649l0.1206-0.5496l-0.5468-0.1342
				C569.2365,606.478,568.6525,606.3957,568.1418,606.3957z M521.6124,671.8296c-0.805,19.9856-2.6077,37.0952-5.362,50.866
				c-2.8016,14.007-6.1557,25.5325-9.9686,34.2553c-3.796,8.6687-7.9054,14.9771-12.2121,18.75
				c-4.2684,3.7328-8.3383,5.6258-12.0983,5.6258c-3.8941,0-7.3564-1.6015-10.2899-4.7599
				c-2.9719-3.2007-5.1038-7.6258-6.3338-13.1524c-1.2334-5.5604-1.3495-12.1061-0.345-19.4552
				c1.009-7.3552,3.6821-15.2133,7.9449-23.3549c4.274-8.1619,10.5007-16.5938,18.5076-25.0629
				C499.2693,687.2729,509.4115,679.2986,521.6124,671.8296z M420.9164,602.62c0.9527-19.9698,2.8332-37.076,5.5897-50.8615
				c2.805-14.0233,6.1196-25.5099,9.8525-34.1409c3.7159-8.5931,7.7859-14.9021,12.0971-18.7511
				c4.2661-3.8084,8.335-5.7391,12.0938-5.7391c3.7363,0,7.158,1.6415,10.1715,4.8777c3.0508,3.2841,5.2222,7.7487,6.451,13.2696
				c1.2345,5.5559,1.3506,12.1022,0.3461,19.4558c-1.009,7.3569-3.6821,15.2144-7.946,23.3543
				c-4.274,8.1569-10.4996,16.5487-18.5042,24.9434C443.2426,587.2303,433.1026,595.1639,420.9164,602.62z M331.6862,602.855
				c0.9527-19.9698,2.8332-37.076,5.5897-50.8609c2.805-14.0267,6.1591-25.5517,9.9686-34.2564
				c3.7926-8.6698,7.8637-14.9794,12.0983-18.7528c4.1872-3.7306,8.2966-5.6218,12.2121-5.6218
				c3.7396,0,7.1636,1.6032,10.176,4.7644c3.0485,3.2024,5.2188,7.6258,6.4477,13.1473c1.2323,5.5553,1.3089,12.0988,0.2266,19.4501
				c-1.0834,7.3541-3.796,15.2133-8.061,23.36c-4.2785,8.1614-10.5052,16.5938-18.5087,25.0635
				C354.0158,587.423,343.877,595.3956,331.6862,602.855z M348.5106,652.6545c4.5367,3.0801,7.9246,6.4646,10.07,10.0599
				c2.1364,3.5886,3.2966,7.3784,3.4499,11.2629c0.1511,3.9172-0.3517,7.4866-1.4949,10.6095
				c-1.1398,3.1173-2.7949,5.7374-4.92,7.7881c-3.9076,3.7633-8.5074,3.9516-12.7939,0.7757
				c-2.0294-1.5006-3.9076-4.1951-5.5841-8.0092c-1.6968-3.8495-3.1489-9.0734-4.3146-15.5267
				c-1.1398-6.2999-1.8061-14.3-1.9797-23.7878C338.1993,647.3754,344.107,649.6708,348.5106,652.6545z"/>
		</g>
		<g>
			<path d="M420.5015,297.8811h28.3871v2.46h-1.3958c-1.9944,0-3.4905,0.4318-4.4882,1.296
				c-0.9966,0.8642-1.495,1.9397-1.495,3.2244c0,1.7289,0.7306,4.1218,2.1939,7.1799l14.8255,30.7147l13.6282-33.6397
				c0.7531-1.8168,1.1308-3.6117,1.1308-5.3851c0-0.7976-0.1567-1.3957-0.4656-1.7948c-0.3551-0.4871-0.9087-0.8749-1.6618-1.1635
				c-0.7542-0.2875-2.0846-0.4318-3.9899-0.4318v-2.46h19.812v2.46c-1.6404,0.1776-2.9031,0.5316-3.7892,1.0632
				c-0.8873,0.5321-1.8614,1.5293-2.9256,2.9921c-0.3991,0.6212-1.1522,2.3264-2.2605,5.119L453.21,370.2795
				c-2.3935,5.8941-5.5288,10.3485-9.4071,13.3627c-3.8783,3.0135-7.6123,4.5209-11.202,4.5209
				c-2.6156,0-4.7656-0.7542-6.4488-2.2605c-1.6855-1.5074-2.5265-3.2357-2.5265-5.1855c0-1.8614,0.6088-3.3575,1.8287-4.4877
				c1.2187-1.1302,2.8918-1.6951,5.0192-1.6951c1.4622,0,3.4566,0.4871,5.9832,1.4628c1.7723,0.6646,2.8805,0.9972,3.3236,0.9972
				c1.3304,0,2.7813-0.6877,4.3552-2.0609c1.5727-1.3743,3.1579-4.0339,4.7532-7.9781l4.3214-10.5706l-21.8729-45.9387
				c-0.664-1.3732-1.7283-3.0801-3.1906-5.119c-1.1082-1.5508-2.017-2.593-2.7261-3.1246
				c-1.0203-0.7086-2.6584-1.3298-4.9189-1.8614V297.8811z"/>
			<path d="M521.8198,296.0862c9.2177,0,16.6203,3.5017,22.2044,10.5041c4.7419,5.9832,7.114,12.8536,7.114,20.6091
				c0,5.4516-1.3078,10.9697-3.9222,16.5538c-2.6156,5.5846-6.2166,9.7961-10.804,12.6315
				c-4.5863,2.836-9.6957,4.2549-15.3238,4.2549c-9.1737,0-16.4658-3.6562-21.8718-10.9692
				c-4.566-6.1602-6.8479-13.074-6.8479-20.7427c0-5.5841,1.3845-11.1354,4.1545-16.6536s6.4161-9.5948,10.937-12.2324
				C511.9809,297.4053,516.7667,296.0862,521.8198,296.0862z M519.7589,300.4071c-2.3495,0-4.7103,0.6984-7.0801,2.0941
				c-2.3721,1.3963-4.2887,3.8456-5.7509,7.3462c-1.4622,3.5017-2.1939,8.0007-2.1939,13.4962
				c0,8.8648,1.7621,16.5104,5.2853,22.9361c3.5231,6.4268,8.1658,9.64,13.928,9.64c4.2988,0,7.8445-1.7723,10.6371-5.3186
				c2.7914-3.5457,4.1884-9.6399,4.1884-18.2827c0-10.8136-2.327-19.3233-6.981-25.5291
				C528.644,302.5345,524.6338,300.4071,519.7589,300.4071z"/>
			<path d="M613.4976,297.8811v36.8974c0,7.0469,0.1657,11.3581,0.4983,12.9308c0.3326,1.5733,0.8636,2.6703,1.5953,3.2903
				c0.7317,0.6212,1.584,0.9312,2.5593,0.9312c1.3732,0,2.9256-0.3766,4.6539-1.1302l0.9313,2.3264l-18.2167,7.5125h-2.991V347.742
				c-5.23,5.6743-9.2189,9.2414-11.9664,10.7037c-2.7486,1.4628-5.6517,2.1939-8.7092,2.1939c-3.4138,0-6.3721-0.9865-8.8762-2.9583
				c-2.504-1.9718-4.2435-4.5091-5.2188-7.6123c-0.9752-3.1015-1.4623-7.4894-1.4623-13.1631V309.715
				c0-2.8805-0.31-4.8749-0.9312-5.9837c-0.6212-1.1071-1.54-1.9611-2.7588-2.5592c-1.2188-0.5986-3.424-0.8748-6.6145-0.8309v-2.46
				h21.3408v40.7531c0,5.6737,0.9854,9.397,2.9583,11.1693c1.9719,1.7729,4.3541,2.659,7.1467,2.659
				c1.9053,0,4.0654-0.5981,6.4815-1.7948c2.416-1.1967,5.2853-3.4792,8.61-6.8479v-34.5039c0-3.4572-0.6313-5.7943-1.8952-7.0136
				c-1.2627-1.2188-3.8884-1.8721-7.8784-1.9612v-2.46H613.4976z"/>
			<path d="M646.0076,296.0862v13.6953c5.0959-9.1303,10.3259-13.6953,15.689-13.6953c2.4375,0,4.4544,0.7424,6.0497,2.2267
				c1.5953,1.4859,2.3935,3.203,2.3935,5.1528c0,1.7283-0.5761,3.1911-1.7283,4.3873c-1.1534,1.1967-2.5266,1.7954-4.1218,1.7954
				c-1.5525,0-3.291-0.765-5.2188-2.2937c-1.9279-1.5293-3.3574-2.2937-4.2887-2.2937c-0.7971,0-1.6618,0.4436-2.5919,1.3298
				c-1.9944,1.8179-4.0553,4.8095-6.1827,8.9748v29.1859c0,3.3687,0.4205,5.9167,1.2627,7.645
				c0.575,1.1967,1.5953,2.1939,3.0575,2.9916c1.4634,0.7982,3.5671,1.1967,6.3158,1.1967v2.3935h-31.1797v-2.3935
				c3.1026,0,5.407-0.4871,6.9144-1.4622c1.1071-0.7086,1.8828-1.8388,2.327-3.3907c0.2209-0.7531,0.3326-2.9025,0.3326-6.4488
				v-23.6012c0-7.0903-0.1443-11.3119-0.4329-12.6648c-0.2886-1.3512-0.8196-2.3371-1.5953-2.9583
				c-0.7756-0.6201-1.7396-0.9307-2.8918-0.9307c-1.3743,0-2.9257,0.3326-4.6539,0.9972l-0.6641-2.3935l18.4152-7.4454H646.0076z"/>
		</g>
		<g>
			<path d="M234.8551,384.1377h25.528v2.46c-2.3495,0.1776-3.8885,0.5981-4.6201,1.2627c-0.7306,0.6652-1.097,1.6184-1.097,2.8591
				c0,1.3743,0.3766,3.0361,1.1308,4.986l13.0295,35.036l13.0971-28.5207l-3.4566-8.9753c-1.0643-2.659-2.46-4.4978-4.1883-5.5181
				c-0.9752-0.6201-2.7926-0.9972-5.4522-1.1297v-2.46h28.9869v2.46c-3.1917,0.1325-5.4522,0.7091-6.7814,1.7283
				c-0.8873,0.7092-1.3292,1.8394-1.3292,3.3907c0,0.8867,0.1759,1.7948,0.531,2.7255l13.8288,34.9695l12.8311-33.7062
				c0.8861-2.3935,1.3292-4.2988,1.3292-5.7177c0-0.841-0.4318-1.5953-1.2965-2.2604c-0.8636-0.6646-2.5592-1.0406-5.0858-1.1297
				v-2.46h19.2133v2.46c-3.8557,0.5761-6.6935,3.1906-8.5097,7.8445l-20.343,52.454h-2.7261l-15.2246-38.8918l-17.75,38.8918h-2.46
				l-19.5459-51.1907c-1.2864-3.2351-2.5491-5.4183-3.7892-6.5486c-1.2413-1.1302-3.1917-1.9831-5.8501-2.5592V384.1377z"/>
			<path d="M357.5795,382.3429v48.9302c0,3.8123,0.2762,6.349,0.8309,7.6123c0.5536,1.2633,1.3732,2.2052,2.46,2.8253
				c1.0857,0.6212,3.0688,0.9307,5.9505,0.9307v2.3935h-29.5844v-2.3935c2.9685,0,4.9629-0.2875,5.9832-0.8642
				c1.0192-0.5755,1.8275-1.5288,2.4262-2.8586s0.8974-3.8777,0.8974-7.6455v-23.4682c0-6.6033-0.1996-10.8801-0.5975-12.8305
				c-0.3112-1.4183-0.7982-2.4042-1.4634-2.9589c-0.6641-0.5536-1.5739-0.8309-2.725-0.8309c-1.2424,0-2.7486,0.3326-4.5209,0.9972
				l-0.9312-2.3935l18.3486-7.4454H357.5795z M352.062,350.498c1.8614,0,3.4454,0.6544,4.7532,1.9611
				c1.3067,1.3078,1.9605,2.8918,1.9605,4.7532c0,1.8619-0.6539,3.4572-1.9605,4.787c-1.3078,1.3298-2.8918,1.9944-4.7532,1.9944
				s-3.4578-0.6646-4.787-1.9944c-1.3292-1.3298-1.9944-2.9251-1.9944-4.787c0-1.8614,0.6528-3.4454,1.9606-4.7532
				C348.549,351.1524,350.1555,350.498,352.062,350.498z"/>
			<path d="M392.1505,395.2399c7.1354-8.5977,13.9382-12.897,20.4095-12.897c3.3236,0,6.1827,0.8309,8.5762,2.4927
				c2.3935,1.6624,4.2977,4.3991,5.7171,8.2104c0.9741,2.6596,1.4622,6.738,1.4622,12.233v25.9942
				c0,3.8557,0.31,6.4713,0.9312,7.8451c0.487,1.1082,1.274,1.9724,2.3597,2.5925c1.0857,0.6212,3.0914,0.9307,6.017,0.9307v2.3935
				H407.507v-2.3935h1.2638c2.8354,0,4.8197-0.4318,5.9494-1.296c1.1308-0.8647,1.9166-2.1381,2.3608-3.8231
				c0.1759-0.6646,0.2661-2.7475,0.2661-6.2492v-24.9305c0-5.5401-0.7215-9.5622-2.1613-12.0667
				c-1.4408-2.5034-3.867-3.756-7.2797-3.756c-5.2751,0-10.5266,2.8817-15.7556,8.6427v32.1104
				c0,4.1218,0.2424,6.6709,0.7306,7.6455c0.6201,1.2858,1.4735,2.2272,2.5592,2.8253c1.0857,0.5987,3.2909,0.8974,6.6157,0.8974
				v2.3935h-30.1166v-2.3935h1.3304c3.1015,0,5.1951-0.7864,6.282-2.3597c1.0857-1.5727,1.6291-4.5761,1.6291-9.0086v-22.6035
				c0-7.3135-0.1668-11.7674-0.4994-13.3632c-0.3315-1.5953-0.8422-2.681-1.5288-3.2577c-0.6877-0.5755-1.6066-0.8642-2.7588-0.8642
				c-1.2413,0-2.7261,0.3326-4.4544,0.9972l-0.9966-2.3935l18.3486-7.4454h2.8591V395.2399z"/>
			<path d="M458.7648,422.8299c-3.7227-1.8168-6.5818-4.3546-8.5762-7.6123s-2.991-6.858-2.991-10.8029
				c0-6.0271,2.2706-11.2127,6.8141-15.5572c4.5423-4.3428,10.3598-6.5147,17.4512-6.5147c5.8062,0,10.8367,1.4188,15.0915,4.2549
				h12.8976c1.9053,0,3.0136,0.0558,3.3236,0.1657c0.31,0.1116,0.5321,0.2993,0.6652,0.5654
				c0.2661,0.3986,0.3991,1.1082,0.3991,2.1274c0,1.1528-0.1116,1.9504-0.3326,2.3935c-0.133,0.2221-0.3653,0.3985-0.6979,0.5316
				c-0.3326,0.1331-1.4521,0.1996-3.3574,0.1996h-7.911c2.4814,3.1912,3.7227,7.269,3.7227,12.2324
				c0,5.6737-2.1725,10.5272-6.5153,14.5594c-4.3439,4.0339-10.1715,6.0503-17.485,6.0503c-3.0147,0-6.0937-0.4425-9.2403-1.3298
				c-1.9515,1.6849-3.2695,3.1579-3.9561,4.4211c-0.6877,1.2627-1.0305,2.3383-1.0305,3.2244c0,0.7537,0.3653,1.4854,1.097,2.194
				c0.7317,0.7091,2.1613,1.2193,4.2887,1.5287c1.2401,0.1776,4.3428,0.3326,9.3068,0.4656
				c9.1298,0.2221,15.0464,0.5316,17.7511,0.9307c4.1218,0.5761,7.4127,2.1054,9.8716,4.5869c2.46,2.4831,3.69,5.5401,3.69,9.1749
				c0,5.008-2.3495,9.7059-7.0463,14.0938c-6.9144,6.4708-15.9348,9.7065-27.059,9.7065c-8.5537,0-15.7781-1.9279-21.6722-5.7836
				c-3.3247-2.2171-4.9865-4.5209-4.9865-6.9144c0-1.0637,0.2435-2.1274,0.7317-3.1911c0.7531-1.6404,2.3033-3.9223,4.6539-6.8474
				c0.3089-0.3991,2.5694-2.7926,6.7803-7.1799c-2.3044-1.3738-3.9335-2.6032-4.8862-3.69
				c-0.9538-1.0857-1.4296-2.3157-1.4296-3.6895c0-1.5513,0.6313-3.3681,1.8952-5.4516
				C451.2855,429.5893,454.1999,426.6422,458.7648,422.8299z M458.1007,445.0349c-2.0846,2.2605-3.6573,4.3648-4.7205,6.3158
				c-1.0643,1.9499-1.5953,3.7447-1.5953,5.3851c0,2.1274,1.2841,3.9888,3.8557,5.5847c4.4308,2.7475,10.8367,4.1218,19.2134,4.1218
				c7.9776,0,13.8615-1.4076,17.6508-4.2216c3.7892-2.8151,5.6844-5.8174,5.6844-9.0086c0-2.305-1.1308-3.9454-3.3913-4.9195
				c-2.3044-0.9752-6.8705-1.5519-13.6947-1.7283C471.1302,446.2981,463.4627,445.788,458.1007,445.0349z M470.3331,385.534
				c-3.2808,0-6.0283,1.3078-8.2436,3.9223c-2.2176,2.6156-3.3247,6.6263-3.3247,12.0329c0,7.0035,1.5062,12.4325,4.5209,16.2883
				c2.3044,2.9251,5.2289,4.3879,8.7758,4.3879c3.3676,0,6.1376-1.2633,8.3102-3.7898c2.1714-2.526,3.2571-6.4922,3.2571-11.8998
				c0-7.0475-1.5287-12.565-4.5863-16.5544C476.7819,386.9962,473.8777,385.534,470.3331,385.534z"/>
			<path d="M549.9115,382.3429v20.7421h-2.1939c-1.6844-6.5153-3.8456-10.9466-6.4815-13.2967
				c-2.637-2.3484-5.9944-3.5232-10.0723-3.5232c-3.1026,0-5.6066,0.8207-7.5119,2.4594c-1.9065,1.6404-2.8591,3.4572-2.8591,5.4516
				c0,2.4831,0.7091,4.61,2.1274,6.3823c1.3732,1.818,4.1658,3.7458,8.3766,5.7842l9.707,4.7199
				c8.9967,4.3879,13.4951,10.1721,13.4951,17.352c0,5.5406-2.0936,10.0052-6.282,13.3959
				c-4.1883,3.3907-8.8761,5.0858-14.061,5.0858c-3.7227,0-7.9776-0.6646-12.7646-1.9944
				c-1.4622-0.4425-2.6595-0.6646-3.5897-0.6646c-1.0203,0-1.8185,0.5761-2.3935,1.7283h-2.194v-21.7393h2.194
				c1.2401,6.2053,3.6111,10.8812,7.1129,14.0273c3.5006,3.1477,7.4229,4.7205,11.7679,4.7205c3.0576,0,5.5514-0.8974,7.4792-2.6923
				c1.9279-1.7954,2.8918-3.9561,2.8918-6.4821c0-3.0581-1.0756-5.628-3.2244-7.7121c-2.15-2.0829-6.4387-4.7205-12.8649-7.911
				c-6.4263-3.1911-10.6371-6.0717-12.6315-8.6427c-1.9944-2.5265-2.991-5.7177-2.991-9.5734c0-5.008,1.717-9.1963,5.1523-12.565
				c3.4341-3.3676,7.8784-5.0525,13.3294-5.0525c2.3935,0,5.2954,0.5096,8.7092,1.5287c2.2604,0.6646,3.7667,0.9972,4.5209,0.9972
				c0.708,0,1.2627-0.1545,1.6618-0.4651c0.3991-0.3101,0.8647-0.9972,1.3958-2.0609H549.9115z"/>
		</g>
		<g>
			<path d="M511.7001,498.6856c-3.9809,3.0778-6.4792,4.8563-7.495,5.336c-1.5254,0.7058-3.1489,1.0587-4.8704,1.0587
				c-2.6821,0-4.8918-0.9171-6.6281-2.7526c-1.7362-1.8348-2.6043-4.2486-2.6043-7.2414c0-1.8912,0.4239-3.5294,1.2706-4.9127
				c1.1578-1.92,3.1692-3.7267,6.035-5.4206c2.8647-1.6939,7.6292-3.7549,14.2922-6.1833v-1.5243
				c0-3.8682-0.6133-6.5221-1.8422-7.9618c-1.2278-1.4403-3.0136-2.1601-5.3563-2.1601c-1.7791,0-3.1917,0.4803-4.2357,1.4403
				c-1.0733,0.96-1.6088,2.0609-1.6088,3.3028l0.0846,2.4566c0,1.2988-0.3326,2.3011-0.9955,3.0068
				c-0.6629,0.7057-1.531,1.0586-2.6043,1.0586c-1.0451,0-1.8986-0.3664-2.5615-1.1009c-0.664-0.7339-0.9955-1.7368-0.9955-3.0068
				c0-2.4279,1.2424-4.6585,3.7261-6.6912c2.4848-2.0327,5.9719-3.0491,10.4612-3.0491c3.4442,0,6.2673,0.5789,8.4691,1.7362
				c1.6663,0.8754,2.894,2.2441,3.6844,4.1077c0.5084,1.2142,0.7621,3.699,0.7621,7.4533v13.171c0,3.6991,0.071,5.9646,0.212,6.7972
				s0.3743,1.3907,0.699,1.6725c0.3247,0.2824,0.699,0.4233,1.1218,0.4233c0.4521,0,0.8478-0.0986,1.186-0.2965
				c0.593-0.3664,1.7362-1.3974,3.4307-3.0914v2.3715c-3.1624,4.2351-6.1827,6.3524-9.0632,6.3524
				c-1.3834,0-2.4848-0.4803-3.3033-1.4397C512.1522,502.6389,511.7283,501.0013,511.7001,498.6856z M511.7001,495.933v-14.7798
				c-4.2628,1.6939-7.0159,2.8941-8.2572,3.5998c-2.2311,1.2424-3.8264,2.5406-4.7859,3.8958
				c-0.9606,1.3551-1.4397,2.8377-1.4397,4.4471c0,2.0327,0.6065,3.7199,1.8208,5.0604c1.2131,1.3416,2.6111,2.0119,4.1928,2.0119
				C505.3765,500.1681,508.1995,498.7566,511.7001,495.933z"/>
			<path d="M539.5236,472.5561c4.5457-5.477,8.8795-8.2155,13.0013-8.2155c2.1184,0,3.9392,0.5293,5.4634,1.588
				c1.5243,1.0587,2.7385,2.8022,3.6427,5.2301c0.6201,1.6939,0.9312,4.2921,0.9312,7.7921v16.5588
				c0,2.4561,0.1973,4.1224,0.593,4.9973c0.3101,0.7058,0.8106,1.2565,1.5029,1.6517c0.6922,0.3957,1.9695,0.5925,3.8332,0.5925
				v1.5248h-19.1841v-1.5248h0.8039c1.8072,0,3.071-0.2751,3.7903-0.8258c0.7204-0.5502,1.221-1.3614,1.504-2.4347
				c0.1116-0.4239,0.1691-1.7503,0.1691-3.9809v-15.8813c0-3.5288-0.4589-6.0908-1.3766-7.6861
				c-0.9177-1.5947-2.4634-2.3929-4.637-2.3929c-3.3597,0-6.7059,1.8354-10.0374,5.5057v20.4546
				c0,2.6258,0.1556,4.2492,0.4667,4.8699c0.3946,0.8196,0.938,1.4189,1.6302,1.7999c0.6911,0.3811,2.0958,0.5716,4.2131,0.5716
				v1.5248h-19.1841v-1.5248h0.8467c1.9764,0,3.3101-0.5006,4.0023-1.5034c0.6923-1.0017,1.0384-2.9144,1.0384-5.738v-14.3987
				c0-4.6584-0.106-7.4962-0.3179-8.5125c-0.212-1.0164-0.5367-1.7075-0.9741-2.075c-0.4385-0.3664-1.0237-0.5507-1.7576-0.5507
				c-0.7903,0-1.7362,0.2119-2.8377,0.6353l-0.6347-1.5243l11.6879-4.743h1.8208V472.5561z"/>
			<path d="M598.9832,499.9139c-1.8918,1.9764-3.7418,3.3952-5.548,4.256c-1.8073,0.8608-3.7554,1.292-5.8445,1.292
				c-4.2346,0-7.9336-1.7717-11.096-5.3152c-3.1624-3.5429-4.743-8.0954-4.743-13.6575c0-5.5615,1.7509-10.6512,5.2515-15.2668
				c3.5006-4.6162,8.0046-6.9246,13.5098-6.9246c3.4161,0,6.2391,1.0874,8.4702,3.261v-7.1568c0-4.4324-0.106-7.1574-0.3179-8.1737
				c-0.212-1.0164-0.5446-1.7075-0.9955-2.075c-0.4521-0.3664-1.0158-0.5508-1.6934-0.5508c-0.735,0-1.7092,0.2266-2.9222,0.6776
				l-0.5513-1.482l11.5616-4.743h1.9053v44.8479c0,4.5457,0.106,7.3197,0.3179,8.3214c0.212,1.0028,0.5513,1.7013,1.017,2.0964
				c0.4656,0.3957,1.009,0.593,1.6302,0.593c0.7621,0,1.7791-0.2396,3.0485-0.7198l0.4667,1.482l-11.5199,4.7859h-1.9471V499.9139z
				 M598.9832,496.9494v-19.989c-0.1702-1.9194-0.6776-3.6697-1.5253-5.2509c-0.8467-1.5812-1.9685-2.774-3.3665-3.5789
				c-1.398-0.8044-2.7599-1.2069-4.0869-1.2069c-2.4848,0-4.7001,1.1156-6.6483,3.3456c-2.5694,2.9369-3.8546,7.2278-3.8546,12.8745
				c0,5.703,1.2424,10.0723,3.7272,13.1067c2.4837,3.0356,5.2515,4.553,8.3,4.553
				C594.0981,500.8034,596.583,499.5187,598.9832,496.9494z"/>
		</g>
	</g>
</g>
</svg>
