<?xml version="1.0" standalone="no"?>
<!DOCTYPE svg PUBLIC "-//W3C//DTD SVG 20010904//EN"
 "http://www.w3.org/TR/2001/REC-SVG-20010904/DTD/svg10.dtd">
<svg version="1.0" xmlns="http://www.w3.org/2000/svg"
 width="1600.000000pt" height="1066.000000pt" viewBox="0 0 1600.000000 1066.000000"
 preserveAspectRatio="xMidYMid meet">

<g transform="translate(0.000000,1066.000000) scale(0.100000,-0.100000)"
fill="#000000" stroke="none">
<path d="M678 10653 c-17 -4 -50 -62 -42 -75 3 -4 7 -27 10 -50 6 -54 13 -77
32 -106 11 -18 17 -20 23 -10 13 20 11 -17 -2 -63 -10 -33 -9 -42 7 -66 10
-15 19 -32 21 -38 1 -5 7 -28 12 -50 11 -46 31 -100 50 -134 25 -45 18 -108
-16 -136 -9 -8 -7 -21 12 -59 63 -131 68 -152 64 -333 l-4 -168 38 -6 c21 -3
43 -11 48 -16 24 -24 30 -206 11 -368 -5 -44 -6 -84 -2 -88 11 -13 0 -47 -16
-47 -7 0 -18 9 -24 21 -7 11 -14 18 -18 15 -3 -3 -15 0 -26 8 l-21 13 -1 -198
c-2 -228 -8 -252 -66 -245 -37 4 -83 52 -98 101 -5 16 -16 48 -24 70 -8 22
-15 67 -16 100 l0 60 -21 -35 c-12 -19 -25 -37 -30 -40 -5 -3 0 -19 10 -35 16
-28 49 -119 55 -155 1 -8 7 -24 12 -35 6 -11 23 -56 38 -100 16 -44 37 -99 47
-122 10 -24 19 -57 19 -74 0 -16 4 -38 9 -48 10 -18 12 -59 11 -216 0 -97 -8
-118 -51 -128 -55 -14 -92 49 -69 119 10 29 9 38 -2 52 -8 9 -20 31 -25 47 -6
17 -15 39 -19 50 -4 11 -7 23 -6 27 1 4 -14 19 -34 34 -38 29 -53 52 -66 99
-5 22 -6 19 -1 -10 4 -22 7 -65 7 -95 1 -44 6 -59 23 -75 22 -19 83 -185 83
-224 0 -10 7 -24 15 -31 8 -7 15 -21 15 -31 0 -11 4 -27 9 -37 12 -23 41 -121
41 -139 0 -8 7 -28 16 -44 10 -20 12 -35 6 -42 -18 -23 -23 -74 -11 -121 13
-52 3 -74 -37 -80 -12 -2 -18 -10 -16 -22 2 -11 6 -46 9 -79 4 -51 2 -64 -15
-83 -11 -13 -24 -22 -29 -20 -4 2 -9 -5 -11 -15 -2 -10 0 -17 5 -16 21 4 31
-4 51 -40 28 -49 28 -85 1 -112 -29 -29 -22 -99 14 -153 24 -35 27 -48 27
-130 0 -64 -4 -98 -15 -112 -12 -19 -12 -24 0 -40 35 -47 11 -114 -51 -140
-24 -10 -44 -22 -44 -27 0 -5 7 -6 16 -3 24 9 70 -20 87 -57 14 -28 16 -62 11
-208 -2 -96 -7 -182 -10 -192 -3 -10 -19 -20 -35 -24 -16 -3 -29 -9 -29 -13 0
-4 14 -39 32 -76 26 -56 32 -82 33 -141 1 -40 -2 -73 -7 -73 -4 0 -8 -18 -8
-40 0 -22 -6 -55 -14 -73 -18 -44 -73 -97 -99 -97 -24 0 -177 150 -177 173 0
7 -16 29 -35 47 -48 47 -65 84 -65 141 0 48 0 48 -28 43 -25 -5 -35 1 -80 53
-39 43 -52 66 -52 90 0 24 -9 39 -42 67 -23 20 -45 36 -49 36 -5 0 -16 16 -25
35 -9 20 -19 33 -22 30 -5 -4 15 -53 39 -95 5 -8 13 -24 18 -36 5 -11 21 -28
35 -37 20 -13 26 -26 26 -53 0 -19 -5 -44 -11 -55 -15 -29 -3 -56 26 -56 34 0
73 -28 96 -68 11 -19 29 -37 40 -40 27 -9 46 -42 54 -92 5 -34 11 -43 27 -43
36 0 174 -157 203 -230 3 -8 15 -32 26 -53 11 -21 24 -60 28 -85 5 -26 13 -67
19 -92 32 -133 33 -148 22 -191 -7 -24 -27 -61 -46 -81 -19 -21 -34 -42 -34
-48 0 -5 16 -17 36 -25 35 -14 36 -17 30 -52 -4 -21 -8 -56 -9 -78 -3 -38 -21
-84 -38 -95 -5 -3 -1 -25 7 -50 8 -24 15 -71 14 -104 -1 -34 2 -74 6 -91 4
-16 9 -91 11 -165 4 -130 3 -135 -18 -151 -18 -13 -28 -15 -46 -6 -13 5 -26 7
-30 4 -3 -4 10 -69 31 -144 20 -76 41 -156 47 -179 8 -32 7 -61 -6 -129 -12
-66 -14 -94 -5 -114 5 -14 16 -82 24 -151 7 -69 17 -133 21 -142 5 -13 3 -18
-10 -18 -9 0 -13 -5 -10 -10 4 -6 10 -8 15 -5 5 3 11 1 14 -4 4 -5 -3 -12 -14
-16 -11 -3 -20 -14 -20 -23 0 -12 3 -13 12 -4 16 16 38 15 38 -2 0 -8 -11 -17
-24 -20 -21 -5 -26 -14 -32 -54 -11 -77 -81 -126 -100 -69 -5 12 -7 27 -6 33
1 7 -2 24 -8 38 -7 20 -16 26 -39 26 -16 0 -32 4 -36 9 -3 5 -31 12 -63 16
-31 3 -72 7 -90 10 -18 2 -30 0 -28 -4 3 -4 0 -13 -6 -21 -8 -13 -9 -12 -5 1
3 10 -8 30 -26 50 -16 19 -32 29 -34 23 -2 -7 -13 -10 -24 -7 -15 4 -18 2 -13
-11 3 -9 10 -16 15 -16 5 0 9 -5 9 -11 0 -6 -8 -8 -19 -4 -26 8 -33 -27 -15
-70 17 -43 17 -45 -1 -45 -14 0 -19 -11 -16 -37 3 -19 -64 -16 -79 2 -7 8 -16
15 -21 15 -5 0 -9 -115 -9 -255 0 -235 6 -294 25 -235 3 11 11 20 16 20 5 0 9
7 9 15 0 9 6 18 14 21 8 3 12 14 9 27 -3 15 -2 18 4 9 5 -7 17 -10 26 -6 10 3
18 1 18 -5 1 -6 2 -17 3 -23 1 -7 10 -12 19 -11 13 1 17 -4 13 -14 -3 -8 -3
-20 1 -26 4 -7 9 -28 10 -47 1 -22 -1 -30 -6 -21 -7 11 -12 9 -22 -10 -41 -74
-45 -159 -8 -159 20 0 27 -26 9 -32 -6 -2 -1 -11 11 -22 22 -18 22 -18 15 8
-6 25 7 36 19 16 9 -15 25 -12 25 5 0 8 5 15 11 15 6 0 17 7 26 16 9 8 27 14
42 12 21 -2 27 -9 29 -34 2 -25 -5 -40 -33 -69 -19 -21 -34 -39 -33 -40 2 -2
27 -13 55 -25 58 -25 96 -22 112 9 13 23 -7 71 -28 71 -9 0 -1 12 17 29 23 20
40 27 58 23 54 -10 57 -85 4 -97 -16 -4 -30 -11 -30 -17 0 -6 10 -8 21 -5 30
8 86 -37 97 -77 5 -17 8 -51 7 -76 -2 -25 -3 -62 -4 -82 -1 -32 -7 -42 -43
-68 -32 -24 -51 -30 -90 -30 -26 0 -48 4 -48 10 0 12 -59 7 -87 -8 -12 -7 -31
-12 -42 -12 -24 0 -29 -7 -37 -56 -18 -114 -18 -112 12 -121 33 -8 97 -8 201
2 75 7 128 1 118 -14 -3 -5 0 -11 6 -13 7 -2 8 -17 4 -41 -4 -20 -11 -34 -16
-31 -5 3 -4 -7 1 -21 13 -33 13 -38 0 -30 -6 3 -7 -1 -4 -9 3 -9 10 -16 14
-16 4 0 10 -11 12 -25 3 -13 2 -23 -2 -20 -8 5 -8 -138 0 -145 22 -21 26 -102
9 -207 -3 -15 -35 -27 -48 -18 -12 7 -73 -27 -79 -43 -2 -7 5 -15 15 -19 10
-4 24 -13 31 -20 9 -9 26 -11 48 -7 31 6 33 5 31 -22 -1 -16 -8 -35 -14 -42
-16 -16 -17 -32 -3 -32 6 0 10 -6 10 -14 0 -7 11 -21 25 -30 53 -35 59 -56 40
-148 -12 -65 -22 -89 -43 -109 -37 -35 -65 -49 -99 -49 -16 0 -23 -4 -16 -8 6
-4 -41 -8 -105 -8 -70 -1 -118 -6 -120 -12 -2 -6 -18 -8 -37 -5 -19 3 -72 2
-119 -2 l-86 -7 0 -114 0 -114 1678 0 1679 0 25 48 c14 26 42 92 64 147 21 55
72 165 112 245 41 80 82 172 92 205 38 128 154 405 186 445 6 8 26 44 44 80
54 109 150 261 210 335 80 99 94 122 78 129 -8 3 -6 5 4 3 21 -3 100 62 141
117 81 108 153 186 191 206 22 13 64 39 91 59 77 57 167 109 320 187 77 39
202 103 277 143 181 95 318 155 458 201 141 47 189 65 310 122 52 25 114 53
138 63 23 10 42 21 42 24 0 3 -7 25 -15 48 -24 70 5 141 105 248 47 50 47 52
69 175 54 305 114 453 228 568 40 40 80 87 89 105 9 18 32 46 53 64 l36 32
-23 44 c-13 25 -47 73 -74 108 -127 157 -201 306 -287 579 -16 52 -45 145 -65
205 -77 242 -91 322 -102 571 -6 143 -5 170 16 264 16 79 20 121 16 170 -4 36
-9 92 -12 125 -3 33 -17 97 -31 142 -18 58 -23 93 -19 118 4 19 10 35 14 36 9
1 24 5 79 20 42 11 116 6 142 -10 25 -16 1 -46 -58 -74 -44 -22 -63 -39 -79
-68 -12 -21 -16 -39 -10 -39 7 0 6 -5 -2 -15 -7 -8 -9 -15 -5 -15 4 0 2 -6 -4
-14 -9 -11 -9 -15 1 -19 10 -4 10 -7 -1 -15 -11 -8 -11 -10 0 -15 10 -4 10 -6
2 -6 -19 -1 -15 -21 4 -21 9 0 24 -7 34 -16 12 -11 22 -13 36 -6 16 9 75 14
121 11 9 0 38 -2 64 -2 36 -2 44 -5 36 -14 -8 -10 -4 -13 18 -14 24 -1 25 -2
7 -6 -13 -2 -23 -10 -23 -18 0 -7 -15 -26 -32 -41 -28 -23 -29 -26 -10 -22 12
4 22 3 22 -1 0 -5 18 -6 40 -4 31 3 40 1 40 -12 0 -21 5 -20 75 20 75 42 83
51 100 114 12 47 12 50 -6 48 -10 -1 -19 -5 -19 -10 0 -5 -8 -6 -17 -3 -9 4
-20 1 -25 -6 -6 -10 -8 -10 -8 2 1 19 43 51 71 53 27 2 43 23 62 84 16 53 14
82 -11 121 -8 12 -12 33 -10 47 4 17 1 25 -8 25 -8 0 -11 6 -8 15 3 8 -6 26
-20 40 -15 15 -24 31 -21 36 4 5 -1 9 -10 9 -9 0 -13 5 -10 10 11 17 -15 40
-46 40 -15 0 -35 7 -44 16 -13 14 -33 15 -128 10 -62 -3 -120 -6 -129 -6 -10
-1 -20 -5 -23 -11 -4 -5 -27 -9 -52 -9 -30 0 -53 -7 -70 -20 -14 -11 -31 -20
-38 -20 -7 0 -18 -7 -25 -15 -7 -8 -21 -15 -31 -15 -16 0 -18 5 -13 28 4 15
10 34 15 42 4 9 19 56 32 105 20 71 27 124 31 247 4 87 9 164 11 170 2 7 14
76 25 152 22 149 60 254 100 276 25 13 27 32 3 23 -16 -6 -16 -5 -5 10 21 26
45 -3 38 -46 -3 -17 -3 -26 0 -19 9 20 23 14 44 -20 12 -20 17 -41 14 -55 -8
-29 15 -61 27 -41 6 9 9 6 9 -9 0 -14 6 -23 15 -23 8 0 15 3 15 8 0 4 18 7 40
6 31 -1 40 3 36 13 -9 24 50 16 68 -9 12 -16 18 -19 22 -10 3 7 12 18 19 25 7
7 15 22 19 32 7 22 113 59 131 46 14 -10 65 -13 79 -3 6 4 18 7 26 8 8 1 23 2
33 3 9 0 17 8 17 16 0 18 21 20 38 3 9 -9 48 -14 110 -15 123 -2 116 -1 103
-17 -9 -11 -8 -15 5 -20 23 -9 36 -7 29 3 -3 6 4 15 15 21 17 9 20 8 21 -7 0
-16 1 -16 9 2 5 11 9 14 9 6 1 -8 9 -11 24 -8 12 3 31 2 42 -2 19 -8 19 -8 -3
-22 -12 -8 -22 -20 -22 -28 0 -8 3 -12 6 -9 3 4 19 2 35 -2 17 -5 31 -5 34 1
11 17 36 9 61 -18 13 -16 23 -22 22 -14 -2 7 2 15 8 18 8 3 14 -21 19 -69 4
-40 11 -78 16 -84 6 -8 4 -14 -6 -17 -12 -5 -13 -12 -5 -32 14 -36 13 -38 -11
-64 -22 -23 -22 -23 -1 -17 27 9 43 -32 18 -49 -18 -14 -21 -26 -5 -23 6 2 14
-3 16 -9 3 -7 -3 -13 -12 -13 -12 0 -15 -6 -10 -20 4 -11 2 -20 -4 -20 -6 0
-11 5 -11 11 0 6 -6 9 -12 6 -12 -3 -14 -10 -17 -59 -1 -10 -7 -18 -15 -18 -7
0 -19 -7 -26 -15 -17 -20 -32 -19 -28 3 2 9 9 16 14 15 5 -1 11 8 11 19 2 19
1 19 -16 4 -10 -9 -32 -16 -49 -16 -32 0 -72 -29 -72 -51 0 -7 -8 -18 -17 -26
-10 -8 -12 -11 -4 -7 8 4 12 3 8 -3 -3 -5 -29 -9 -57 -7 -27 1 -52 -2 -56 -7
-3 -5 -10 -7 -15 -4 -5 4 -15 3 -21 -2 -7 -4 -25 -6 -40 -4 -31 3 -38 -18 -14
-42 16 -16 5 -44 -13 -33 -6 4 -14 1 -17 -7 -3 -9 -13 -13 -26 -9 -18 4 -20 2
-14 -21 6 -24 3 -27 -18 -27 -14 0 -28 -4 -31 -10 -10 -16 -35 -12 -35 6 0 8
-5 12 -11 9 -6 -4 -7 -19 -4 -36 5 -23 3 -28 -8 -24 -24 10 -40 -20 -26 -46
10 -20 9 -25 -12 -42 -13 -11 -17 -18 -9 -16 8 1 35 -3 59 -10 38 -11 43 -15
38 -37 -3 -16 0 -24 9 -24 8 0 14 9 14 21 0 12 4 17 11 13 6 -3 9 -15 6 -25
-3 -10 1 -26 8 -36 8 -10 11 -29 8 -42 -4 -16 -2 -22 5 -17 19 11 25 -15 6
-28 -11 -9 -15 -19 -10 -31 4 -11 0 -25 -10 -36 -8 -9 -18 -37 -21 -60 -4 -24
-10 -48 -15 -54 -43 -53 -86 -154 -73 -175 4 -6 0 -12 -7 -15 -9 -4 -13 -25
-13 -68 0 -34 -4 -65 -10 -69 -6 -5 -5 -11 4 -17 11 -7 11 -9 0 -13 -11 -4
-12 -8 -1 -20 10 -13 9 -18 -3 -28 -8 -7 -15 -19 -15 -26 0 -8 -4 -22 -9 -32
-6 -9 -12 -29 -15 -44 -7 -29 -46 -78 -64 -78 -5 0 -13 -7 -16 -16 -3 -8 -10
-13 -15 -10 -5 3 -11 -1 -15 -9 -3 -8 -15 -15 -27 -15 -15 0 -19 -5 -15 -15 3
-8 2 -15 -3 -15 -17 0 -3 -62 19 -85 34 -36 75 -54 137 -62 76 -9 98 -57 49
-110 -14 -15 -23 -30 -20 -34 2 -4 56 -6 119 -3 68 2 115 0 115 -5 0 -5 8 -12
18 -14 9 -3 3 -5 -15 -6 -42 -1 -125 -38 -121 -53 1 -7 -4 -23 -11 -36 -10
-19 -18 -22 -40 -17 -19 4 -41 -2 -71 -19 -23 -13 -49 -22 -56 -19 -8 3 -14 0
-14 -6 0 -7 -14 -17 -30 -22 -16 -6 -30 -17 -30 -24 0 -7 -7 -15 -15 -19 -8
-3 -20 -26 -26 -50 -10 -40 -13 -44 -30 -35 -30 16 -35 47 -27 185 4 64 2 81
-8 81 -8 0 -14 -5 -15 -11 0 -6 -4 -1 -9 11 -5 13 -5 35 1 55 5 18 11 53 14
77 5 47 25 112 37 122 5 3 -5 23 -21 45 -15 21 -36 60 -46 87 -20 52 -40 60
-55 22 -5 -14 -16 -25 -25 -25 -8 0 -15 -9 -15 -20 0 -11 -9 -25 -20 -32 -11
-7 -20 -18 -20 -24 0 -6 -9 -23 -20 -37 -11 -14 -20 -36 -20 -49 0 -15 -3 -19
-8 -10 -6 9 -12 5 -20 -13 -7 -14 -17 -37 -24 -51 -10 -20 -9 -30 1 -46 8 -14
9 -23 3 -27 -14 -8 -13 -160 1 -188 6 -13 16 -23 24 -23 7 0 13 -4 13 -10 0
-14 72 -80 81 -74 5 3 9 15 9 26 0 11 5 39 11 62 20 74 18 70 35 55 13 -11 19
-8 39 17 23 27 24 28 25 7 0 -12 -8 -29 -17 -39 -18 -18 -20 -24 -26 -132 -4
-65 9 -140 31 -179 16 -29 32 -29 32 0 0 31 27 67 50 67 21 0 76 -51 85 -80 7
-23 18 -25 46 -10 13 7 19 7 19 0 0 -12 37 -14 44 -1 3 5 -2 11 -13 14 -21 5
-31 45 -31 119 0 44 2 50 19 45 13 -3 22 3 30 20 9 19 17 24 33 19 13 -3 29 1
40 11 14 12 31 15 77 10 32 -3 63 -1 68 3 4 4 29 11 56 14 43 7 50 5 77 -22
26 -27 28 -33 20 -63 -15 -52 -32 -63 -106 -65 -36 -2 -71 -7 -77 -12 -21 -17
-88 -34 -110 -29 -14 4 -31 -2 -46 -14 -44 -36 -30 -38 244 -29 17 1 53 -2 80
-7 45 -7 50 -11 53 -36 2 -15 -1 -27 -6 -27 -5 0 -12 -10 -15 -21 -4 -14 -11
-20 -21 -16 -8 3 -17 -1 -20 -9 -3 -8 -19 -14 -41 -14 -26 0 -35 -4 -35 -16 0
-11 -6 -15 -20 -11 -13 3 -20 0 -20 -9 0 -8 -9 -14 -20 -14 -10 0 -23 -6 -27
-14 -4 -8 -17 -16 -28 -19 -19 -5 -19 -5 3 -12 21 -7 21 -8 5 -20 -25 -18 -10
-29 38 -27 23 1 46 -1 52 -5 21 -13 58 -13 50 0 -4 7 0 6 10 -2 9 -7 17 -19
17 -26 0 -7 7 -18 15 -25 12 -10 13 -15 4 -21 -8 -4 -4 -12 12 -23 18 -11 32
-13 54 -7 17 5 23 10 15 11 -11 1 -9 4 5 10 30 13 38 12 31 -5 -3 -9 0 -15 8
-15 16 0 14 42 -2 48 -18 6 -14 19 8 25 17 4 20 0 20 -24 0 -19 5 -29 15 -29
8 0 15 4 15 9 0 5 11 8 25 7 28 -1 33 -11 10 -20 -8 -3 -12 -12 -9 -21 3 -8 1
-15 -5 -15 -6 0 -8 -7 -4 -16 3 -9 0 -20 -8 -25 -12 -7 -11 -11 5 -26 13 -13
20 -15 23 -5 3 6 9 12 15 12 10 0 7 -29 -7 -63 -6 -15 -4 -18 15 -15 25 3 64
64 53 82 -17 26 -12 96 7 96 4 0 11 -11 14 -25 7 -28 21 -33 30 -10 3 8 12 15
20 15 8 0 17 6 19 13 4 9 7 9 15 -1 9 -14 66 -6 57 8 -6 10 30 42 38 33 11
-10 8 -20 -10 -39 -13 -13 -14 -19 -5 -22 20 -6 4 -101 -24 -142 -13 -19 -28
-50 -35 -68 -6 -17 -15 -30 -19 -27 -5 3 -11 -1 -14 -7 -4 -7 -4 -3 -2 9 2 13
1 23 -3 23 -15 0 -53 -49 -46 -59 7 -12 -17 -41 -33 -41 -17 0 -72 -69 -66
-84 6 -16 -24 -36 -43 -29 -7 3 -13 -3 -13 -12 0 -11 -5 -15 -15 -12 -8 4 -17
1 -21 -5 -5 -7 -2 -8 7 -3 10 6 11 5 4 -3 -6 -7 -25 -13 -43 -15 -31 -4 -58
-17 -34 -17 7 0 12 -5 12 -11 0 -6 -7 -8 -16 -5 -10 4 -14 2 -11 -6 7 -20 -13
-50 -28 -44 -8 3 -24 -7 -35 -22 -12 -15 -18 -20 -14 -12 7 13 5 13 -9 1 -10
-7 -30 -11 -47 -9 -17 3 -33 1 -36 -4 -3 -4 -18 -8 -35 -8 -19 0 -29 -5 -29
-15 0 -8 -3 -15 -7 -16 -5 0 -17 -3 -28 -5 -11 -3 -25 -6 -32 -6 -7 -1 -11
-10 -10 -21 1 -15 -4 -20 -25 -21 -14 -1 -24 2 -22 6 3 4 -20 32 -51 63 -30
31 -55 62 -55 70 0 8 -4 15 -10 15 -14 0 -12 -26 3 -42 7 -7 20 -38 30 -68 19
-64 45 -102 124 -182 65 -67 90 -78 63 -27 -8 15 -7 19 5 19 9 0 15 9 15 25 0
23 2 24 20 13 11 -7 18 -17 16 -23 -2 -5 3 -17 10 -26 11 -12 12 -23 3 -47 -6
-18 -15 -32 -21 -32 -5 0 14 -35 43 -77 29 -43 66 -98 82 -123 44 -65 86 -110
289 -305 168 -162 194 -185 207 -185 6 0 11 -4 11 -8 0 -4 20 -21 45 -37 l46
-28 -30 -13 c-40 -17 -58 -48 -67 -113 -6 -47 -5 -53 9 -48 17 6 31 -18 21
-35 -4 -5 -2 -20 3 -31 6 -12 17 -38 26 -57 11 -24 16 -29 16 -16 1 20 1 20
16 0 15 -18 16 -17 10 16 -3 19 -13 66 -22 103 -15 58 -15 70 -3 77 20 13 43
-24 45 -74 3 -56 16 -101 25 -86 4 7 7 -1 7 -17 0 -15 2 -84 5 -153 3 -77 0
-150 -8 -190 -6 -36 -10 -69 -7 -73 3 -4 -1 -14 -7 -22 -6 -8 -9 -19 -6 -24 4
-5 1 -13 -5 -16 -6 -4 -8 -18 -5 -30 3 -13 1 -27 -5 -30 -6 -4 -8 -13 -5 -20
2 -7 0 -30 -4 -52 -5 -21 -11 -61 -14 -88 -3 -28 -12 -84 -19 -125 -8 -41 -15
-82 -16 -90 0 -8 -3 -31 -6 -50 -3 -19 -7 -49 -9 -66 -2 -17 -5 -35 -8 -40 -3
-5 -6 -25 -6 -44 -1 -19 -9 -69 -18 -110 -9 -41 -20 -96 -25 -122 -4 -27 -11
-53 -14 -59 -4 -5 -9 -29 -12 -52 -2 -23 -9 -47 -14 -53 -5 -7 -9 -16 -7 -20
2 -10 -22 -114 -30 -128 -3 -5 -7 -26 -8 -47 -2 -20 -9 -50 -15 -66 -6 -15
-13 -38 -14 -51 -3 -24 -21 -103 -36 -163 -5 -20 -9 -52 -9 -71 0 -19 -3 -38
-7 -42 -11 -11 -12 -67 -2 -60 5 3 9 1 9 -5 0 -5 -5 -11 -10 -13 -6 -2 -12
-18 -15 -37 -2 -18 -6 -36 -9 -39 -3 -3 -1 -11 6 -19 8 -10 8 -17 0 -25 -23
-23 -11 -28 73 -28 70 0 85 3 85 16 0 8 4 13 9 10 15 -10 41 5 42 23 0 12 3
10 11 -6 6 -13 15 -23 20 -23 5 0 6 -4 3 -10 -3 -5 -2 -10 4 -10 5 0 12 6 14
13 4 9 6 9 6 0 1 -7 8 -13 17 -13 14 0 15 2 3 17 -9 11 -10 14 -2 10 8 -5 15
1 18 16 l7 25 22 -22 c15 -14 19 -25 13 -33 -7 -10 5 -13 56 -13 71 0 84 11
67 52 -5 14 -9 17 -10 8 0 -8 -11 2 -24 22 -12 21 -26 35 -29 31 -4 -3 -2 9 4
28 6 19 18 39 25 45 8 6 11 14 7 17 -3 4 -11 0 -18 -9 -6 -9 -30 -18 -52 -21
l-42 -5 2 46 c1 25 3 42 5 37 2 -6 10 -7 18 -4 11 4 13 14 8 37 -6 27 -5 29
10 17 12 -10 16 -10 16 -1 0 10 3 10 15 0 21 -17 21 6 0 26 -10 10 -15 11 -15
3 0 -8 -3 -9 -13 0 -8 6 -17 8 -20 4 -4 -3 -7 -3 -7 2 0 4 8 14 18 21 16 13
16 15 0 25 -10 5 -18 18 -19 27 0 14 -2 14 -10 -3 -8 -17 -9 -17 -4 5 2 14 5
28 5 33 0 4 23 6 50 4 35 -2 50 1 50 10 0 7 -4 13 -9 13 -5 0 -8 11 -8 24 0
17 4 23 13 19 18 -7 18 2 -2 32 -9 14 -24 25 -33 26 -12 0 -11 2 4 9 11 5 14
9 8 9 -7 1 -13 12 -13 25 0 13 -6 27 -12 29 -10 4 -9 8 2 16 27 19 43 13 36
-15 -6 -22 -5 -24 13 -15 13 7 17 17 14 31 -4 16 0 20 18 20 12 0 34 12 49 27
30 29 82 39 72 13 -3 -8 -11 -19 -19 -23 -17 -10 -17 -33 1 -40 19 -8 61 16
61 35 0 9 4 20 8 24 4 4 7 0 7 -8 0 -9 6 -21 14 -28 8 -6 12 -18 9 -26 -4 -10
2 -14 21 -14 14 0 26 5 26 10 0 6 5 10 11 10 8 0 8 -4 0 -14 -8 -10 -9 -16 -1
-21 14 -9 12 -45 -5 -78 -15 -30 -10 -52 19 -76 12 -10 14 -9 9 10 -5 18 -3
20 18 15 13 -3 18 -3 12 0 -19 9 -16 21 8 27 27 7 15 27 -17 27 -29 0 -32 16
-4 23 23 6 27 37 5 37 -8 0 -15 9 -15 21 0 11 4 18 9 15 5 -3 14 8 21 25 9 20
16 26 20 18 5 -6 15 -9 23 -6 20 7 49 -25 41 -46 -8 -22 30 -41 56 -27 17 9
20 7 26 -15 4 -14 4 -29 0 -32 -3 -4 -6 5 -7 18 l0 24 -10 -25 c-6 -13 -13
-20 -17 -15 -11 16 -34 17 -43 3 -7 -10 -9 -10 -9 2 0 13 -1 13 -10 0 -14 -22
-12 -27 8 -27 35 0 40 -4 38 -27 0 -13 -5 -22 -10 -19 -11 7 -26 -17 -26 -44
0 -12 7 -23 18 -26 9 -2 4 -3 -13 -1 l-30 4 25 -20 c21 -17 23 -21 10 -30 -11
-7 -11 -10 -2 -10 7 0 10 -4 7 -10 -12 -20 -41 -9 -60 22 -20 33 -20 33 -23 8
-1 -14 -8 -35 -14 -48 -15 -29 3 -52 25 -34 8 7 17 9 21 5 4 -4 4 0 0 10 -4
12 -1 17 11 17 12 0 15 -5 11 -16 -3 -9 -6 -23 -6 -32 0 -12 -3 -13 -11 -5 -8
8 -20 6 -45 -9 -20 -12 -41 -17 -54 -13 -39 13 -20 -20 25 -42 39 -19 47 -20
59 -7 13 12 16 12 26 -3 11 -17 11 -17 6 0 -3 11 -2 15 4 12 6 -3 10 0 10 7 1
7 6 3 13 -10 7 -12 15 -20 18 -18 2 3 25 7 51 9 46 5 57 -4 58 -45 0 -16 -29
-7 -35 10 -5 18 -46 25 -60 10 -4 -4 -14 -4 -23 -1 -11 5 -13 3 -7 -8 8 -12 6
-12 -8 0 -15 12 -17 11 -17 -3 0 -9 -5 -16 -11 -16 -5 0 -8 -4 -5 -9 3 -5 -2
-15 -11 -22 -14 -12 -15 -11 -9 9 5 16 3 22 -7 22 -14 0 -31 -39 -22 -48 9
-10 65 -11 65 -2 0 6 5 10 10 10 6 0 10 -9 10 -20 0 -11 7 -20 15 -20 8 0 14
3 14 8 -5 31 3 40 40 44 32 3 42 0 50 -17 7 -14 10 -16 11 -5 1 10 4 9 10 -5
l8 -20 8 20 c4 11 14 27 22 35 10 10 11 15 3 18 -6 2 -11 10 -11 18 0 7 -8 19
-19 25 -11 8 -16 19 -13 32 4 17 1 18 -27 12 -20 -4 -31 -3 -31 5 0 6 -5 8
-10 5 -6 -3 -10 -1 -10 5 0 7 8 9 20 5 11 -3 20 -2 20 3 0 5 11 7 25 4 14 -2
25 0 25 6 0 6 9 14 20 17 11 3 20 14 20 22 0 9 3 14 6 10 9 -9 34 19 34 37 0
8 9 18 20 21 25 8 27 28 3 23 -10 -2 -26 5 -37 16 -18 18 -18 19 -1 33 11 7
22 13 27 13 4 0 8 5 8 11 0 5 -4 7 -10 4 -5 -3 -10 0 -10 7 0 8 -3 9 -8 3 -10
-14 -52 -18 -52 -5 0 6 13 13 30 16 33 7 39 24 15 44 -8 7 -15 10 -15 6 0 -3
-8 2 -18 12 -10 9 -15 19 -12 22 4 3 12 19 18 35 6 17 11 23 11 13 1 -10 3
-18 6 -18 11 0 45 41 45 54 0 8 6 17 13 19 7 4 6 6 -4 6 -9 1 -19 9 -21 19 -4
15 0 18 29 15 22 -1 31 2 27 9 -4 5 0 14 7 19 9 7 5 7 -13 3 -32 -7 -35 2 -12
34 8 12 12 22 7 22 -4 0 -1 5 7 11 12 9 11 10 -7 6 -26 -6 -46 14 -37 37 5 13
0 16 -22 15 -16 0 -23 -3 -16 -6 16 -6 16 -35 0 -31 -7 1 -22 -3 -33 -9 -18
-10 -82 -24 -128 -28 -11 -1 -21 4 -24 12 -6 17 -50 17 -56 1 -4 -10 -8 -9
-16 2 -9 12 -11 9 -12 -15 -1 -24 -3 -25 -6 -7 -2 12 -9 20 -14 16 -6 -3 -8 4
-6 18 2 12 2 18 0 11 -2 -7 -10 -10 -18 -7 -7 3 -15 -3 -18 -13 -4 -16 -5 -16
-6 0 0 9 -8 17 -16 17 -17 0 -21 19 -5 21 6 1 14 2 19 3 19 2 25 17 11 26 -9
6 -20 4 -30 -4 -12 -10 -20 -10 -37 -1 l-23 12 24 12 c29 16 86 6 86 -15 0 -8
7 -14 15 -14 8 0 14 3 13 8 -2 4 1 9 7 12 5 3 22 17 38 32 34 30 61 37 114 29
26 -5 34 -9 24 -15 -11 -7 -11 -10 0 -17 7 -4 10 -11 6 -15 -4 -4 -13 0 -20 9
-9 13 -20 16 -44 11 -33 -7 -81 -49 -69 -61 4 -4 10 -3 14 3 8 11 35 11 105 0
29 -5 52 -4 60 2 6 6 30 14 52 18 37 7 38 8 17 17 -12 6 -22 16 -22 24 0 7 -4
13 -10 13 -5 0 -10 -6 -10 -14 0 -19 -17 -29 -31 -20 -8 5 -6 10 5 16 9 5 14
14 10 19 -6 11 63 44 84 40 8 -1 19 3 26 9 8 5 21 8 30 4 9 -3 16 -1 16 5 0
14 -72 15 -86 1 -5 -5 -15 -6 -24 0 -12 7 -9 14 15 39 17 17 36 31 43 31 6 0
12 5 12 11 0 5 4 7 10 4 6 -4 7 6 4 25 -5 23 -3 30 9 30 9 0 20 6 24 13 10 18
43 31 68 28 16 -2 18 0 8 10 -20 20 -16 29 12 29 14 0 25 5 25 10 0 16 -52 12
-71 -6 -16 -14 -18 -14 -28 5 -9 16 -8 22 5 29 12 6 15 16 10 28 -6 16 -8 16
-16 4 -5 -8 -19 -15 -30 -15 -11 0 -25 -6 -29 -14 -6 -9 -10 -10 -16 -2 -10
16 12 40 53 57 43 18 52 18 52 0 0 -19 17 -29 33 -19 21 13 37 12 37 -3 0 -8
7 -14 15 -14 8 0 15 5 15 11 0 21 19 -2 25 -31 6 -30 25 -42 25 -17 1 6 6 1
13 -13 7 -14 17 -26 22 -25 20 1 36 17 31 30 -3 8 0 16 7 19 8 3 7 9 -5 19
-22 18 -22 27 -2 42 9 6 16 25 16 41 -1 64 49 211 68 199 6 -4 10 1 10 9 0 9
5 16 10 16 6 0 10 6 10 14 0 8 5 18 11 22 14 8 5 -126 -10 -154 -6 -11 -7 -22
-4 -26 3 -3 1 -6 -6 -6 -8 0 -11 -8 -8 -19 2 -10 -1 -49 -9 -87 -7 -38 -11
-72 -8 -75 10 -17 14 -261 4 -279 -8 -14 -8 -20 0 -20 7 0 9 -11 6 -28 -3 -15
-8 -65 -11 -112 -4 -46 -8 -87 -11 -91 -2 -4 -6 -64 -9 -134 -3 -70 -8 -131
-11 -136 -2 -5 -7 -64 -9 -131 -2 -68 -7 -150 -10 -183 -3 -33 -7 -76 -9 -96
-2 -20 -6 -41 -10 -48 -5 -8 69 -11 293 -11 230 0 301 3 305 13 5 9 7 9 12 0
3 -7 13 -13 22 -13 14 1 12 5 -7 20 -17 15 -19 20 -7 20 9 0 21 -9 28 -20 10
-15 24 -20 58 -20 25 0 51 5 58 12 9 9 12 9 12 0 0 -9 40 -12 148 -12 l149 0
11 25 c6 14 16 25 22 25 15 0 12 -20 -5 -26 -21 -9 -19 -24 4 -24 13 0 20 9
23 30 4 27 2 30 -24 30 -17 0 -31 7 -35 15 -7 20 -1 26 26 28 34 2 27 36 -9
43 -39 8 -39 19 0 19 16 0 29 5 27 10 -1 6 -6 9 -12 7 -5 -1 1 7 14 18 13 11
30 20 39 20 13 0 14 -2 0 -17 -8 -10 -15 -25 -15 -33 0 -8 -3 -25 -7 -37 -5
-14 -3 -23 3 -23 6 0 11 6 11 13 0 6 9 -1 20 -18 l20 -30 -6 35 c-6 32 -5 34
8 16 11 -13 17 -16 22 -7 4 6 11 9 16 6 4 -3 13 2 20 10 11 13 8 15 -16 16
-16 1 -32 1 -36 0 -5 0 -8 9 -8 22 0 14 3 18 8 10 6 -10 15 -10 40 -1 18 7 32
17 32 23 0 5 4 4 9 -4 5 -8 11 -9 15 -3 3 6 -7 16 -24 24 -16 7 -30 16 -30 20
0 5 -11 8 -24 8 -23 0 -36 16 -36 46 0 7 6 11 14 8 8 -3 17 0 21 5 3 6 11 9
16 6 5 -4 9 2 10 12 0 10 3 13 5 6 7 -16 34 -5 34 14 0 8 -5 11 -10 8 -6 -3
-10 -2 -10 3 0 6 -9 8 -19 5 -13 -3 -21 1 -24 14 -4 17 -5 17 -6 0 0 -10 -6
-15 -11 -12 -6 4 -8 11 -5 16 4 5 2 9 -4 9 -5 0 -12 -18 -16 -40 -4 -22 -11
-40 -16 -40 -5 0 -9 5 -9 10 0 6 -7 10 -15 10 -8 0 -15 6 -15 13 0 19 20 36
36 30 8 -3 14 1 14 11 0 9 -8 17 -17 17 -10 1 -25 2 -33 3 -8 0 -16 11 -18 23
-2 16 1 21 10 18 7 -3 18 -1 25 3 15 9 5 53 -11 50 -16 -3 -56 21 -56 34 0 6
11 8 30 5 21 -5 30 -3 30 6 0 20 -22 37 -47 37 -25 0 -31 15 -11 24 9 3 7 10
-7 22 -18 15 -18 16 -1 10 11 -4 32 2 52 15 18 11 39 17 45 13 6 -3 31 -8 55
-9 32 -3 44 0 44 10 0 8 -5 17 -10 20 -8 5 -7 11 0 20 9 11 4 14 -26 17 -21 2
-40 10 -44 18 -4 8 -12 25 -18 37 -15 29 -16 54 -1 33 7 -10 12 -11 15 -4 3 6
16 9 29 6 28 -5 30 0 15 29 -8 14 -17 18 -35 13 -19 -5 -25 -2 -25 10 0 9 7
16 16 16 10 0 14 6 10 15 -3 8 -1 15 4 15 6 0 10 5 10 11 0 7 -10 9 -24 5 -46
-11 -36 12 11 28 49 17 63 15 46 -6 -12 -15 -23 -78 -14 -78 15 1 41 29 33 34
-6 3 -8 15 -5 26 5 18 13 20 67 18 33 -1 67 -8 74 -15 18 -17 52 -16 77 3 17
13 18 16 5 25 -8 5 -35 8 -60 7 -36 -2 -46 1 -48 15 -2 9 1 17 5 17 5 0 18 6
28 14 17 12 17 16 6 30 -12 14 -12 16 0 11 8 -3 27 4 43 14 l30 20 -45 -3
c-24 -2 -60 -6 -79 -10 -37 -7 -78 14 -65 33 6 11 17 12 115 11 73 0 142 -19
138 -39 -2 -11 -12 -15 -31 -13 -19 3 -27 -1 -27 -12 0 -25 39 -59 61 -53 14
4 19 1 17 -11 -2 -10 -7 -20 -13 -24 -5 -4 -1 -8 10 -8 11 0 33 -7 49 -15 15
-8 32 -13 37 -10 11 7 32 -32 24 -45 -4 -6 0 -13 9 -16 12 -5 11 -10 -7 -30
-11 -13 -29 -24 -38 -24 -12 0 -16 -5 -13 -15 4 -8 1 -15 -5 -15 -15 0 -14
-27 1 -36 8 -5 9 -2 5 9 -3 10 -2 17 2 17 5 0 14 -14 20 -32 9 -25 8 -35 -5
-49 -13 -14 -13 -19 -2 -30 8 -7 12 -24 10 -38 -2 -16 4 -35 17 -50 12 -13 21
-29 21 -36 0 -16 35 -47 44 -38 4 4 4 -1 0 -11 -5 -14 -9 -15 -16 -4 -7 9 -8
5 -4 -12 3 -14 6 -33 6 -44 0 -13 5 -17 20 -13 13 3 20 0 20 -10 0 -8 5 -11
13 -7 7 4 9 3 4 -2 -8 -9 -12 -10 -38 -13 -7 0 -9 -12 -7 -26 3 -14 1 -25 -3
-25 -16 0 -10 -67 6 -74 10 -3 15 1 15 13 0 10 7 18 15 18 18 0 18 -2 4 -29
-8 -15 -8 -19 0 -14 17 11 13 -20 -4 -38 -8 -8 -15 -17 -15 -20 0 -3 7 -6 15
-6 16 0 17 -2 19 -50 1 -26 -2 -30 -26 -30 -16 0 -28 -5 -28 -11 0 -7 10 -9
25 -7 14 3 25 1 25 -3 0 -5 11 -9 25 -9 35 0 35 -37 0 -46 -24 -6 -36 -34 -15
-34 6 0 10 5 10 12 0 9 3 9 12 0 9 -9 175 -12 688 -11 386 0 666 4 655 9 -17
7 -17 9 -2 9 9 1 17 6 17 11 0 6 7 10 15 10 8 0 15 6 15 13 0 6 5 4 11 -6 12
-20 29 -14 29 11 0 15 -2 15 -10 2 -9 -13 -10 -13 -9 0 2 24 17 67 18 49 1
-18 31 -22 31 -3 0 17 19 22 58 16 23 -3 32 -1 32 10 0 23 -22 38 -58 38 -19
0 -31 4 -27 10 3 6 -1 10 -10 10 -9 0 -13 -4 -10 -10 3 -6 -1 -7 -9 -4 -9 3
-14 16 -13 27 2 18 14 25 67 39 38 10 54 17 38 17 -20 1 -27 7 -30 24 -2 12
-10 22 -19 22 -21 0 -49 24 -49 41 0 16 21 18 38 4 6 -6 10 -7 7 -4 -3 4 0 13
6 20 9 11 7 15 -5 20 -13 5 -14 9 -4 21 9 11 9 16 -3 24 -8 5 -21 9 -30 9 -9
0 -21 6 -27 13 -9 10 0 13 43 14 71 2 96 10 93 31 -2 12 6 18 27 20 l30 4 -42
19 c-23 10 -54 20 -70 22 -34 4 -73 24 -73 37 0 6 6 10 14 10 7 0 17 10 20 22
6 23 7 23 21 4 8 -11 15 -16 15 -10 0 5 4 4 8 -1 4 -6 25 -15 47 -21 33 -8 40
-13 38 -32 -3 -27 13 -29 27 -2 6 11 22 23 36 26 39 10 9 23 -51 24 -95 0 -98
2 -65 40 11 13 20 18 20 12 0 -7 5 -12 10 -12 6 0 10 6 10 14 0 8 15 17 35 20
19 4 35 12 35 18 0 6 -3 9 -6 5 -4 -3 -24 3 -45 13 -21 11 -47 20 -59 20 -13
0 -20 7 -20 20 0 27 36 26 51 -1 7 -15 14 -18 21 -11 15 15 1 62 -19 62 -15 0
-14 3 4 15 12 8 27 13 35 10 21 -7 49 20 41 40 -6 16 -7 17 -12 3 -5 -15 -8
-15 -25 -2 -17 12 -17 14 -3 14 11 0 14 5 10 16 -4 11 2 23 18 35 13 10 18 19
11 19 -9 0 -7 8 7 26 20 25 20 44 0 44 -5 0 -9 -7 -9 -15 0 -10 -10 -15 -32
-15 -42 0 -67 14 -43 24 9 3 26 6 36 6 16 0 19 5 14 20 -5 15 0 22 20 30 15 6
30 8 34 5 5 -2 13 7 19 20 9 18 19 25 41 25 31 0 51 -18 33 -29 -6 -3 -10 -15
-9 -26 2 -22 -31 -29 -46 -10 -5 6 -7 2 -5 -10 2 -14 17 -23 49 -32 32 -9 48
-20 52 -34 4 -16 2 -19 -11 -14 -14 5 -14 4 1 -13 9 -10 17 -26 17 -35 0 -9 6
-20 14 -24 22 -13 30 -68 11 -83 -19 -16 -19 -30 -1 -30 8 0 16 -7 20 -15 4
-11 -1 -15 -19 -15 -29 0 -34 -27 -7 -37 23 -8 52 -44 52 -65 0 -14 -8 -18
-33 -18 -19 0 -36 -3 -40 -6 -11 -12 6 -34 27 -34 33 0 49 -15 41 -39 -4 -13
-1 -27 9 -37 19 -18 21 -34 4 -34 -6 0 -8 -3 -5 -6 4 -4 13 -2 20 4 11 9 13 7
13 -11 -1 -15 6 -23 20 -25 16 -2 21 -10 20 -32 -1 -15 -3 -28 -6 -27 -3 1
-21 -2 -41 -6 -39 -8 -39 -8 -23 -99 7 -39 8 -41 15 -18 5 15 6 -4 4 -47 -2
-50 0 -73 8 -73 8 0 7 -4 -1 -12 -9 -9 -22 -9 -58 0 -45 12 -64 10 -64 -9 0
-6 4 -8 9 -4 5 3 12 1 16 -5 6 -10 -18 -42 -32 -40 -4 1 -9 -3 -11 -9 -2 -6 6
-11 17 -11 12 0 24 -7 27 -15 5 -11 16 -13 45 -9 33 6 39 4 39 -11 0 -11 -5
-15 -15 -11 -8 3 -15 1 -15 -5 0 -6 -9 -8 -20 -4 -11 4 -20 2 -20 -4 0 -8 513
-11 1700 -11 l1700 0 0 5330 0 5330 -7135 0 -7134 0 -5 -32 c-3 -18 -8 -80
-11 -137 -5 -108 -8 -121 -28 -121 -7 0 -20 -18 -29 -39 -22 -46 -22 -51 -4
-51 18 0 31 -73 24 -135 -4 -28 -1 -46 6 -48 8 -3 10 -67 9 -218 -2 -291 -7
-357 -26 -372 -8 -7 -17 -21 -19 -32 -3 -21 -36 -41 -79 -48 -19 -4 -36 3 -60
23 -31 25 -34 32 -33 81 3 176 20 366 34 384 17 22 35 139 24 156 -4 8 -9 8
-14 -1 -4 -7 -10 6 -14 31 -8 52 -17 45 -22 -18 -32 -412 -40 -473 -62 -487
-12 -7 -7 -162 7 -227 7 -31 11 -62 9 -69 -3 -13 28 -38 37 -28 14 13 13 54
-1 75 -13 21 -13 24 0 29 31 12 51 -1 57 -36 l5 -35 9 30 c9 33 20 46 53 64
31 17 39 9 58 -56 14 -48 15 -82 9 -217 -4 -89 -8 -195 -9 -236 -3 -109 -15
-389 -22 -505 -4 -55 -8 -129 -9 -165 -1 -36 -8 -157 -16 -270 -7 -113 -13
-221 -12 -240 0 -19 -4 -96 -8 -170 -4 -74 -10 -198 -14 -275 -6 -169 -15
-254 -26 -277 -5 -10 -5 -27 1 -43 6 -17 6 -72 -1 -163 -6 -75 -12 -189 -15
-252 -8 -232 -28 -290 -86 -248 -32 22 -59 68 -56 95 1 10 -2 37 -6 61 -7 33
-11 40 -22 31 -10 -8 -16 -2 -29 26 -19 47 -19 59 1 76 13 10 17 10 24 -2 5
-7 7 -24 3 -37 -4 -17 -2 -21 10 -16 15 5 28 35 40 90 7 31 -38 77 -68 70 -19
-5 -24 0 -33 33 -16 52 -15 60 8 106 11 22 20 56 20 75 -3 152 -3 194 3 263 4
42 10 89 13 104 l7 27 -26 -17 c-37 -24 -70 -21 -97 8 -13 14 -19 25 -14 25 5
0 3 4 -3 8 -7 4 -14 21 -16 38 -2 16 -9 38 -15 50 -12 22 -26 105 -37 209 -3
33 -13 71 -22 84 -8 13 -10 20 -4 17 6 -4 11 -1 11 8 0 8 -6 17 -12 19 -10 4
-10 7 0 15 10 7 10 11 -3 22 -13 11 -15 7 -17 -31 -2 -66 -2 -69 -13 -69 -14
0 -16 103 -2 112 7 4 20 5 30 2 14 -4 17 1 17 28 1 18 3 83 6 143 5 102 4 112
-15 132 l-21 22 20 19 c13 12 21 33 22 55 1 21 5 37 10 37 4 0 11 18 14 40 4
24 12 40 20 40 8 0 14 5 14 10 0 6 11 15 25 20 15 6 25 17 25 30 0 16 -7 20
-34 20 -22 0 -36 -6 -40 -17 -5 -13 -11 -11 -30 16 -27 36 -40 99 -27 132 5
15 3 45 -5 79 -10 47 -22 133 -24 178 0 7 -4 11 -8 8 -13 -8 -60 45 -73 82 -6
18 -15 32 -20 32 -5 0 -9 5 -9 11 0 5 5 7 10 4 6 -3 10 1 10 9 0 9 -4 16 -10
16 -6 0 -7 22 -5 53 3 28 2 72 -3 97 -4 25 -5 92 -1 150 3 58 3 107 -2 110 -4
3 -4 12 1 20 12 19 13 53 1 46 -4 -3 -6 6 -3 19 2 14 -2 31 -12 40 -20 20 -20
31 -2 38 7 3 16 15 19 26 3 12 2 19 -2 17 -3 -2 -15 2 -26 10 -19 14 -19 16
-2 25 9 6 17 18 17 27 0 14 2 14 9 3 7 -11 12 -3 20 30 6 24 16 51 21 61 5 9
6 33 3 55 -6 36 -5 37 13 23 10 -8 16 -11 12 -6 -6 7 32 69 53 86 10 8 39 68
39 81 0 7 -6 5 -14 -6 -10 -14 -21 -17 -51 -12 -21 4 -42 12 -46 19 -5 8 -11
3 -19 -17 -13 -35 -26 -45 -60 -45 -40 0 -49 12 -65 90 -8 40 -25 89 -37 108
-12 20 -16 32 -9 27 11 -6 13 9 9 80 -4 68 -8 89 -21 97 -21 11 -22 28 -3 28
8 0 17 12 20 28 4 15 9 35 12 45 4 12 0 17 -14 17 -11 0 -23 6 -25 13 -4 9 -8
8 -16 -3 -13 -19 -15 -17 -43 66 -18 51 -24 86 -21 127 3 57 3 57 -24 56 -16
-1 -35 -3 -45 -6z m115 -384 c-6 -6 -18 -9 -26 -7 -11 2 -12 9 -5 27 8 23 10
24 25 8 13 -12 14 -20 6 -28z m12 -89 c3 -5 1 -10 -4 -10 -6 0 -11 5 -11 10 0
6 2 10 4 10 3 0 8 -4 11 -10z m3408 -407 c48 -78 60 -127 53 -221 -4 -48 -8
-210 -11 -359 -3 -201 -9 -292 -21 -344 -16 -70 -16 -122 2 -304 4 -38 1 -126
-5 -195 -6 -69 -14 -165 -17 -215 -3 -49 -7 -126 -10 -170 -2 -44 -4 -123 -3
-175 4 -299 3 -448 -9 -750 -27 -728 -49 -1239 -63 -1435 -5 -77 -9 -149 -9
-160 4 -146 -24 -968 -36 -1040 -5 -35 -49 -89 -64 -80 -6 3 -17 20 -26 37
-14 27 -15 65 -10 287 12 515 18 687 28 731 5 25 9 56 8 70 -5 117 6 615 31
1335 6 171 10 339 9 375 -2 112 20 582 32 655 5 39 11 212 12 386 2 286 4 318
21 346 16 27 17 37 7 71 -15 51 -15 91 2 121 12 21 12 32 -1 74 -17 56 -13
195 9 407 13 117 13 140 1 175 -12 32 -13 74 -8 200 7 183 11 202 33 208 10 3
18 5 19 6 2 0 13 -16 26 -36z m-3195 -51 c2 -7 -3 -12 -12 -12 -9 0 -16 7 -16
16 0 17 22 14 28 -4z m512 -322 c0 -5 -2 -10 -4 -10 -3 0 -8 5 -11 10 -3 6 -1
10 4 10 6 0 11 -4 11 -10z m2917 -132 c25 -36 28 -50 26 -109 -3 -66 -2 -67
27 -77 29 -11 84 -76 102 -122 11 -29 130 -277 159 -331 10 -20 19 -43 19 -51
0 -7 9 -30 19 -51 10 -20 22 -49 26 -64 3 -16 19 -44 35 -65 16 -20 34 -55 39
-77 5 -23 21 -58 37 -78 37 -48 73 -139 74 -183 0 -29 10 -46 49 -88 58 -60
67 -90 56 -200 -10 -106 -10 -170 3 -291 9 -94 8 -111 -9 -168 -11 -35 -18
-67 -15 -72 25 -39 26 -443 1 -580 -13 -76 -14 -104 -5 -142 10 -39 9 -55 -5
-95 -16 -48 -15 -118 3 -150 10 -18 0 -80 -16 -96 -6 -6 -8 -36 -5 -69 3 -33
0 -77 -7 -102 -10 -39 -10 -49 6 -78 15 -29 17 -58 15 -194 -6 -461 -10 -513
-49 -557 -8 -10 -23 -18 -32 -18 -25 0 -62 -39 -55 -59 5 -18 -6 -32 -64 -81
-24 -20 -71 -28 -71 -11 0 5 -16 19 -35 31 -33 20 -35 25 -35 73 0 53 22 229
41 325 12 60 42 99 79 104 31 4 40 15 40 54 0 17 5 45 11 62 17 50 6 58 -28
22 -28 -30 -34 -33 -56 -23 -33 15 -40 59 -40 231 0 128 -8 166 -22 100 -4
-18 -12 -36 -17 -39 -6 -4 -9 -17 -8 -30 1 -13 3 -92 4 -175 1 -113 -3 -158
-13 -178 -12 -21 -12 -35 -3 -77 16 -67 15 -84 -4 -124 -11 -23 -25 -36 -45
-40 -28 -6 -29 -9 -30 -63 -1 -31 -3 -66 -5 -77 -1 -11 -4 -36 -6 -55 -2 -19
-7 -38 -11 -41 -5 -3 -10 -45 -12 -93 -4 -88 -28 -176 -49 -176 -6 0 -3 -5 7
-11 18 -11 18 -11 0 -28 -21 -21 -53 -8 -53 21 0 12 -8 18 -21 18 -11 0 -18 4
-15 8 2 4 0 14 -5 22 -7 10 -8 -3 -3 -41 6 -54 5 -57 -35 -105 -22 -27 -52
-60 -66 -74 -33 -34 -33 -54 0 -46 14 4 25 2 25 -3 0 -6 7 -8 15 -4 21 7 55
-25 55 -51 0 -12 7 -34 15 -50 25 -47 19 -91 -14 -115 -16 -12 -43 -21 -59
-21 -16 0 -42 -7 -58 -15 -20 -10 -31 -11 -41 -3 -7 6 -26 8 -41 5 -15 -3 -34
-2 -40 2 -20 12 -26 77 -12 141 10 48 10 63 0 75 -15 18 -15 349 0 490 5 50
10 153 10 230 0 77 5 157 11 178 11 41 12 70 10 332 -1 94 4 256 10 360 6 105
15 289 20 410 4 121 14 261 20 310 6 50 11 108 10 130 -4 485 2 715 24 1045 3
41 7 210 10 375 3 165 9 323 14 350 5 28 9 77 9 110 -1 43 4 69 17 88 16 25
17 33 5 85 -15 65 -14 240 2 259 17 21 26 16 55 -29z m1598 -497 c-3 -6 -11
-11 -17 -11 -6 0 -6 6 2 15 14 17 26 13 15 -4z m-45 -21 c0 -5 -5 -10 -11 -10
-5 0 -7 5 -4 10 3 6 8 10 11 10 2 0 4 -4 4 -10z m-254 -129 c-14 -13 -16 -13
-16 -1 0 13 -2 13 -11 0 -7 -11 -8 -6 -3 20 4 19 14 44 23 56 16 22 16 21 19
-19 2 -26 -2 -45 -12 -56z m-4712 -22 c10 -14 23 -109 25 -194 3 -97 21 -202
33 -190 3 4 9 1 13 -4 3 -6 -1 -14 -10 -17 -14 -6 -14 -8 2 -19 16 -12 16 -16
3 -41 -8 -16 -23 -35 -33 -42 -9 -7 -15 -18 -12 -23 4 -5 1 -9 -4 -9 -6 0 -11
-5 -11 -11 0 -6 -7 -18 -16 -26 -9 -9 -13 -25 -10 -37 7 -32 -17 -58 -50 -54
-54 6 -61 28 -58 173 1 72 6 168 10 215 4 47 7 126 8 176 1 110 9 124 66 114
23 -4 42 -9 44 -11z m4801 -338 c-3 -6 -14 -11 -23 -11 -13 0 -13 2 4 14 21
15 30 14 19 -3z m75 -150 c0 -12 -50 -44 -58 -36 -4 3 4 15 18 25 27 21 40 25
40 11z m-4793 -196 c-3 -21 -2 -33 4 -30 5 4 9 -1 9 -9 0 -9 -4 -16 -10 -16
-5 0 -10 -7 -10 -15 0 -8 -5 -15 -10 -15 -17 0 -37 57 -32 90 3 24 9 30 29 30
24 0 25 -3 20 -35z m4957 -170 c-4 -8 -8 -15 -10 -15 -2 0 -4 7 -4 15 0 8 4
15 10 15 5 0 7 -7 4 -15z m-1 -48 c4 3 7 -1 7 -10 0 -10 -8 -17 -20 -17 -14 0
-20 7 -20 21 0 17 3 19 13 10 8 -6 17 -8 20 -4z m-4950 -251 c9 -7 17 -18 17
-23 0 -6 7 -24 15 -39 22 -43 17 -173 -6 -159 -5 4 -9 2 -9 -2 0 -5 10 -13 22
-18 23 -11 22 -9 67 -108 27 -60 32 -81 33 -159 1 -50 7 -107 13 -126 13 -36
9 -76 -6 -66 -9 5 -4 -240 6 -346 5 -51 -8 -110 -24 -110 -11 0 1 -73 15 -95
11 -16 11 -29 2 -58 -10 -32 -8 -43 10 -79 29 -61 46 -138 33 -151 -14 -14
-14 -137 -1 -137 6 0 10 -9 10 -21 0 -11 -4 -18 -9 -15 -7 5 -21 -74 -21 -119
0 -16 11 -79 17 -95 3 -8 6 -37 7 -63 2 -28 8 -52 16 -57 9 -6 11 -21 7 -55
-5 -33 -3 -53 9 -70 12 -19 13 -28 4 -46 -8 -14 -8 -19 -1 -15 7 5 11 -8 11
-38 0 -25 -4 -46 -10 -46 -16 0 -32 41 -25 67 4 18 3 23 -7 17 -10 -6 -11 -5
-1 7 15 18 6 59 -13 59 -8 0 -14 5 -14 10 0 6 -8 10 -19 10 -18 0 -50 54 -38
66 10 10 -13 59 -34 72 -31 20 -34 8 -14 -56 18 -57 45 -177 45 -199 0 -6 -13
-20 -30 -30 -32 -19 -40 -52 -16 -72 10 -8 14 -35 14 -87 0 -41 5 -81 11 -88
9 -10 8 -15 -4 -20 -10 -4 -15 -19 -15 -49 0 -24 -5 -48 -11 -54 -8 -8 -8 -17
0 -31 14 -26 14 -76 0 -125 -9 -33 -13 -36 -34 -31 -29 7 -31 -1 -9 -44 8 -17
17 -64 20 -104 2 -40 13 -140 23 -223 11 -82 27 -208 37 -280 9 -71 16 -164
15 -205 0 -41 4 -104 10 -139 8 -53 7 -67 -6 -88 -14 -20 -14 -29 -4 -58 10
-28 10 -39 -1 -60 -11 -21 -12 -30 -2 -46 9 -14 14 -105 17 -316 l4 -296 -38
-37 c-45 -45 -71 -130 -40 -130 12 0 19 -7 19 -19 0 -11 5 -21 11 -23 7 -2 12
-44 14 -112 2 -59 6 -110 8 -113 7 -6 -4 -43 -12 -39 -3 2 -7 -6 -8 -17 -1
-12 -9 -56 -19 -97 -19 -85 -15 -117 20 -151 13 -13 22 -28 18 -34 -3 -5 -7
-16 -7 -25 -1 -8 -5 -26 -9 -39 -5 -15 -5 -21 2 -17 6 3 13 -7 17 -25 9 -39
-4 -190 -17 -206 -5 -7 -7 -26 -3 -44 5 -21 3 -34 -6 -39 -10 -7 -9 -19 4 -64
l15 -56 -28 -20 c-30 -21 -75 -26 -100 -10 -11 7 -15 31 -16 97 -1 48 -4 104
-8 123 -4 19 -8 55 -10 80 -3 25 -5 50 -6 55 -7 32 2 84 18 98 49 46 59 52 79
49 17 -3 21 0 17 12 -3 9 -11 13 -16 10 -6 -4 -8 2 -3 17 3 13 3 20 -2 14 -4
-5 -18 -11 -30 -13 -20 -3 -23 1 -23 27 0 17 -4 31 -9 31 -10 0 -20 45 -25
108 -2 24 -8 47 -13 50 -17 11 -63 169 -63 215 0 24 6 52 14 63 16 22 27 134
14 134 -5 0 -14 12 -20 28 -7 15 -19 36 -29 47 -16 20 -35 90 -45 170 -3 22
-12 62 -21 88 -13 39 -15 72 -9 155 3 59 11 127 16 151 7 28 7 55 1 75 -5 17
-10 123 -10 236 -1 113 -5 232 -9 264 -6 54 -10 61 -40 78 -18 10 -37 16 -42
13 -4 -3 -6 4 -3 15 3 11 0 20 -6 20 -21 0 -11 19 11 22 14 2 24 11 26 23 2
13 0 16 -5 8 -6 -8 -13 -8 -26 2 -14 10 -15 15 -5 21 7 5 18 9 23 9 11 1 8 49
-3 53 -10 3 -6 100 5 115 8 11 9 71 5 163 -2 46 -28 67 -82 67 -19 0 -26 3
-18 8 10 6 8 11 -6 22 -15 11 -16 16 -6 22 8 5 18 2 26 -9 10 -15 18 -16 53
-6 23 6 45 9 50 6 4 -3 16 1 26 8 27 19 34 129 11 155 -15 17 -16 25 -5 63 6
23 12 77 13 118 2 69 11 109 35 151 7 11 3 30 -13 63 -17 34 -22 62 -21 110 1
44 -2 63 -9 59 -6 -4 -3 3 7 14 28 32 20 103 -12 103 -14 1 -14 2 2 11 20 12
23 29 3 29 -16 0 -28 37 -15 46 5 3 9 11 8 17 -1 7 1 20 6 31 5 12 3 21 -5 26
-11 7 -11 12 -2 22 9 11 8 19 -3 35 -8 11 -12 23 -9 26 3 3 5 24 5 48 0 24 9
81 20 125 10 45 19 91 19 103 0 37 33 101 52 101 22 0 23 25 4 62 -41 78 -51
229 -20 290 10 20 12 38 7 61 -15 61 -10 173 10 194 19 21 23 58 7 68 -20 12
9 265 36 318 10 17 17 62 18 111 2 72 6 87 34 130 24 38 30 56 26 80 -4 17 -8
69 -9 116 -4 104 12 131 58 96z m6297 -36 c0 -5 -4 -10 -10 -10 -5 0 -10 5
-10 10 0 6 5 10 10 10 6 0 10 -4 10 -10z m185 -369 c-3 -6 -11 -11 -16 -11 -5
0 -4 6 3 14 14 16 24 13 13 -3z m151 -78 c-10 -10 -19 5 -10 18 6 11 8 11 12
0 2 -7 1 -15 -2 -18z m-23 -20 c-7 -2 -21 -2 -30 0 -10 3 -4 5 12 5 17 0 24
-2 18 -5z m-120 -658 c23 -9 37 -11 39 -4 2 5 11 7 21 3 20 -7 18 -29 -4 -30
-8 0 -22 -4 -31 -8 -9 -4 -22 -5 -28 -1 -6 4 -16 2 -23 -4 -9 -7 -22 -5 -45 6
-40 20 -42 37 -2 31 20 -3 30 0 30 9 0 16 0 16 43 -2z m-1263 -15 c-46 -25
-73 -25 -35 0 17 11 39 20 50 20 15 -1 11 -6 -15 -20z m1129 6 c19 -22 -12
-41 -51 -30 -30 9 -30 10 -14 27 21 20 49 22 65 3z m601 -101 c0 -17 16 -20
25 -5 3 6 17 10 31 10 18 0 23 -4 17 -12 -4 -7 -6 -21 -5 -30 2 -11 -3 -18
-13 -18 -11 0 -15 -5 -12 -14 3 -7 0 -19 -6 -25 -9 -9 -9 -14 2 -20 11 -7 9
-11 -8 -21 -13 -6 -29 -27 -37 -46 -8 -19 -21 -34 -29 -34 -8 0 -15 -7 -15
-16 0 -9 -6 -14 -12 -12 -39 13 -71 -98 -42 -141 11 -15 12 -21 3 -19 -7 2
-15 -5 -17 -16 -2 -11 0 -16 6 -12 6 3 13 2 17 -4 3 -5 2 -10 -4 -10 -6 0 -8
-8 -5 -17 3 -10 -2 -7 -11 7 l-16 25 5 -27 c4 -15 1 -28 -6 -30 -17 -6 -18
-68 -1 -68 10 0 8 -6 -6 -22 -14 -14 -19 -29 -15 -44 5 -19 0 -26 -20 -35 -22
-10 -29 -9 -46 6 -15 14 -20 15 -21 4 0 -8 -5 1 -10 19 -8 26 -13 31 -23 23
-10 -8 -17 -7 -26 4 -7 8 -16 12 -21 9 -5 -3 -12 2 -15 10 -3 9 -10 16 -15 16
-6 0 -37 27 -69 60 -33 34 -60 58 -60 54 0 -4 -9 5 -20 19 -11 13 -31 27 -44
31 -13 3 -27 14 -30 23 -14 36 -51 83 -67 83 -8 0 -28 13 -44 30 -25 26 -26
31 -14 47 8 10 19 21 24 25 6 4 1 8 -10 8 -18 0 -18 1 3 16 12 8 27 12 34 8 7
-4 8 -3 4 4 -4 7 -3 12 1 12 5 0 14 20 21 45 8 31 17 45 29 46 98 5 204 2 206
-6 2 -6 10 -5 19 3 9 7 24 9 33 5 14 -5 17 -3 12 10 -4 11 -1 17 9 17 8 0 17
-6 20 -14 10 -25 164 -2 164 24 0 6 5 8 11 5 15 -10 61 4 54 15 -4 6 9 10 29
10 25 0 36 -4 36 -15z m-83 -1 c-3 -3 -12 -4 -19 -1 -8 3 -5 6 6 6 11 1 17 -2
13 -5z m-73 -679 c-4 -8 -10 -12 -15 -9 -11 6 -2 24 11 24 5 0 7 -7 4 -15z
m-7094 -105 c0 -5 -12 -10 -26 -10 -14 0 -23 4 -19 10 3 6 15 10 26 10 10 0
19 -4 19 -10z m7254 -166 c21 -19 35 -38 32 -42 -4 -3 3 -16 15 -28 12 -13 19
-30 16 -38 -4 -9 -3 -18 2 -20 4 -3 6 -19 3 -35 -3 -22 0 -33 12 -37 24 -9 19
-40 -10 -63 -14 -11 -23 -24 -20 -29 3 -6 0 -15 -8 -21 -11 -9 -11 -22 -1 -71
16 -75 10 -113 -16 -105 -16 5 -18 1 -16 -34 2 -26 -2 -41 -9 -41 -12 0 -29
-45 -25 -67 6 -39 -73 -16 -85 25 -4 15 -8 32 -9 39 0 6 -4 15 -9 20 -5 4 -6
-9 -3 -32 4 -33 4 -36 -5 -17 -12 24 -23 28 -33 12 -3 -5 -13 -10 -20 -10 -11
0 -14 10 -10 39 4 31 0 48 -19 75 -19 29 -25 33 -30 19 -4 -9 -2 -21 4 -27 5
-5 10 -15 10 -20 0 -6 -4 -5 -9 2 -4 7 -17 14 -29 15 -20 1 -20 3 -6 18 9 10
13 23 9 29 -4 6 -1 19 7 28 8 9 15 31 16 47 1 17 7 32 12 33 6 2 8 8 4 13 -3
5 4 9 14 9 13 0 24 10 31 30 5 17 17 30 25 30 8 0 21 10 27 23 6 12 18 30 27
40 14 16 16 16 34 0 32 -29 43 -3 41 95 -1 51 -6 88 -12 90 -13 4 -15 42 -3
42 4 0 25 -16 46 -36z m-77 -156 c-3 -7 -5 -2 -5 12 0 14 2 19 5 13 2 -7 2
-19 0 -25z m-6587 -22 c0 -22 -11 -46 -21 -46 -5 0 -9 14 -9 30 0 20 5 30 15
30 8 0 15 -6 15 -14z m3607 -131 c4 -51 3 -51 -58 -115 -34 -35 -70 -83 -80
-106 -9 -23 -26 -47 -35 -52 -14 -8 -18 -21 -17 -53 1 -23 -5 -55 -13 -71 -13
-26 -19 -29 -47 -22 -18 3 -35 8 -40 11 -10 6 2 52 22 82 14 23 14 25 -17 51
-38 32 -39 42 -8 83 21 28 41 81 38 98 0 3 17 19 39 35 21 16 42 39 45 51 5
19 20 29 89 54 11 4 33 7 49 6 27 -2 29 -5 33 -52z m2322 -7 c10 -27 8 -30
-22 -43 -18 -8 -26 -14 -19 -15 14 0 17 -20 3 -20 -5 0 -17 7 -25 16 -15 14
-15 33 -1 79 1 6 14 11 28 11 20 2 28 -5 36 -28z m-2334 -420 c-2 -27 -18 -47
-37 -48 -13 0 -18 38 -9 63 15 38 49 26 46 -15z m2755 -32 c0 -3 -4 -8 -10
-11 -5 -3 -10 -1 -10 4 0 6 5 11 10 11 6 0 10 -2 10 -4z m-536 -50 c-6 -17
-34 -30 -34 -17 0 5 6 12 13 15 10 5 10 7 0 12 -7 3 -13 10 -13 15 0 6 8 5 20
-1 11 -6 17 -17 14 -24z m376 -41 c0 -8 -4 -15 -10 -15 -5 0 -10 7 -10 15 0 8
5 15 10 15 6 0 10 -7 10 -15z m-6216 -52 c3 -10 1 -36 -5 -58 -6 -22 -10 -48
-10 -57 0 -10 -4 -18 -8 -18 -14 0 -19 61 -9 97 5 18 6 38 3 43 -3 6 1 10 9
10 8 0 17 -8 20 -17z m3566 -3 c0 -5 -2 -10 -4 -10 -3 0 -8 5 -11 10 -3 6 -1
10 4 10 6 0 11 -4 11 -10z m20 -30 c-8 -5 -17 -7 -19 -4 -3 3 1 9 9 14 8 5 17
7 19 4 3 -3 -1 -9 -9 -14z m2470 6 c0 -11 -19 -15 -25 -6 -3 5 1 10 9 10 9 0
16 -2 16 -4z m-3040 -26 c-19 -13 -30 -13 -30 0 0 6 10 10 23 10 18 0 19 -2 7
-10z m-3616 -85 c-4 -8 -10 -15 -15 -15 -5 0 -9 7 -9 15 0 8 7 15 15 15 9 0
12 -6 9 -15z m3236 -207 c-6 -106 -12 -204 -14 -218 -3 -14 -5 -29 -5 -35 -1
-5 -5 -5 -9 2 -4 7 -6 56 -4 110 5 131 5 206 2 275 -2 37 2 64 10 74 27 31 31
-13 20 -208z m-3250 128 c0 -11 -19 -15 -25 -6 -3 5 1 10 9 10 9 0 16 -2 16
-4z m10 -36 c0 -5 -4 -10 -10 -10 -5 0 -10 5 -10 10 0 6 5 10 10 10 6 0 10 -4
10 -10z m-37 -33 c3 -8 1 -20 -4 -28 -11 -19 -34 3 -26 25 8 20 23 21 30 3z
m9351 -25 c8 -14 -5 -52 -19 -52 -13 0 -25 21 -25 46 0 15 35 20 44 6z m196
-32 c-23 -23 -40 -26 -40 -6 0 15 15 24 43 25 15 1 15 -1 -3 -19z m135 8 c14
-6 25 -19 25 -30 0 -24 -15 -23 -33 3 -13 18 -19 19 -53 10 -48 -13 -54 -14
-54 -1 0 6 9 10 19 10 11 0 23 5 26 10 8 13 38 13 70 -2z m275 -48 c-19 -13
-30 -13 -30 0 0 6 10 10 23 10 18 0 19 -2 7 -10z m-9920 -106 c0 -2 -7 -4 -15
-4 -8 0 -15 4 -15 10 0 5 7 7 15 4 8 -4 15 -8 15 -10z m3471 -60 c7 -9 12 -35
11 -58 -3 -55 13 -84 43 -78 12 2 32 -1 44 -7 33 -18 27 -60 -15 -105 -31 -34
-38 -37 -57 -27 -12 6 -32 9 -45 7 -52 -11 -72 126 -37 257 8 31 35 36 56 11z
m719 -226 c-13 -57 -29 -88 -47 -95 -10 -4 -20 -10 -23 -14 -3 -4 -17 -5 -33
-2 -18 4 -27 12 -27 24 0 11 -4 19 -10 19 -5 0 -10 5 -10 11 0 6 7 9 15 5 8
-3 18 1 22 8 11 19 71 9 76 -13 4 -18 27 76 28 117 l1 27 8 -27 c4 -15 5 -42
0 -60z m-960 22 c0 -8 -5 -33 -12 -55 l-11 -40 -8 30 c-8 28 -4 78 8 99 7 10
23 -14 23 -34z m3284 -95 c20 -13 25 -14 35 -1 10 12 16 12 41 -1 16 -8 34
-12 38 -9 5 3 33 -3 61 -14 29 -10 59 -16 66 -14 8 3 25 -5 39 -19 13 -13 35
-27 48 -30 12 -4 46 -21 73 -38 28 -18 73 -44 100 -59 77 -40 125 -74 125 -88
0 -10 41 -33 60 -33 3 0 12 -6 20 -13 8 -8 22 -12 31 -11 12 2 15 -3 11 -18
-5 -20 -6 -20 -13 -1 -5 12 -8 14 -8 4 0 -8 4 -22 9 -30 7 -11 10 -12 10 -2 0
24 30 -14 36 -48 5 -24 11 -29 24 -25 20 6 36 -10 21 -19 -13 -8 9 -50 40 -75
20 -17 21 -22 10 -30 -12 -8 -12 -12 -2 -25 7 -8 10 -20 6 -26 -8 -13 19 -40
42 -40 14 -1 -44 -27 -67 -30 -3 -1 5 -5 18 -11 13 -5 20 -14 17 -20 -4 -5 1
-16 11 -24 18 -13 18 -14 2 -20 -10 -4 -25 -5 -33 -2 -8 4 -17 2 -20 -2 -2 -5
5 -12 18 -15 21 -7 21 -7 2 -16 -11 -5 -16 -9 -12 -9 5 -1 5 -6 2 -11 -4 -7
-11 -8 -18 -1 -19 15 -107 25 -107 12 0 -6 14 -14 30 -18 17 -3 33 -10 36 -14
3 -5 21 -9 40 -9 19 0 34 -4 34 -10 0 -5 -3 -10 -7 -10 -20 0 -152 28 -162 34
-6 4 -11 0 -12 -11 0 -10 -3 -13 -6 -5 -2 6 -11 12 -18 12 -7 0 -16 -6 -19
-12 -3 -9 -9 -7 -20 6 -9 11 -16 16 -16 10 0 -5 -5 -2 -10 6 -6 9 -10 10 -10
3 0 -11 -33 4 -124 54 -29 16 -72 50 -122 96 -23 20 -46 37 -51 37 -17 0 -255
253 -291 309 -20 31 -41 62 -48 68 -23 24 -38 134 -29 218 8 71 21 81 69 50z
m-3082 -60 c3 -14 1 -28 -3 -31 -5 -3 -9 9 -9 25 0 38 6 40 12 6z m2898 -5 c0
-5 -2 -10 -4 -10 -3 0 -8 5 -11 10 -3 6 -1 10 4 10 6 0 11 -4 11 -10z m-2763
-111 c7 -7 8 -18 3 -28 -5 -9 -11 -24 -14 -35 -4 -11 -12 -16 -22 -12 -9 4
-12 2 -8 -5 4 -7 -1 -10 -12 -7 -14 2 -19 11 -18 36 1 18 5 39 8 47 6 18 47
20 63 4z m3723 -185 c0 -8 -4 -12 -10 -9 -5 3 -10 10 -10 16 0 5 5 9 10 9 6 0
10 -7 10 -16z m-7303 -80 c-3 -3 -12 -4 -19 -1 -8 3 -5 6 6 6 11 1 17 -2 13
-5z m52 -10 c1 11 4 17 7 13 3 -3 3 -15 -1 -28 -6 -17 -9 -19 -16 -8 -5 8 -8
21 -8 29 0 10 3 8 9 -5 8 -19 9 -19 9 -1z m10471 -64 c0 -5 -5 -10 -11 -10 -5
0 -7 5 -4 10 3 6 8 10 11 10 2 0 4 -4 4 -10z m-10580 -50 c-8 -5 -19 -10 -25
-10 -5 0 -3 5 5 10 8 5 20 10 25 10 6 0 3 -5 -5 -10z m-53 -30 c-4 -14 1 -25
14 -33 10 -6 19 -18 19 -26 0 -11 -3 -11 -15 -1 -8 7 -21 10 -30 7 -8 -4 -17
-1 -21 5 -4 7 -3 8 4 4 8 -5 12 1 12 14 0 12 -4 18 -10 15 -12 -7 -12 -3 -4
19 9 24 37 20 31 -4z m48 -10 c3 -5 -1 -10 -10 -10 -9 0 -13 5 -10 10 3 6 8
10 10 10 2 0 7 -4 10 -10z m10525 -14 c0 -3 -4 -8 -10 -11 -5 -3 -10 -1 -10 4
0 6 5 11 10 11 6 0 10 -2 10 -4z m-126 -141 c-4 -8 -11 -15 -16 -15 -6 0 -5 6
2 15 7 8 14 15 16 15 2 0 1 -7 -2 -15z m-20 -34 c7 -10 -32 -47 -40 -38 -7 7
14 47 26 47 5 0 11 -4 14 -9z m-2884 -31 c0 -5 -2 -10 -4 -10 -3 0 -8 5 -11
10 -3 6 -1 10 4 10 6 0 11 -4 11 -10z m2820 -34 c0 -2 -7 -9 -15 -16 -13 -11
-14 -10 -9 4 5 14 24 23 24 12z m-78 -88 c-7 -7 -12 -8 -12 -2 0 14 12 26 19
19 2 -3 -1 -11 -7 -17z m-30 -44 c-3 -19 -9 -24 -23 -21 -13 4 -19 0 -19 -13
0 -10 -7 -21 -16 -24 -47 -18 -45 7 4 50 45 40 61 43 54 8z m-112 -94 c-7 -4
-10 -12 -6 -18 3 -5 -1 -15 -9 -22 -14 -11 -19 -7 -16 13 3 17 -10 5 -19 -19
-6 -14 -16 -24 -23 -21 -25 9 -111 -58 -162 -126 -11 -15 -27 -27 -36 -27 -9
0 -24 -9 -33 -19 -11 -12 -25 -17 -34 -14 -11 5 -14 2 -10 -9 9 -23 -6 -38
-41 -41 -25 -2 -31 -6 -27 -19 2 -10 0 -21 -5 -24 -5 -3 -7 -10 -4 -15 3 -5
-1 -6 -10 -3 -10 4 -26 -3 -41 -17 -21 -20 -28 -22 -45 -11 -15 9 -24 10 -33
3 -7 -6 -15 -9 -18 -6 -3 3 -13 -4 -23 -15 -10 -11 -26 -20 -35 -20 -10 0 -21
-7 -24 -16 -3 -8 -10 -12 -16 -9 -6 4 -8 11 -5 16 4 5 1 9 -4 9 -15 0 -14 -33
1 -48 18 -18 0 -28 -23 -14 -18 11 -21 11 -26 -6 -4 -16 -10 -18 -36 -12 -18
4 -44 13 -59 19 -23 9 -28 8 -28 -4 0 -18 -12 -19 -28 -3 -9 9 -12 8 -13 -8
-1 -10 -1 -22 -1 -25 2 -14 -59 -16 -66 -2 -6 11 -12 10 -27 -5 -14 -13 -27
-16 -45 -11 -41 11 -47 10 -53 -11 -4 -17 -12 -20 -42 -18 -27 2 -41 -3 -51
-17 -11 -15 -14 -16 -14 -3 0 16 -20 28 -46 28 -8 0 -14 -5 -14 -11 0 -20 -27
-38 -49 -32 -11 3 -28 0 -36 -7 -12 -10 -16 -9 -21 5 -6 16 -8 16 -16 1 -11
-20 -42 -21 -58 -1 -9 11 -15 12 -20 5 -4 -6 -18 -12 -31 -14 -13 -1 -32 -6
-42 -10 -11 -5 -27 -2 -43 9 -14 9 -26 15 -27 13 -38 -75 -38 -76 -70 -72
-249 33 -253 34 -269 10 -4 -6 -15 -6 -32 2 -18 8 -26 8 -28 0 -2 -6 -18 -11
-36 -11 -25 0 -32 -5 -32 -19 0 -15 -5 -18 -22 -13 -13 4 -33 13 -45 21 -14 9
-24 10 -28 4 -8 -13 -52 -13 -61 1 -4 6 -10 7 -15 2 -6 -6 -33 -6 -67 -1 -31
5 -86 13 -121 18 -35 4 -67 14 -71 20 -4 6 -11 11 -16 11 -22 -1 -84 21 -84
30 0 5 -11 7 -25 3 -17 -4 -25 -2 -25 7 0 10 -2 11 -8 2 -4 -7 -13 -9 -21 -4
-19 12 116 76 152 72 9 -1 17 3 17 9 0 7 8 9 21 5 11 -4 53 -8 92 -10 40 -2
132 -7 204 -10 113 -6 132 -4 127 8 -6 16 36 47 63 47 21 0 134 68 214 129 30
23 61 41 69 41 9 0 31 10 50 23 19 13 62 34 95 47 33 12 89 36 124 53 51 24
67 28 82 19 10 -7 25 -9 34 -6 8 3 15 1 15 -5 0 -6 -5 -11 -11 -11 -5 0 -7 -4
-4 -10 3 -5 1 -10 -4 -10 -6 0 -11 5 -11 12 0 6 -13 -1 -29 -16 -24 -23 -29
-25 -35 -11 -5 14 -10 12 -33 -9 -15 -15 -31 -26 -35 -26 -5 0 -8 -7 -8 -15 0
-8 -3 -15 -8 -15 -4 0 -16 -16 -26 -35 -22 -41 -35 -46 -28 -10 3 18 0 25 -12
25 -9 0 -16 -6 -16 -12 0 -17 -54 -42 -58 -28 -6 18 -28 10 -42 -15 -8 -15
-16 -21 -20 -15 -5 7 -11 6 -20 -5 -7 -8 -18 -15 -24 -15 -6 0 -21 -11 -33
-23 -13 -14 -32 -23 -50 -22 -20 0 -38 -10 -65 -38 -20 -21 -38 -41 -38 -44
-4 -14 29 -23 83 -23 60 0 87 14 87 45 0 9 4 13 10 10 5 -3 7 -19 3 -35 -6
-35 -5 -35 83 -19 89 16 96 19 91 40 -6 23 20 48 28 27 3 -8 5 -21 3 -29 -7
-34 434 7 537 50 11 5 45 14 75 21 31 8 61 21 68 32 8 10 21 18 30 17 10 -2
43 9 75 24 66 31 77 33 77 12 0 -8 -8 -15 -17 -15 -10 0 -25 -5 -33 -10 -13
-8 -13 -11 -1 -19 38 -24 293 107 420 216 24 21 83 64 130 95 47 31 91 61 98
67 31 27 78 50 82 40 2 -6 -2 -15 -9 -19z m-1290 -136 c0 -8 -5 -12 -10 -9 -6
4 -8 11 -5 16 9 14 15 11 15 -7z m30 6 c0 -5 -2 -10 -4 -10 -3 0 -8 5 -11 10
-3 6 -1 10 4 10 6 0 11 -4 11 -10z m-9276 -55 c-4 -8 -8 -15 -10 -15 -2 0 -4
7 -4 15 0 8 4 15 10 15 5 0 7 -7 4 -15z m43 -21 c-3 -3 -12 -4 -19 -1 -8 3 -5
6 6 6 11 1 17 -2 13 -5z m10033 -14 c0 -15 -7 -20 -26 -20 l-26 0 23 20 c30
24 29 24 29 0z m-10040 -30 c0 -5 -2 -10 -4 -10 -3 0 -8 5 -11 10 -3 6 -1 10
4 10 6 0 11 -4 11 -10z m9987 -12 c-2 -7 -14 -12 -27 -10 -14 2 -20 0 -16 -7
9 -14 -12 -53 -25 -45 -6 3 -16 -1 -22 -10 -8 -11 -16 -13 -27 -6 -22 14 -3
39 50 67 48 26 74 30 67 11z m-2297 -12 c0 -2 -3 -12 -6 -20 -5 -13 -9 -14
-20 -5 -16 13 -9 29 12 29 8 0 14 -2 14 -4z m10 -107 c0 -20 -38 -60 -45 -48
-6 8 -10 7 -16 -2 -6 -10 -9 -7 -9 11 0 14 7 36 16 48 12 18 19 20 35 12 10
-6 19 -15 19 -21z m280 -109 c0 -5 -4 -10 -10 -10 -5 0 -10 5 -10 10 0 6 5 10
10 10 6 0 10 -4 10 -10z m445 -30 c3 -6 -1 -7 -9 -4 -18 7 -21 14 -7 14 6 0
13 -4 16 -10z m1112 -62 c-3 -8 -6 -5 -6 6 -1 11 2 17 5 13 3 -3 4 -12 1 -19z
m-1887 -63 c0 -25 3 -45 8 -45 4 0 13 -12 19 -27 11 -22 10 -28 -5 -39 -9 -7
-22 -14 -29 -14 -6 0 -13 -10 -15 -22 -2 -13 -10 -23 -18 -23 -11 0 -14 -10
-12 -42 3 -35 0 -43 -13 -43 -14 0 -16 7 -12 38 3 20 8 71 12 112 13 171 14
176 46 160 14 -8 19 -21 19 -55z m7 -255 c10 0 12 -6 8 -20 -6 -20 2 -24 42
-23 7 1 10 -3 7 -8 -3 -5 2 -9 11 -9 11 0 15 -8 13 -27 -2 -18 1 -27 9 -26 16
4 32 -56 22 -83 -8 -24 13 -64 34 -64 8 0 7 3 -2 9 -8 5 -10 14 -6 21 4 7 2
16 -6 20 -10 7 -10 13 -1 32 7 13 10 15 8 6 -6 -19 2 -22 21 -10 10 6 10 17 3
42 -6 19 -10 36 -10 37 0 2 16 10 36 18 28 11 40 12 50 4 10 -8 18 -9 27 0 8
6 16 8 20 5 3 -3 15 -1 26 6 23 12 24 10 15 -14 -3 -9 -9 -14 -14 -11 -4 2 -5
-7 -2 -20 4 -22 1 -25 -23 -25 -23 0 -26 -2 -15 -15 7 -8 16 -12 21 -9 14 8
11 -6 -5 -21 -11 -12 -17 -11 -35 1 -12 9 -21 12 -20 7 6 -35 -12 -40 -63 -18
-15 6 -18 2 -18 -18 0 -14 5 -29 10 -32 15 -10 12 -32 -6 -39 -9 -4 -22 -2
-29 4 -9 8 -14 6 -19 -5 -3 -8 -15 -15 -26 -15 -15 0 -20 -7 -20 -24 0 -27
-16 -44 -22 -24 -2 6 -10 8 -16 4 -20 -12 -13 -26 12 -26 14 0 28 -4 31 -10 3
-5 -2 -10 -12 -10 -11 0 -24 -5 -31 -12 -7 -7 -12 -8 -12 -3 0 5 -7 0 -15 -11
-10 -14 -17 -16 -22 -7 -6 8 -15 7 -33 -7 -20 -15 -23 -23 -14 -37 14 -24 6
-53 -14 -54 -11 0 -12 -2 -4 -6 6 -2 10 -9 6 -14 -3 -5 4 -9 16 -9 l21 0 -21
-22 c-11 -12 -20 -29 -20 -37 0 -14 1 -14 10 -1 6 9 10 10 10 3 0 -7 -12 -23
-26 -36 -22 -21 -24 -28 -15 -46 7 -12 17 -19 23 -15 6 4 9 1 6 -7 -7 -22 -33
-16 -36 8 -4 24 -32 21 -32 -3 0 -8 -7 -17 -16 -21 -12 -5 -13 -7 -2 -14 10
-6 10 -11 0 -21 -6 -6 -12 -23 -13 -37 0 -15 -3 -20 -6 -14 -3 10 -9 9 -21 -3
-13 -13 -13 -20 -3 -36 7 -11 8 -17 2 -14 -5 4 -13 1 -18 -6 -5 -9 -10 -1 -13
22 -6 39 15 159 86 495 9 44 19 97 22 118 2 20 8 37 14 37 5 0 7 4 4 8 -2 4 0
39 5 77 6 39 11 77 12 86 1 14 6 15 30 7 15 -6 31 -7 35 -3 4 4 1 10 -5 12 -7
3 -13 17 -12 31 l0 27 16 -22 c8 -13 22 -23 30 -23z m203 -50 c-8 -5 -24 -9
-35 -9 -16 1 -16 2 5 9 35 11 48 11 30 0z m545 -40 c-3 -5 -13 -10 -21 -10 -8
0 -14 5 -14 10 0 6 9 10 21 10 11 0 17 -4 14 -10z m-161 -39 c19 -8 24 -16 21
-38 -3 -31 8 -43 41 -43 12 0 24 -7 28 -15 4 -11 -2 -15 -22 -15 -16 0 -33 -5
-39 -11 -6 -6 -28 -13 -49 -16 -22 -2 -45 -6 -51 -8 -7 -3 -13 0 -13 5 0 6 -8
10 -17 10 -15 0 -15 1 1 13 10 8 29 12 42 9 13 -2 24 0 24 6 0 6 3 18 7 27 5
14 2 16 -15 11 -29 -10 -38 13 -13 30 12 8 21 22 21 30 0 17 1 17 34 5z m158
-116 c4 -21 3 -23 -13 -14 -22 11 -25 39 -5 39 7 0 16 -11 18 -25z m3658 15
c0 -5 -4 -10 -10 -10 -5 0 -10 5 -10 10 0 6 5 10 10 10 6 0 10 -4 10 -10z
m-3997 -24 c3 -8 -1 -17 -10 -20 -20 -8 -27 -1 -20 19 8 19 23 20 30 1z m4097
-35 c2 0 -1 -6 -7 -12 -11 -11 -53 -4 -53 10 0 6 42 7 60 2z m-4064 -41 c-16
-3 -32 -14 -37 -25 -6 -17 -8 -17 -8 -2 -1 25 -19 21 -24 -5 l-4 -23 -8 23
c-4 13 -13 21 -21 18 -8 -3 -11 0 -7 10 6 17 20 18 25 2 3 -8 15 -6 39 9 26
16 38 18 54 9 19 -9 18 -11 -9 -16z m98 5 c3 -8 1 -15 -4 -15 -6 0 -10 7 -10
15 0 8 2 15 4 15 2 0 6 -7 10 -15z m-117 -37 c-3 -8 -6 -5 -6 6 -1 11 2 17 5
13 3 -3 4 -12 1 -19z m-312 2 c3 -5 -1 -10 -10 -10 -9 0 -13 5 -10 10 3 6 8
10 10 10 2 0 7 -4 10 -10z m550 -10 c3 -5 -1 -10 -9 -10 -9 0 -16 5 -16 10 0
6 4 10 9 10 6 0 13 -4 16 -10z m1546 -39 c16 -14 17 -20 6 -24 -18 -7 -31 3
-35 26 -4 22 4 22 29 -2z m-1830 -3 c1 -7 1 -18 0 -23 0 -6 20 -10 49 -9 28 2
50 -2 50 -7 0 -8 -15 -13 -32 -10 -5 0 -8 -4 -8 -9 0 -13 -45 -3 -82 18 -21
12 -30 13 -41 3 -12 -9 -17 -9 -23 0 -4 7 -3 14 2 16 5 2 20 10 34 17 32 18
50 19 51 4z m2225 -24 c-21 -20 -28 -17 -14 5 7 11 16 17 20 15 5 -3 2 -12 -6
-20z m-266 10 c0 -16 -15 -32 -25 -28 -17 7 -9 31 10 31 8 0 15 -1 15 -3z
m-1797 -35 c-6 -20 -37 -26 -48 -8 -8 13 24 39 41 32 6 -2 10 -13 7 -24z
m1741 10 c-6 -11 -24 -2 -24 11 0 5 7 7 15 4 8 -4 12 -10 9 -15z m-2303 -19
c5 0 9 5 9 10 0 6 5 10 11 10 6 0 9 -7 5 -15 -3 -8 3 -19 12 -25 12 -8 12 -10
2 -7 -8 2 -23 0 -32 -5 -13 -6 -18 -5 -18 4 0 7 -2 22 -4 33 -2 11 -1 14 1 8
3 -7 9 -13 14 -13z m623 -6 c3 -8 2 -12 -4 -9 -6 3 -10 1 -10 -5 0 -6 -4 -8
-10 -5 -15 9 -12 35 4 35 8 0 17 -7 20 -16z m1646 -10 c0 -8 -4 -12 -10 -9 -5
3 -10 13 -10 21 0 8 5 12 10 9 6 -3 10 -13 10 -21z m43 0 c-5 -13 -7 -13 -14
-2 -7 11 -9 10 -9 -1 0 -8 -3 -12 -6 -8 -9 9 5 27 21 27 9 0 12 -6 8 -16z
m1959 -9 c14 0 20 -15 5 -15 -25 0 -47 11 -41 21 3 5 11 6 17 2 7 -4 15 -8 19
-8z m111 -25 c-3 -11 -9 -20 -14 -20 -5 0 -9 9 -9 20 0 11 6 20 14 20 9 0 12
-7 9 -20z m-4108 0 c3 -5 1 -10 -4 -10 -6 0 -11 5 -11 10 0 6 2 10 4 10 3 0 8
-4 11 -10z m3130 0 c3 -5 1 -10 -4 -10 -6 0 -11 5 -11 10 0 6 2 10 4 10 3 0 8
-4 11 -10z m-1268 -19 c14 -8 15 -11 3 -12 -8 -1 -30 -3 -47 -5 -30 -3 -45 11
-28 28 8 8 51 1 72 -11z m2248 -30 c-3 -6 -13 -11 -21 -11 -8 0 -12 5 -9 10 4
6 11 8 16 5 5 -4 9 -1 9 6 0 7 3 10 6 6 3 -3 3 -10 -1 -16z m-985 0 c0 -5 -9
-11 -19 -14 -14 -3 -18 -1 -14 9 6 15 33 19 33 5z m-3411 -37 c-15 -18 -22
-13 -13 10 3 9 10 13 16 10 5 -3 4 -12 -3 -20z m2151 11 c7 -9 10 -18 7 -21
-10 -10 -47 7 -47 22 0 19 24 18 40 -1z m38 -38 c9 -10 4 -17 -18 -31 -33 -19
-34 -18 -20 18 11 29 22 33 38 13z m1152 -12 c0 -8 5 -15 12 -15 6 0 9 -2 6
-5 -3 -3 -13 -3 -22 1 -17 7 -22 34 -6 34 6 0 10 -7 10 -15z m-2660 -5 c0 -5
-4 -10 -10 -10 -5 0 -10 5 -10 10 0 6 5 10 10 10 6 0 10 -4 10 -10z m2701 -13
c-10 -9 -11 -8 -5 6 3 10 9 15 12 12 3 -3 0 -11 -7 -18z m864 13 c3 -5 1 -10
-4 -10 -6 0 -11 5 -11 10 0 6 2 10 4 10 3 0 8 -4 11 -10z m-4065 -32 c0 -4 -5
-10 -11 -14 -12 -7 -29 12 -29 34 0 10 4 10 20 0 11 -7 20 -16 20 -20z m55 -5
c-21 -15 -30 -10 -22 11 4 10 13 13 23 9 15 -6 15 -7 -1 -20z m365 16 c0 -6 9
-8 21 -4 14 5 19 3 15 -3 -12 -19 15 -24 29 -6 8 11 15 14 15 7 0 -6 3 -18 6
-27 4 -11 1 -16 -10 -16 -9 0 -16 -8 -17 -17 0 -15 -3 -14 -16 5 -8 12 -23 22
-32 22 -14 -1 -14 -2 1 -13 9 -8 16 -22 14 -33 -4 -26 -46 -31 -63 -8 -12 16
-13 16 -13 1 0 -19 -15 -23 -25 -7 -4 6 -16 10 -28 9 -12 -1 -40 -1 -62 0 -39
2 -39 2 -16 15 13 7 46 12 80 10 31 -2 64 -1 74 2 26 8 21 24 -8 24 -30 0 -33
16 -5 25 11 3 20 11 20 16 0 5 5 9 10 9 6 0 10 -5 10 -11z m-285 -31 c-2 -18
-3 -39 -4 -45 -1 -18 -31 -16 -31 2 0 8 7 15 15 15 8 0 15 5 15 10 0 6 -11 8
-25 4 -28 -7 -30 -2 -15 27 6 10 19 19 29 19 15 0 18 -7 16 -32z m3136 22 c18
0 19 -1 3 -25 -16 -25 -44 -34 -44 -15 0 6 5 10 10 10 6 0 10 5 10 11 0 6 -7
9 -15 5 -9 -3 -15 0 -15 10 0 11 6 14 16 10 9 -3 24 -6 35 -6z m-3001 -16 c0
-2 -9 -4 -20 -4 -11 0 -20 4 -20 9 0 5 9 7 20 4 11 -3 20 -7 20 -9z m-460 -19
c0 -8 -4 -15 -10 -15 -5 0 -7 7 -4 15 4 8 8 15 10 15 2 0 4 -7 4 -15z m510 5
c0 -5 -2 -10 -4 -10 -3 0 -8 5 -11 10 -3 6 -1 10 4 10 6 0 11 -4 11 -10z
m1695 -20 c3 -5 1 -10 -4 -10 -6 0 -11 5 -11 10 0 6 2 10 4 10 3 0 8 -4 11
-10z m-30 -10 c3 -5 1 -10 -4 -10 -6 0 -11 5 -11 10 0 6 2 10 4 10 3 0 8 -4
11 -10z m-1880 -41 c4 -6 13 -8 21 -5 8 3 14 -1 14 -10 0 -12 -8 -14 -37 -8
-46 8 -55 13 -48 25 8 12 42 11 50 -2z m4075 1 c0 -5 -5 -10 -11 -10 -5 0 -7
5 -4 10 3 6 8 10 11 10 2 0 4 -4 4 -10z m-3810 -36 c0 -21 2 -23 19 -13 23 15
51 5 51 -17 0 -10 -5 -14 -15 -10 -8 3 -15 1 -15 -4 0 -6 -6 -10 -14 -10 -8 0
-16 -7 -20 -15 -4 -10 1 -15 14 -15 11 0 20 -3 21 -7 4 -44 3 -80 -3 -77 -8 5
-22 -36 -14 -43 3 -4 6 -1 6 6 0 9 3 9 14 -1 19 -18 9 -40 -14 -28 -19 10 -34
50 -18 50 5 0 8 5 6 11 -2 6 -7 10 -12 9 -9 -2 -26 19 -26 33 0 5 5 5 10 2 20
-12 32 6 17 28 -7 12 -14 42 -16 67 -1 25 -7 47 -12 48 -5 2 -9 8 -9 13 0 4 7
6 15 3 8 -4 15 -17 15 -30z m1700 11 c10 -12 10 -15 -4 -15 -9 0 -16 7 -16 15
0 8 2 15 4 15 2 0 9 -7 16 -15z m1150 5 c0 -5 -5 -10 -11 -10 -5 0 -7 5 -4 10
3 6 8 10 11 10 2 0 4 -4 4 -10z m-2890 -8 c0 -5 -6 -16 -13 -27 -16 -20 -31
-7 -21 19 6 16 34 23 34 8z m2848 -1 c11 -7 11 -9 -1 -14 -16 -6 -27 0 -27 15
0 10 11 10 28 -1z m-603 -31 c3 -6 -5 -10 -19 -10 -14 0 -26 -5 -26 -12 0 -6
-2 -9 -5 -6 -4 3 -3 17 1 32 5 21 9 24 24 16 11 -6 22 -15 25 -20z m623 -23
c2 -10 -3 -17 -12 -17 -10 0 -16 9 -16 21 0 24 23 21 28 -4z m-3508 3 c0 -5
-4 -10 -10 -10 -5 0 -10 5 -10 10 0 6 5 10 10 10 6 0 10 -4 10 -10z m-30 -41
c0 -8 4 -8 13 0 10 8 14 7 14 -4 0 -8 -3 -12 -7 -10 -15 9 -62 -55 -67 -92 -9
-67 -15 -51 -9 27 2 41 5 76 5 78 1 2 5 1 10 -3 5 -3 12 -1 16 5 8 13 25 13
25 -1z m4400 -9 c0 -5 -7 -10 -16 -10 -8 0 -12 5 -9 10 3 6 10 10 16 10 5 0 9
-4 9 -10z m-2660 -10 c12 -8 9 -10 -13 -10 -16 0 -26 4 -22 10 8 12 16 12 35
0z m519 -12 c-2 -2 -17 -14 -32 -28 l-29 -25 4 24 c2 14 11 25 21 27 11 1 21
5 25 8 3 3 8 4 10 1 3 -3 3 -6 1 -7z m1331 -13 c0 -8 -7 -15 -15 -15 -8 0 -15
7 -15 15 0 8 7 15 15 15 8 0 15 -7 15 -15z m-2909 -49 c-7 -8 -21 -16 -32 -19
-15 -4 -19 -2 -15 10 3 8 6 19 6 24 0 4 7 6 16 2 13 -5 15 -2 9 18 l-7 24 17
-23 c13 -17 14 -26 6 -36z m3519 30 c0 -8 -7 -16 -15 -20 -15 -5 -21 14 -8 27
11 12 23 8 23 -7z m-1937 -27 c-4 -15 -8 -17 -14 -8 -6 11 4 28 18 29 0 0 -1
-9 -4 -21z m2014 -13 c4 -7 15 -16 23 -19 8 -3 0 -6 -17 -6 -27 -1 -33 3 -33
19 0 23 15 27 27 6z m63 -6 c0 -5 -4 -10 -10 -10 -5 0 -10 5 -10 10 0 6 5 10
10 10 6 0 10 -4 10 -10z m35 0 c-3 -5 -11 -10 -16 -10 -6 0 -7 5 -4 10 3 6 11
10 16 10 6 0 7 -4 4 -10z m-3706 -40 c6 8 13 11 17 7 12 -11 -13 -30 -30 -24
-9 4 -16 12 -16 19 0 9 3 9 10 -2 9 -13 11 -13 19 0z m51 -10 c0 -5 18 -10 40
-10 38 0 40 -2 40 -31 0 -27 -3 -30 -22 -23 -12 3 -28 13 -36 20 -7 8 -17 14
-22 14 -4 0 -10 9 -13 20 -3 11 -1 20 4 20 5 0 9 -4 9 -10z m3534 4 c22 -8 20
-19 -4 -21 -11 -1 -20 4 -20 13 0 16 2 16 24 8z m-4317 -41 c-3 -10 -5 -4 -5
12 0 17 2 24 5 18 2 -7 2 -21 0 -30z m93 27 c0 -5 -2 -10 -4 -10 -3 0 -8 5
-11 10 -3 6 -1 10 4 10 6 0 11 -4 11 -10z m649 -36 c-9 -8 -23 -12 -32 -8 -26
10 -20 19 15 21 28 2 30 1 17 -13z m1511 -27 c0 -5 -4 -5 -10 -2 -5 3 -10 14
-10 23 0 15 2 15 10 2 5 -8 10 -19 10 -23z m-30 2 c0 -6 -4 -7 -10 -4 -5 3
-10 11 -10 16 0 6 5 7 10 4 6 -3 10 -11 10 -16z m-2124 -3 c16 5 16 4 4 -5
-13 -9 -12 -11 5 -11 31 0 4 -17 -39 -23 -37 -6 -38 -5 -18 9 13 9 19 21 16
32 -4 12 -3 13 3 4 6 -7 18 -10 29 -6z m2044 -11 c-13 -15 -35 -11 -24 6 3 5
10 7 15 4 5 -4 9 -1 9 6 0 7 3 9 6 6 4 -4 1 -13 -6 -22z m140 15 c0 -5 -4 -10
-10 -10 -5 0 -10 5 -10 10 0 6 5 10 10 10 6 0 10 -4 10 -10z m-1597 -23 c4 3
9 -2 13 -11 10 -26 -2 -30 -25 -7 -23 23 -29 40 -8 22 8 -6 17 -8 20 -4z
m1497 9 c0 -3 -4 -8 -10 -11 -5 -3 -10 -1 -10 4 0 6 5 11 10 11 6 0 10 -2 10
-4z m2820 -16 c0 -5 -8 -10 -17 -10 -15 0 -16 2 -3 10 19 12 20 12 20 0z m33
-40 c3 -11 1 -20 -4 -20 -5 0 -9 8 -9 18 0 14 -2 15 -10 2 -11 -17 -13 -10 -4
14 7 20 20 13 27 -14z m-5048 11 c3 -5 1 -12 -5 -16 -5 -3 -10 1 -10 9 0 18 6
21 15 7z m1824 -33 c0 -31 -1 -31 -10 -10 -5 13 -7 28 -3 33 10 16 14 9 13
-23z m98 26 c-3 -3 -12 -4 -19 -1 -8 3 -5 6 6 6 11 1 17 -2 13 -5z m218 -14
c-3 -5 -2 -10 4 -10 5 0 13 5 16 10 9 15 25 2 18 -16 -3 -8 -15 -14 -27 -12
-17 3 -21 -2 -19 -25 1 -19 -2 -27 -10 -24 -7 2 -12 16 -12 31 0 15 -6 31 -14
35 -11 7 -10 10 5 14 33 8 45 7 39 -3z m-1479 -12 c4 -7 4 -10 -1 -6 -4 4 -16
3 -27 -3 -10 -5 -24 -7 -30 -3 -8 5 -5 10 8 15 29 11 42 10 50 -3z m1635 -24
c-5 -21 -14 -28 -39 -30 -30 -4 -31 -3 -20 20 6 14 16 22 24 19 8 -3 14 0 14
6 0 6 6 11 14 11 11 0 12 -7 7 -26z m-2184 -26 c-3 -8 -6 -5 -6 6 -1 11 2 17
5 13 3 -3 4 -12 1 -19z m2260 0 c-3 -8 -6 -5 -6 6 -1 11 2 17 5 13 3 -3 4 -12
1 -19z m1180 16 c-3 -3 -12 -4 -19 -1 -8 3 -5 6 6 6 11 1 17 -2 13 -5z m-3465
-46 c-8 -8 -9 -4 -5 13 4 13 8 18 11 10 2 -7 -1 -18 -6 -23z m1795 7 c0 -8 -3
-15 -6 -16 -3 0 -21 -2 -39 -5 -36 -4 -36 11 2 26 32 13 43 12 43 -5z m2353
-20 c0 -8 -7 -15 -15 -15 -26 0 -18 20 13 29 1 1 2 -6 2 -14z m-4064 -47 c-9
-12 -16 -19 -16 -15 0 11 24 47 28 42 2 -2 -3 -14 -12 -27z m1580 5 c-10 -10
-19 5 -10 18 6 11 8 11 12 0 2 -7 1 -15 -2 -18z m436 -13 c-6 -17 -18 -24 -43
-26 -31 -3 -32 -2 -15 11 10 8 15 19 11 26 -6 9 -1 10 19 7 14 -3 26 -1 26 5
0 6 2 8 5 5 3 -3 2 -15 -3 -28z m2263 19 c4 -6 5 -12 2 -15 -7 -7 -37 7 -37
17 0 13 27 11 35 -2z m-2645 -17 c0 -5 -7 -9 -15 -9 -8 0 -15 4 -15 9 0 4 7 8
15 8 8 0 15 -4 15 -8z m3194 -23 c15 -14 -1 -22 -29 -15 -14 4 -25 13 -25 22
0 11 6 14 23 9 12 -4 26 -11 31 -16z m-2684 -1 c0 -7 -11 -13 -25 -13 -29 0
-33 11 -7 18 29 8 32 7 32 -5z m2135 2 c3 -5 1 -10 -4 -10 -6 0 -11 5 -11 10
0 6 2 10 4 10 3 0 8 -4 11 -10z m35 1 c0 -6 -4 -13 -10 -16 -5 -3 -10 1 -10 9
0 9 5 16 10 16 6 0 10 -4 10 -9z m-4447 -21 c-3 -12 -8 -19 -11 -16 -5 6 5 36
12 36 2 0 2 -9 -1 -20z m1805 3 c17 -3 32 -9 32 -13 0 -16 -46 -19 -74 -5 -16
9 -38 13 -48 9 -10 -3 -18 -1 -18 5 0 12 29 20 55 15 11 -3 35 -7 53 -11z
m-1645 0 c-7 -2 -19 -2 -25 0 -7 3 -2 5 12 5 14 0 19 -2 13 -5z m2914 -25 c-3
-7 -5 -2 -5 12 0 14 2 19 5 13 2 -7 2 -19 0 -25z m1300 -10 c-3 -8 -6 -5 -6 6
-1 11 2 17 5 13 3 -3 4 -12 1 -19z"/>
<path d="M4821 6893 c-6 -27 -14 -57 -17 -68 -6 -19 -6 -59 0 -100 5 -31 6
-31 16 -15 5 8 10 38 10 66 0 28 7 68 15 87 19 46 19 77 1 77 -9 0 -19 -18
-25 -47z"/>
<path d="M4545 5863 c2 -56 6 -70 24 -81 20 -14 21 -13 19 49 -2 57 -18 99
-39 99 -3 0 -5 -30 -4 -67z"/>
<path d="M4615 5520 c3 -5 8 -10 11 -10 2 0 4 5 4 10 0 6 -5 10 -11 10 -5 0
-7 -4 -4 -10z"/>
<path d="M1331 5180 c0 -8 4 -22 9 -30 12 -18 12 -2 0 25 -6 13 -9 15 -9 5z"/>
<path d="M1193 1933 c-15 -5 -17 -23 -4 -23 5 0 11 7 15 15 3 8 4 15 3 14 -1
0 -8 -3 -14 -6z"/>
<path d="M7955 5940 c3 -5 1 -10 -6 -10 -7 0 -10 -2 -8 -5 3 -2 15 -2 27 2 23
6 21 23 -4 23 -8 0 -12 -4 -9 -10z"/>
<path d="M7913 5753 c-11 -22 -10 -28 5 -39 15 -11 18 -9 24 14 4 14 5 28 3
31 -3 2 -5 -2 -6 -10 -1 -8 -4 -4 -7 8 -7 22 -7 22 -19 -4z"/>
<path d="M7810 5650 c0 -5 5 -10 11 -10 5 0 7 5 4 10 -3 6 -8 10 -11 10 -2 0
-4 -4 -4 -10z"/>
<path d="M7930 4709 c0 -5 5 -7 10 -4 6 3 10 8 10 11 0 2 -4 4 -10 4 -5 0 -10
-5 -10 -11z"/>
<path d="M8818 1833 c7 -3 16 -2 19 1 4 3 -2 6 -13 5 -11 0 -14 -3 -6 -6z"/>
<path d="M8159 1360 c-19 -15 -20 -19 -8 -20 9 0 20 7 23 16 3 8 10 13 15 9 5
-3 12 -1 16 5 11 18 -22 11 -46 -10z"/>
<path d="M8168 1293 c7 -3 16 -2 19 1 4 3 -2 6 -13 5 -11 0 -14 -3 -6 -6z"/>
<path d="M8001 1274 c0 -11 3 -14 6 -6 3 7 2 16 -1 19 -3 4 -6 -2 -5 -13z"/>
<path d="M1289 10653 c-1 -5 -1 -12 0 -17 1 -4 -5 -19 -13 -31 -14 -21 -14
-24 1 -29 22 -9 39 11 46 52 6 27 4 32 -13 32 -11 0 -21 -3 -21 -7z"/>
<path d="M1520 10519 c0 -11 5 -17 10 -14 6 3 10 13 10 21 0 8 -4 14 -10 14
-5 0 -10 -9 -10 -21z"/>
<path d="M1297 10453 c-3 -16 -1 -32 4 -37 5 -6 9 4 9 27 0 44 -6 48 -13 10z"/>
<path d="M1268 10314 c-21 -40 -25 -95 -7 -77 6 6 17 9 24 6 24 -9 38 34 24
72 -7 19 -15 35 -19 35 -3 0 -13 -16 -22 -36z"/>
<path d="M1477 10274 c-10 -10 -8 -46 2 -63 8 -12 12 -9 22 12 10 23 10 30 -2
43 -8 8 -18 11 -22 8z"/>
<path d="M1206 10103 c-6 -14 -5 -15 5 -6 7 7 10 15 7 18 -3 3 -9 -2 -12 -12z"/>
<path d="M0 10027 c0 -22 7 -41 21 -53 20 -18 21 -18 34 0 17 22 12 34 -26 64
l-29 24 0 -35z"/>
<path d="M1016 10041 c-4 -7 -5 -15 -2 -18 9 -9 19 4 14 18 -4 11 -6 11 -12 0z"/>
<path d="M476 9764 c-11 -28 -6 -55 14 -81 l20 -26 0 46 c0 49 -7 77 -20 77
-4 0 -11 -7 -14 -16z"/>
<path d="M1500 9316 c0 -8 6 -16 14 -19 10 -4 12 0 9 14 -6 22 -23 26 -23 5z"/>
<path d="M196 9254 c-9 -24 -7 -28 9 -14 17 14 20 30 6 30 -5 0 -12 -7 -15
-16z"/>
<path d="M200 9212 c0 -4 5 -13 11 -19 5 -5 12 -29 14 -53 6 -57 14 -80 28
-80 20 0 41 -41 59 -114 21 -84 33 -99 49 -62 11 23 9 32 -11 69 -13 23 -29
49 -36 58 -8 8 -14 26 -14 38 0 13 -6 35 -14 49 -8 15 -17 36 -21 47 -5 16 -8
17 -16 5 -7 -11 -8 -8 -4 11 5 20 1 29 -19 43 -14 9 -26 13 -26 8z"/>
<path d="M1433 9213 c-14 -5 -18 -23 -5 -23 5 0 17 7 28 15 14 11 15 14 4 14
-8 0 -21 -3 -27 -6z"/>
<path d="M1405 9133 c-4 -21 -13 -53 -22 -71 -26 -59 -34 -112 -26 -167 l6
-39 18 51 c19 57 45 100 73 124 15 12 17 23 12 55 -8 45 -36 58 -36 17 0 -13
-4 -22 -10 -18 -5 3 -7 11 -5 18 12 39 14 67 6 67 -6 0 -13 -17 -16 -37z"/>
<path d="M300 8714 c0 -3 7 -27 16 -55 14 -43 20 -49 44 -49 26 0 27 1 20 43
-3 23 -10 48 -14 55 -7 12 -66 18 -66 6z"/>
<path d="M1360 8692 c0 -7 -9 -12 -20 -12 -24 0 -44 -39 -45 -87 -1 -25 3 -33
17 -33 10 0 18 -7 18 -17 1 -18 22 24 44 88 10 30 10 40 -1 55 -7 10 -13 12
-13 6z"/>
<path d="M1281 8368 c0 -7 14 -24 30 -37 l31 -24 -4 24 c-2 16 -9 23 -20 21
-11 -2 -18 3 -18 13 0 8 -4 15 -10 15 -5 0 -10 -6 -9 -12z"/>
<path d="M1380 7730 c0 -11 2 -20 4 -20 2 0 6 9 9 20 3 11 1 20 -4 20 -5 0 -9
-9 -9 -20z"/>
<path d="M7120 7450 c0 -5 5 -10 11 -10 5 0 7 5 4 10 -3 6 -8 10 -11 10 -2 0
-4 -4 -4 -10z"/>
<path d="M6560 7360 c0 -5 5 -10 10 -10 6 0 10 5 10 10 0 6 -4 10 -10 10 -5 0
-10 -4 -10 -10z"/>
<path d="M7490 7280 c0 -5 5 -10 11 -10 5 0 7 5 4 10 -3 6 -8 10 -11 10 -2 0
-4 -4 -4 -10z"/>
<path d="M7448 7273 c7 -3 16 -2 19 1 4 3 -2 6 -13 5 -11 0 -14 -3 -6 -6z"/>
<path d="M76 7213 c-3 -4 -6 -17 -6 -30 0 -20 5 -23 40 -23 22 0 40 4 40 8 0
20 -62 57 -74 45z"/>
<path d="M7453 7183 c-15 -6 -17 -43 -3 -43 6 0 10 -7 10 -15 0 -19 14 -19 30
0 10 12 10 21 2 40 -12 25 -17 28 -39 18z"/>
<path d="M20 7075 c0 -4 8 -20 17 -38 l17 -32 6 25 c7 27 -5 50 -26 50 -8 0
-14 -2 -14 -5z"/>
<path d="M47 6953 c-3 -16 -9 -40 -13 -55 -5 -23 -3 -28 13 -28 31 0 46 44 28
80 -19 37 -21 37 -28 3z"/>
<path d="M472 6628 c5 -34 38 -37 38 -4 0 20 -5 26 -21 26 -15 0 -20 -5 -17
-22z"/>
<path d="M186 6496 l-25 -34 31 -13 c27 -11 76 -15 83 -6 2 1 5 11 9 22 4 16
-3 25 -33 42 l-39 22 -26 -33z"/>
<path d="M6808 6503 c7 -3 16 -2 19 1 4 3 -2 6 -13 5 -11 0 -14 -3 -6 -6z"/>
<path d="M330 5871 c0 -41 16 -47 28 -12 8 24 7 31 -5 35 -22 9 -23 8 -23 -23z"/>
<path d="M0 5344 c0 -8 5 -12 10 -9 6 4 8 11 5 16 -9 14 -15 11 -15 -7z"/>
<path d="M7202 4640 c0 -14 2 -19 5 -12 2 6 2 18 0 25 -3 6 -5 1 -5 -13z"/>
<path d="M7131 4634 c0 -11 3 -14 6 -6 3 7 2 16 -1 19 -3 4 -6 -2 -5 -13z"/>
<path d="M397 4530 c7 -24 8 -63 1 -104 -5 -32 16 -27 40 10 31 49 29 80 -5
89 -15 3 -32 12 -36 18 -5 7 -5 1 0 -13z"/>
<path d="M397 4268 c-20 -65 -21 -85 -4 -85 6 0 22 -3 33 -7 22 -7 22 -6 8 61
-8 37 -16 72 -17 77 -1 4 -10 -16 -20 -46z"/>
<path d="M7200 4305 c0 -8 4 -15 10 -15 5 0 7 7 4 15 -4 8 -8 15 -10 15 -2 0
-4 -7 -4 -15z"/>
<path d="M460 4073 c0 -4 5 -15 10 -23 8 -13 10 -13 10 2 0 9 -4 20 -10 23 -5
3 -10 3 -10 -2z"/>
<path d="M6720 3894 c0 -8 5 -25 12 -37 7 -12 13 -28 14 -34 3 -17 34 -47 40
-40 9 8 -6 67 -17 67 -5 0 -8 3 -7 8 3 11 -22 52 -32 52 -6 0 -10 -7 -10 -16z"/>
<path d="M6570 3542 c0 -24 54 -129 81 -156 21 -22 7 17 -36 98 -36 69 -45 81
-45 58z"/>
<path d="M12 3420 c-13 -22 -16 -60 -4 -60 17 0 32 25 32 52 0 33 -10 36 -28
8z"/>
<path d="M330 3310 c0 -5 -3 -9 -7 -9 -5 1 -23 -4 -40 -11 -25 -9 -33 -18 -33
-36 0 -35 25 -30 71 14 42 42 47 52 24 52 -8 0 -15 -4 -15 -10z"/>
<path d="M27 3113 l-27 -4 0 -102 c0 -56 5 -109 10 -117 10 -15 11 -13 14 25
0 11 7 20 15 20 8 0 16 6 19 13 2 7 -5 12 -17 12 -20 0 -23 6 -23 50 0 45 3
51 30 61 15 5 33 18 40 29 13 22 6 23 -61 13z"/>
<path d="M6735 2360 c3 -5 8 -10 11 -10 2 0 4 5 4 10 0 6 -5 10 -11 10 -5 0
-7 -4 -4 -10z"/>
<path d="M6795 2330 c3 -5 8 -10 11 -10 2 0 4 5 4 10 0 6 -5 10 -11 10 -5 0
-7 -4 -4 -10z"/>
<path d="M6826 2325 c-3 -9 0 -15 9 -15 9 0 12 6 9 15 -4 8 -7 15 -9 15 -2 0
-5 -7 -9 -15z"/>
<path d="M6887 2289 c7 -7 15 -10 18 -7 3 3 -2 9 -12 12 -14 6 -15 5 -6 -5z"/>
<path d="M1 2234 c0 -11 3 -14 6 -6 3 7 2 16 -1 19 -3 4 -6 -2 -5 -13z"/>
<path d="M7763 2204 c-10 -21 -9 -23 1 -15 8 6 20 9 29 5 23 -8 30 14 8 25
-26 14 -24 15 -38 -15z"/>
<path d="M7042 2194 c10 -10 20 -16 22 -13 3 3 -5 11 -17 18 -21 13 -21 12 -5
-5z"/>
<path d="M5703 2183 c-7 -2 -9 -11 -6 -20 5 -12 1 -14 -15 -8 -18 5 -22 2 -22
-15 0 -16 4 -20 16 -16 9 3 19 6 24 6 8 0 24 50 18 55 -2 1 -8 0 -15 -2z"/>
<path d="M1 2108 c-1 -58 1 -66 15 -61 16 6 16 20 -4 93 -9 32 -10 29 -11 -32z"/>
<path d="M7807 2163 c-4 -3 -7 -11 -7 -17 0 -6 5 -5 12 2 6 6 9 14 7 17 -3 3
-9 2 -12 -2z"/>
<path d="M7726 2132 c-3 -5 1 -15 9 -22 8 -7 15 -9 15 -4 0 5 5 2 10 -6 5 -8
10 -10 10 -4 0 16 -37 47 -44 36z"/>
<path d="M5535 2060 c3 -5 8 -10 11 -10 2 0 4 5 4 10 0 6 -5 10 -11 10 -5 0
-7 -4 -4 -10z"/>
<path d="M5570 2060 c0 -5 5 -10 10 -10 6 0 10 5 10 10 0 6 -4 10 -10 10 -5 0
-10 -4 -10 -10z"/>
<path d="M5553 2028 c2 -7 14 -13 26 -12 16 0 21 -5 21 -23 0 -17 -5 -23 -17
-21 -10 2 -21 8 -25 13 -10 14 -9 -15 2 -40 7 -17 9 -17 9 -2 1 18 16 23 26 7
8 -13 65 -8 65 6 0 7 -11 15 -25 18 -30 8 -33 26 -5 26 11 0 20 3 20 8 0 11
-51 32 -78 32 -15 0 -22 -5 -19 -12z"/>
<path d="M5519 1983 c-1 -5 -1 -16 0 -25 1 -9 -7 -19 -19 -23 -25 -8 -26 -21
-1 -34 14 -8 22 -7 31 4 6 8 9 18 6 24 -3 5 0 12 6 14 9 4 9 6 1 6 -6 1 -9 10
-6 21 3 11 0 20 -6 20 -6 0 -12 -3 -12 -7z"/>
<path d="M122 1948 c-7 -7 -12 -20 -12 -30 0 -15 5 -17 28 -12 41 10 55 24 41
40 -14 17 -41 18 -57 2z"/>
<path d="M5441 1923 c-1 -26 -17 -39 -25 -21 -3 7 -5 4 -3 -6 1 -11 7 -21 14
-23 14 -5 28 39 20 59 -3 7 -6 3 -6 -9z"/>
<path d="M5469 1863 c-10 -11 -10 -14 -1 -9 6 4 12 2 12 -3 0 -6 -7 -11 -15
-11 -8 0 -15 5 -15 11 0 5 -4 7 -10 4 -5 -3 -25 -2 -44 3 -30 9 -37 7 -53 -12
-21 -24 -37 -70 -22 -60 5 3 16 -2 25 -11 14 -14 14 -17 -8 -35 -12 -11 -20
-19 -15 -20 14 0 -23 -60 -38 -60 -9 0 -23 -9 -32 -19 -9 -11 -20 -18 -23 -16
-4 3 -16 -5 -26 -17 -11 -12 -13 -18 -6 -14 16 10 28 -22 13 -37 -8 -8 -11 -8
-11 1 0 7 -9 12 -20 12 -11 0 -20 -4 -20 -10 0 -5 8 -10 18 -10 10 0 13 -3 6
-8 -6 -4 -13 -15 -17 -24 -5 -13 -13 -16 -35 -12 -17 4 -32 1 -36 -5 -4 -6 0
-11 8 -11 9 0 16 -4 16 -9 0 -13 -27 -21 -45 -15 -18 7 -20 -7 -4 -23 14 -14
2 -36 -17 -29 -20 8 -83 -52 -77 -74 3 -11 -3 -22 -15 -29 -14 -7 -19 -19 -18
-36 3 -24 -21 -59 -46 -67 -11 -4 -10 -8 1 -22 12 -14 12 -16 -3 -10 -9 3 -16
11 -16 18 0 6 -7 -2 -16 -19 -10 -19 -11 -31 -5 -33 6 -2 11 -8 11 -14 0 -12
-42 -53 -62 -61 -9 -4 -10 -8 -2 -14 25 -18 5 -73 -26 -73 -47 0 -68 -49 -37
-88 8 -10 7 -16 -2 -22 -8 -4 -11 -16 -7 -28 5 -14 0 -28 -14 -42 -13 -13 -25
-42 -30 -73 -4 -28 -13 -53 -19 -55 -9 -3 -9 -7 0 -18 6 -8 8 -14 3 -14 -5 0
-3 -4 5 -9 11 -7 11 -13 -3 -32 -20 -30 -23 -63 -2 -36 19 25 27 21 16 -9 -6
-14 -10 -39 -10 -56 0 -34 -36 -118 -51 -118 -5 0 -9 -4 -9 -8 0 -5 14 -6 31
-4 22 3 30 1 25 -7 -4 -6 -14 -11 -22 -11 -8 0 -14 -4 -14 -9 0 -5 -3 -16 -6
-25 -4 -11 -1 -16 11 -16 9 0 20 10 23 22 5 19 7 16 13 -17 6 -32 3 -44 -13
-62 -21 -22 -16 -48 8 -39 24 9 4 -20 -26 -38 -32 -18 -40 -46 -15 -46 8 0 15
-4 15 -10 0 -5 -4 -10 -10 -10 -5 0 -10 -8 -10 -17 0 -15 2 -16 10 -3 7 11 10
11 10 2 0 -7 4 -11 9 -8 5 3 12 -1 15 -10 9 -22 8 -23 -14 -17 -20 5 -60 -21
-60 -39 0 -4 65 -8 145 -8 l145 0 6 25 c3 14 12 25 19 25 21 0 36 25 23 38 -9
9 -9 12 1 12 7 0 10 4 7 9 -3 4 3 16 14 26 23 21 26 35 7 35 -16 0 -19 58 -5
77 6 7 4 14 -6 20 -25 14 -24 66 1 86 17 14 21 25 16 47 -5 26 -2 30 16 30 12
0 21 6 21 15 0 8 -7 15 -15 15 -9 0 -12 6 -8 16 4 10 -1 17 -16 21 -11 3 -21
12 -21 20 0 8 5 11 10 8 6 -3 10 0 10 8 0 7 12 19 26 26 21 9 24 14 14 26 -7
8 -19 15 -26 15 -21 0 -17 17 6 23 24 6 17 33 -11 42 -20 7 -27 25 -9 25 6 0
10 10 10 22 0 14 19 40 52 71 28 26 44 45 36 42 -11 -4 -18 0 -21 12 -4 16 -5
16 -6 1 -1 -17 -2 -17 -20 -2 -19 16 -18 17 7 41 22 20 24 26 12 33 -8 6 -21
10 -27 10 -26 0 -13 41 16 51 29 10 47 51 33 74 -13 20 -10 38 11 66 11 16 26
29 33 29 7 0 10 8 6 22 -3 13 -1 19 6 15 5 -4 12 -1 14 5 3 7 11 13 19 14 43
3 49 5 49 14 0 6 -4 10 -10 10 -5 0 -18 8 -27 17 -17 17 -17 19 4 40 13 12 20
28 17 37 -8 21 45 67 70 60 13 -5 16 -3 11 7 -6 9 -4 11 7 6 10 -3 19 3 27 19
9 19 8 24 -4 24 -8 0 -15 -6 -15 -13 0 -9 -10 -12 -30 -9 -16 2 -28 8 -25 12
3 5 14 6 26 3 15 -4 22 0 26 16 3 11 9 21 14 21 5 0 9 5 9 10 0 6 -6 10 -14
10 -20 0 -45 32 -28 37 6 3 10 8 8 11 -2 4 3 13 11 21 13 12 14 11 9 -6 -3
-11 1 -27 9 -39 16 -19 16 -18 10 3 -5 19 -1 22 27 25 32 3 33 4 35 52 2 40
-1 49 -17 53 -11 3 -20 10 -20 15 0 5 9 6 21 3 18 -6 20 -4 14 14 -5 16 -2 21
13 21 10 0 21 3 25 6 8 9 -4 35 -13 29 -14 -9 -22 34 -10 52 10 15 11 15 6 1
-3 -9 2 -19 11 -22 10 -4 13 -2 10 8 -4 9 0 13 11 11 9 -2 21 -4 26 -4 4 -1 5
-13 2 -28 l-6 -28 25 30 c25 30 33 51 16 41 -5 -4 -7 3 -4 13 10 37 47 34 55
-4 2 -13 7 -3 14 27 11 46 11 46 -14 42 -14 -3 -29 -7 -34 -10 -4 -3 -5 2 -2
10 8 21 -10 20 -27 -1z"/>
<path d="M7710 1860 c-11 -7 -9 -11 13 -19 40 -15 58 -12 22 4 l-30 13 25 5
c19 3 20 5 5 5 -11 1 -27 -2 -35 -8z"/>
<path d="M5272 1751 c2 -7 7 -12 11 -12 12 1 9 15 -3 20 -7 2 -11 -2 -8 -8z"/>
<path d="M5255 1710 c-4 -6 1 -10 9 -10 10 0 13 -6 10 -15 -4 -8 -1 -15 5 -15
16 0 13 37 -4 43 -8 4 -17 2 -20 -3z"/>
<path d="M5125 1540 c-3 -6 1 -7 9 -4 18 7 21 14 7 14 -6 0 -13 -4 -16 -10z"/>
<path d="M6805 1480 c3 -5 8 -10 11 -10 2 0 4 5 4 10 0 6 -5 10 -11 10 -5 0
-7 -4 -4 -10z"/>
<path d="M6725 1260 c3 -5 8 -10 11 -10 2 0 4 5 4 10 0 6 -5 10 -11 10 -5 0
-7 -4 -4 -10z"/>
<path d="M284 1233 c-16 -17 -15 -18 17 -25 19 -3 38 -2 44 3 5 5 -4 9 -25 10
-28 0 -31 2 -15 8 11 5 26 6 33 4 6 -3 12 0 12 6 0 17 -47 13 -66 -6z"/>
<path d="M8845 1220 c-3 -5 -1 -10 4 -10 6 0 11 5 11 10 0 6 -2 10 -4 10 -3 0
-8 -4 -11 -10z"/>
<path d="M305 1180 c3 -5 15 -10 26 -10 11 0 17 5 14 10 -3 6 -15 10 -26 10
-11 0 -17 -4 -14 -10z"/>
<path d="M8867 1183 c-23 -6 -67 -47 -67 -63 0 -9 7 -8 24 4 14 9 27 12 31 7
10 -17 65 -10 64 8 -1 40 -16 52 -52 44z"/>
<path d="M8920 1174 c0 -8 6 -11 15 -8 8 4 15 9 15 13 0 4 -7 8 -15 8 -8 0
-15 -6 -15 -13z"/>
<path d="M267 1150 c-3 -10 1 -24 9 -31 17 -14 18 -56 2 -62 -7 -3 1 -6 19 -6
30 -1 32 1 28 31 -2 18 1 38 6 45 8 9 4 14 -15 19 -14 3 -26 10 -26 15 0 17
-18 9 -23 -11z"/>
<path d="M8754 1125 c-4 -8 -11 -12 -17 -8 -5 3 -20 7 -32 9 -18 1 -22 -2 -17
-18 4 -15 7 -17 14 -6 7 9 8 8 4 -5 -3 -10 -6 -23 -6 -28 0 -6 -7 -6 -19 0
-14 8 -22 7 -29 -2 -9 -10 -2 -13 32 -13 32 0 43 4 42 16 -1 8 4 14 11 13 6
-1 16 11 22 27 10 30 5 43 -5 15z"/>
<path d="M6950 1110 c0 -13 5 -17 20 -13 11 3 20 9 20 13 0 4 -9 10 -20 13
-15 4 -20 0 -20 -13z"/>
<path d="M6800 1059 c0 -14 28 -29 44 -23 25 10 19 21 -14 26 -16 3 -30 1 -30
-3z"/>
<path d="M6750 1051 c0 -6 4 -13 10 -16 6 -3 7 1 4 9 -7 18 -14 21 -14 7z"/>
<path d="M8920 1039 c0 -5 5 -7 10 -4 6 3 10 8 10 11 0 2 -4 4 -10 4 -5 0 -10
-5 -10 -11z"/>
<path d="M275 1030 c-4 -6 6 -10 22 -10 22 0 25 2 13 10 -19 12 -27 12 -35 0z"/>
<path d="M6820 1009 c0 -4 7 -9 15 -13 8 -3 15 -17 15 -32 0 -19 4 -25 15 -20
8 3 21 -1 29 -9 22 -22 36 -18 36 9 0 19 -7 26 -30 31 -34 7 -48 24 -30 35 6
4 -2 7 -19 6 -17 -1 -31 -4 -31 -7z"/>
<path d="M280 1000 c0 -5 7 -10 16 -10 8 0 12 5 9 10 -3 6 -10 10 -16 10 -5 0
-9 -4 -9 -10z"/>
<path d="M6776 991 c-8 -13 4 -41 17 -41 8 0 8 3 0 11 -6 6 -9 18 -6 25 6 16
-3 19 -11 5z"/>
<path d="M8723 985 c-26 -19 -10 -29 53 -32 49 -2 54 0 43 13 -10 12 -14 12
-21 2 -6 -10 -9 -8 -14 7 -6 25 -35 29 -61 10z"/>
<path d="M6800 979 c0 -5 5 -7 10 -4 6 3 10 8 10 11 0 2 -4 4 -10 4 -5 0 -10
-5 -10 -11z"/>
<path d="M10470 971 c0 -5 5 -13 10 -16 6 -3 10 -2 10 4 0 5 -4 13 -10 16 -5
3 -10 2 -10 -4z"/>
<path d="M8876 946 c6 -16 4 -18 -9 -13 -9 3 -17 2 -17 -2 0 -5 6 -11 14 -14
18 -7 30 23 16 37 -8 8 -9 6 -4 -8z"/>
<path d="M12540 930 c0 -5 7 -10 16 -10 8 0 12 5 9 10 -3 6 -10 10 -16 10 -5
0 -9 -4 -9 -10z"/>
<path d="M10232 923 c-10 -4 -10 -8 -1 -19 13 -16 29 -10 29 12 0 15 -6 16
-28 7z"/>
<path d="M6830 910 c0 -5 5 -10 11 -10 5 0 7 5 4 10 -3 6 -8 10 -11 10 -2 0
-4 -4 -4 -10z"/>
<path d="M8727 906 c-4 -9 3 -16 19 -19 29 -5 31 4 5 20 -15 10 -20 9 -24 -1z"/>
<path d="M6960 896 c14 -7 29 -10 34 -8 11 6 -20 20 -44 21 -8 0 -4 -5 10 -13z"/>
<path d="M10333 895 c-14 -10 -24 -12 -28 -5 -7 11 -45 -30 -45 -49 0 -6 -7
-11 -15 -11 -8 0 -15 -4 -15 -9 0 -11 51 -2 68 12 10 8 16 7 23 -4 9 -14 10
-11 13 24 1 17 17 27 44 27 25 0 30 15 6 24 -22 9 -27 8 -51 -9z"/>
<path d="M8311 873 c0 -25 1 -26 9 -8 12 27 12 35 0 35 -5 0 -10 -12 -9 -27z"/>
<path d="M10570 890 c19 -13 30 -13 30 0 0 6 -10 10 -22 10 -19 0 -20 -2 -8
-10z"/>
<path d="M6880 871 c0 -14 -2 -14 -10 -1 -5 8 -12 11 -15 8 -12 -12 7 -30 26
-25 19 5 24 -6 20 -45 -1 -10 4 -18 12 -18 9 0 14 9 14 23 -1 12 2 34 6 49 7
25 5 27 -23 26 -20 -1 -30 -6 -30 -17z"/>
<path d="M8790 869 c0 -5 5 -7 10 -4 6 3 10 8 10 11 0 2 -4 4 -10 4 -5 0 -10
-5 -10 -11z"/>
<path d="M306 851 c-4 -6 -14 -11 -23 -11 -9 0 -29 -14 -44 -31 -15 -17 -30
-26 -33 -21 -3 5 -18 7 -33 5 -16 -2 -46 -6 -68 -8 -21 -1 -41 -8 -43 -14 -2
-7 -9 -7 -22 1 -11 7 -22 9 -25 6 -12 -12 20 -61 40 -63 11 -1 39 -5 63 -9 30
-6 42 -4 42 4 0 10 4 9 15 0 12 -10 19 -10 27 -2 8 8 15 5 25 -15 24 -47 20
-49 -99 -51 -119 -3 -128 -5 -128 -28 0 -11 26 -14 149 -14 89 0 152 4 156 10
3 6 2 10 -3 10 -5 0 -12 11 -14 25 -4 17 0 26 12 30 10 3 26 21 35 41 15 33
15 38 -3 91 -11 30 -22 50 -26 44z"/>
<path d="M8830 850 c0 -4 11 -10 25 -12 14 -3 25 -2 25 2 0 4 -11 10 -25 12
-14 3 -25 2 -25 -2z"/>
<path d="M10357 854 c-6 -7 14 -44 24 -44 3 0 6 10 5 22 -1 21 -17 34 -29 22z"/>
<path d="M6960 829 c7 -11 14 -19 16 -16 7 7 -7 37 -17 37 -6 0 -5 -9 1 -21z"/>
<path d="M8400 840 c0 -5 5 -10 10 -10 6 0 10 5 10 10 0 6 -4 10 -10 10 -5 0
-10 -4 -10 -10z"/>
<path d="M10400 840 c0 -5 5 -10 10 -10 6 0 10 5 10 10 0 6 -4 10 -10 10 -5 0
-10 -4 -10 -10z"/>
<path d="M10490 840 c-8 -6 -10 -10 -5 -10 6 0 4 -4 -4 -9 -11 -7 -12 -15 -5
-31 9 -20 10 -20 26 8 19 31 11 57 -12 42z"/>
<path d="M10451 814 c0 -11 3 -14 6 -6 3 7 2 16 -1 19 -3 4 -6 -2 -5 -13z"/>
<path d="M12428 809 c6 -7 12 -21 12 -30 0 -10 6 -19 13 -22 17 -6 47 4 47 15
0 5 -8 8 -17 6 -10 -2 -22 5 -28 16 -5 11 -17 21 -25 24 -12 4 -13 2 -2 -9z"/>
<path d="M8770 800 c0 -5 7 -10 15 -10 8 0 15 -5 15 -12 0 -6 2 -9 5 -6 3 3 3
13 -1 22 -7 17 -34 22 -34 6z"/>
<path d="M10250 795 c-10 -13 -9 -15 9 -15 12 0 21 6 21 15 0 8 -4 15 -9 15
-5 0 -14 -7 -21 -15z"/>
<path d="M10327 803 c-12 -11 -8 -23 8 -23 8 0 15 7 15 15 0 16 -12 20 -23 8z"/>
<path d="M10150 766 c0 -9 30 -14 35 -6 4 6 -3 10 -14 10 -12 0 -21 -2 -21 -4z"/>
<path d="M6905 750 c-3 -5 -5 -11 -3 -11 3 -2 46 -9 66 -11 6 -1 12 -5 12 -9
0 -4 -6 -10 -12 -13 -7 -3 -4 -5 7 -3 12 1 20 10 20 22 0 16 -6 19 -27 17 -14
-1 -29 2 -33 8 -8 13 -22 13 -30 0z"/>
<path d="M10228 743 c7 -3 16 -2 19 1 4 3 -2 6 -13 5 -11 0 -14 -3 -6 -6z"/>
<path d="M6907 693 c-12 -11 -8 -23 8 -23 8 0 15 7 15 15 0 16 -12 20 -23 8z"/>
<path d="M6040 680 c0 -5 7 -10 16 -10 8 0 12 5 9 10 -3 6 -10 10 -16 10 -5 0
-9 -4 -9 -10z"/>
<path d="M8688 683 c7 -3 16 -2 19 1 4 3 -2 6 -13 5 -11 0 -14 -3 -6 -6z"/>
<path d="M10317 648 c6 -11 61 -10 67 1 3 5 -12 8 -33 7 -21 0 -37 -4 -34 -8z"/>
<path d="M10576 645 c4 -8 8 -15 10 -15 2 0 4 7 4 15 0 8 -4 15 -10 15 -5 0
-7 -7 -4 -15z"/>
<path d="M8300 635 c0 -8 5 -15 10 -15 6 0 10 7 10 15 0 8 -4 15 -10 15 -5 0
-10 -7 -10 -15z"/>
<path d="M8680 633 c0 -7 11 -13 24 -13 36 0 41 17 6 22 -20 3 -30 0 -30 -9z"/>
<path d="M468 626 c-10 -9 -20 -11 -31 -4 -11 6 -17 5 -17 -2 0 -13 -32 -9
-42 5 -4 6 -8 2 -8 -7 0 -13 9 -18 33 -19 17 -1 44 -2 60 -3 16 -1 27 3 27 11
0 7 5 13 11 13 5 0 7 5 4 10 -9 14 -21 13 -37 -4z"/>
<path d="M5980 610 c-16 -4 -26 -14 -28 -28 -4 -27 18 -29 25 -2 7 25 23 26
23 1 0 -14 5 -18 20 -14 23 6 27 23 6 23 -8 0 -16 6 -18 13 -2 9 -12 11 -28 7z"/>
<path d="M6910 601 c-5 -11 -7 -27 -4 -36 5 -13 10 -10 25 15 23 37 23 40 4
40 -8 0 -19 -9 -25 -19z"/>
<path d="M10175 610 c3 -5 8 -10 11 -10 2 0 4 5 4 10 0 6 -5 10 -11 10 -5 0
-7 -4 -4 -10z"/>
<path d="M8320 590 c0 -11 2 -20 4 -20 2 0 6 9 9 20 3 11 1 20 -4 20 -5 0 -9
-9 -9 -20z"/>
<path d="M8622 584 c-7 -8 -12 -21 -10 -30 3 -13 6 -13 25 1 13 9 20 22 17 30
-8 19 -15 18 -32 -1z"/>
<path d="M10315 590 c-3 -5 -1 -10 4 -10 6 0 11 5 11 10 0 6 -2 10 -4 10 -3 0
-8 -4 -11 -10z"/>
<path d="M10185 580 c-3 -5 -1 -10 4 -10 6 0 11 5 11 10 0 6 -2 10 -4 10 -3 0
-8 -4 -11 -10z"/>
<path d="M6936 564 c-9 -24 -4 -24 18 -3 16 16 17 19 4 19 -9 0 -19 -7 -22
-16z"/>
<path d="M7947 573 c-11 -11 -8 -20 7 -20 8 0 12 6 9 14 -6 15 -7 15 -16 6z"/>
<path d="M10160 549 c0 -5 11 -9 25 -9 14 0 25 2 25 4 0 2 -11 6 -25 8 -14 3
-25 1 -25 -3z"/>
<path d="M5997 530 c-3 -11 -1 -23 4 -26 5 -3 9 6 9 20 0 31 -6 34 -13 6z"/>
<path d="M10240 540 c0 -5 4 -10 9 -10 6 0 13 5 16 10 3 6 -1 10 -9 10 -9 0
-16 -4 -16 -10z"/>
<path d="M5927 523 c-15 -14 -7 -43 12 -43 11 0 22 3 24 8 6 10 -28 44 -36 35z"/>
<path d="M6916 507 c-4 -15 -9 -18 -14 -10 -5 8 -13 9 -22 3 -21 -13 -4 -24
40 -25 24 0 42 5 48 16 7 11 6 16 -4 16 -7 0 -11 -4 -8 -9 3 -4 0 -8 -5 -8 -6
0 -11 6 -11 14 0 25 -17 27 -24 3z"/>
<path d="M10540 516 c0 -10 8 -16 22 -16 12 0 19 1 17 3 -2 1 -12 9 -21 16
-15 12 -18 11 -18 -3z"/>
<path d="M8310 490 c-13 -11 -19 -20 -13 -20 5 0 18 9 28 20 10 11 16 20 13
20 -3 0 -15 -9 -28 -20z"/>
<path d="M4365 490 c3 -5 8 -10 11 -10 2 0 4 5 4 10 0 6 -5 10 -11 10 -5 0 -7
-4 -4 -10z"/>
<path d="M8174 472 c-24 -3 -37 -41 -23 -64 5 -7 9 -8 9 -3 0 6 9 16 21 23 12
8 18 9 14 3 -9 -16 10 -13 24 2 15 18 -16 44 -45 39z"/>
<path d="M10180 464 c0 -8 5 -12 10 -9 6 3 10 10 10 16 0 5 -4 9 -10 9 -5 0
-10 -7 -10 -16z"/>
<path d="M12335 470 c3 -5 8 -10 11 -10 2 0 4 5 4 10 0 6 -5 10 -11 10 -5 0
-7 -4 -4 -10z"/>
<path d="M8786 453 c-8 -19 14 -37 28 -23 5 5 2 15 -7 24 -14 14 -16 14 -21
-1z"/>
<path d="M4340 445 c0 -9 5 -15 11 -13 6 2 11 8 11 13 0 5 -5 11 -11 13 -6 2
-11 -4 -11 -13z"/>
<path d="M6910 452 c0 -4 11 -12 23 -18 17 -8 26 -7 35 2 18 19 15 22 -23 22
-19 0 -35 -3 -35 -6z"/>
<path d="M5903 433 c-7 -3 -13 -8 -13 -12 0 -4 6 -8 13 -8 6 0 18 -2 26 -4 7
-2 16 2 19 10 3 10 0 12 -11 8 -9 -3 -17 -2 -19 2 -2 4 -9 6 -15 4z"/>
<path d="M8290 430 c0 -5 5 -10 10 -10 6 0 10 5 10 10 0 6 -4 10 -10 10 -5 0
-10 -4 -10 -10z"/>
<path d="M4346 398 c1 -13 3 -27 3 -32 1 -6 6 -5 13 2 23 23 26 12 7 -24 -21
-42 -18 -54 14 -54 21 -1 21 -2 -5 -25 -16 -13 -28 -29 -28 -34 0 -6 -8 -14
-17 -20 -10 -5 -16 -11 -13 -13 3 -2 18 -10 35 -18 34 -18 46 -50 20 -50 -13
0 -15 -4 -8 -13 6 -6 9 -23 6 -37 -2 -14 -4 -33 -4 -43 0 -12 -5 -17 -14 -13
-9 3 -12 0 -8 -10 4 -10 24 -14 83 -14 l78 0 -2 38 c-2 20 -8 49 -14 63 -6 15
-8 36 -5 48 4 16 1 21 -13 21 -13 0 -15 3 -7 8 8 5 10 24 8 50 -5 50 -11 62
-31 62 -12 0 -20 33 -15 63 1 5 -6 21 -16 38 -22 37 -71 42 -67 7z m58 -72
c-5 -13 -9 -14 -21 -4 -13 10 -13 13 4 19 23 8 25 6 17 -15z"/>
<path d="M5858 413 c7 -3 16 -2 19 1 4 3 -2 6 -13 5 -11 0 -14 -3 -6 -6z"/>
<path d="M8111 390 c-9 -5 -8 -9 5 -14 9 -4 21 -3 26 2 12 12 -15 23 -31 12z"/>
<path d="M8200 393 c0 -21 12 -43 25 -43 7 0 16 7 19 16 9 23 7 31 -4 14 -8
-13 -11 -12 -24 5 -9 11 -16 15 -16 8z"/>
<path d="M10226 391 c-3 -5 1 -11 9 -14 9 -4 12 -1 8 9 -6 16 -10 17 -17 5z"/>
<path d="M6904 379 c-3 -5 -15 -9 -26 -9 -12 0 -18 -3 -14 -7 11 -11 106 -9
103 1 -5 14 -56 26 -63 15z"/>
<path d="M8265 380 c-3 -5 -1 -10 4 -10 6 0 11 5 11 10 0 6 -2 10 -4 10 -3 0
-8 -4 -11 -10z"/>
<path d="M10650 379 c0 -5 5 -7 10 -4 6 3 10 8 10 11 0 2 -4 4 -10 4 -5 0 -10
-5 -10 -11z"/>
<path d="M12274 368 c1 -17 8 -24 28 -25 32 -3 35 7 10 30 -26 23 -40 21 -38
-5z"/>
<path d="M5960 361 c0 -5 5 -13 10 -16 6 -3 10 -2 10 4 0 5 -4 13 -10 16 -5 3
-10 2 -10 -4z"/>
<path d="M5890 350 c0 -5 5 -10 10 -10 6 0 10 5 10 10 0 6 -4 10 -10 10 -5 0
-10 -4 -10 -10z"/>
<path d="M4950 331 c0 -6 4 -13 10 -16 6 -3 7 1 4 9 -7 18 -14 21 -14 7z"/>
<path d="M12620 305 c0 -8 5 -15 10 -15 6 0 10 7 10 15 0 8 -4 15 -10 15 -5 0
-10 -7 -10 -15z"/>
<path d="M5810 290 c0 -12 -7 -20 -17 -20 -16 0 -16 -1 0 -17 20 -21 57 -25
50 -6 -4 9 0 11 11 7 24 -9 11 17 -19 39 -24 17 -25 17 -25 -3z"/>
<path d="M6810 283 c8 -3 18 -11 22 -17 5 -7 8 -4 8 7 0 11 -7 17 -22 16 -16
0 -18 -2 -8 -6z"/>
<path d="M5930 270 c0 -5 5 -10 10 -10 6 0 10 5 10 10 0 6 -4 10 -10 10 -5 0
-10 -4 -10 -10z"/>
<path d="M6855 262 c-16 -10 -34 -23 -38 -29 -4 -7 -17 -13 -27 -13 -11 0 -20
-4 -20 -10 0 -15 22 -12 48 6 12 8 32 14 45 12 18 -2 22 2 23 25 1 15 1 27 0
26 -1 0 -14 -8 -31 -17z"/>
<path d="M10630 269 c-13 -9 -13 -10 1 -6 9 3 22 0 28 -6 8 -8 11 -7 11 6 0
19 -18 22 -40 6z"/>
<path d="M6901 244 c0 -11 3 -14 6 -6 3 7 2 16 -1 19 -3 4 -6 -2 -5 -13z"/>
<path d="M6952 240 c0 -14 2 -19 5 -12 2 6 2 18 0 25 -3 6 -5 1 -5 -13z"/>
<path d="M7850 230 c0 -5 5 -10 10 -10 6 0 10 5 10 10 0 6 -4 10 -10 10 -5 0
-10 -4 -10 -10z"/>
<path d="M8566 231 c-6 -10 6 -15 27 -12 4 0 7 -3 7 -9 0 -5 7 -10 15 -10 8 0
15 5 15 10 0 9 -14 12 -36 9 -4 0 -10 5 -14 11 -5 9 -9 9 -14 1z"/>
<path d="M8740 230 c0 -5 14 -10 32 -10 36 0 35 4 -4 14 -17 4 -28 2 -28 -4z"/>
<path d="M7950 220 c0 -5 4 -10 9 -10 6 0 13 5 16 10 3 6 -1 10 -9 10 -9 0
-16 -4 -16 -10z"/>
<path d="M8820 220 c0 -5 5 -10 10 -10 6 0 10 5 10 10 0 6 -4 10 -10 10 -5 0
-10 -4 -10 -10z"/>
<path d="M5851 178 c-16 -26 -14 -28 22 -22 30 5 31 5 13 -10 -11 -9 -26 -16
-33 -16 -7 0 -13 -6 -13 -14 0 -9 -7 -12 -19 -9 -16 4 -19 1 -14 -16 3 -12 12
-21 19 -21 17 0 18 -17 2 -23 -7 -2 -10 -8 -6 -12 4 -4 20 8 35 25 23 25 34
31 51 26 20 -7 22 -12 16 -42 -7 -41 1 -43 28 -8 13 16 27 24 39 21 10 -3 20
2 23 10 5 11 2 13 -10 9 -34 -13 -110 31 -89 52 3 3 5 0 5 -6 0 -17 27 -15 34
3 4 10 -1 15 -15 15 -11 0 -18 4 -14 10 3 5 12 7 20 3 8 -3 15 -1 15 5 0 14
-38 22 -44 8 -2 -6 -5 -4 -5 5 -1 24 -46 30 -60 7z"/>
<path d="M10610 190 c0 -5 7 -10 15 -10 8 0 15 5 15 10 0 6 -7 10 -15 10 -8 0
-15 -4 -15 -10z"/>
<path d="M5815 179 c-4 -6 -5 -13 -2 -16 7 -7 27 6 27 18 0 12 -17 12 -25 -2z"/>
<path d="M7020 180 c0 -5 5 -10 10 -10 6 0 10 5 10 10 0 6 -4 10 -10 10 -5 0
-10 -4 -10 -10z"/>
<path d="M8005 150 c3 -5 8 -10 11 -10 2 0 4 5 4 10 0 6 -5 10 -11 10 -5 0 -7
-4 -4 -10z"/>
<path d="M8770 148 c-16 -7 -20 -12 -12 -15 8 -3 21 2 30 11 19 18 17 19 -18
4z"/>
<path d="M6932 139 c2 -6 7 -10 11 -10 4 1 14 1 22 1 8 0 15 5 15 10 0 6 -12
10 -26 10 -14 0 -24 -5 -22 -11z"/>
<path d="M8103 135 c-18 -8 -33 -16 -33 -18 0 -4 46 0 75 7 11 2 26 5 34 5 19
1 11 7 -19 14 -14 3 -40 -1 -57 -8z"/>
<path d="M7910 129 c0 -5 5 -7 10 -4 6 3 10 8 10 11 0 2 -4 4 -10 4 -5 0 -10
-5 -10 -11z"/>
<path d="M8002 110 c-10 -17 -10 -20 3 -20 8 0 15 9 15 20 0 11 -1 20 -3 20
-1 0 -8 -9 -15 -20z"/>
<path d="M12530 120 c0 -5 5 -10 11 -10 5 0 7 5 4 10 -3 6 -8 10 -11 10 -2 0
-4 -4 -4 -10z"/>
<path d="M7940 93 c0 -10 4 -14 8 -8 4 6 11 13 16 18 5 4 2 7 -7 7 -10 0 -17
-8 -17 -17z"/>
<path d="M8170 91 c0 -5 -17 -8 -39 -7 -59 1 -88 -33 -61 -74 9 -13 11 -13 19
-1 5 8 26 16 48 18 44 5 48 8 57 46 5 20 3 27 -9 27 -8 0 -15 -4 -15 -9z"/>
<path d="M8206 85 c-3 -9 -6 -24 -5 -33 0 -9 5 -4 10 12 9 32 6 48 -5 21z"/>
<path d="M8445 90 c3 -5 8 -10 11 -10 2 0 4 5 4 10 0 6 -5 10 -11 10 -5 0 -7
-4 -4 -10z"/>
<path d="M12306 68 c-8 -42 -8 -45 9 -45 8 0 12 4 9 9 -3 5 0 15 6 23 9 11 9
18 -3 29 -13 13 -15 12 -21 -16z"/>
<path d="M6930 51 c0 -6 4 -13 10 -16 6 -3 7 1 4 9 -7 18 -14 21 -14 7z"/>
<path d="M8735 50 c-3 -5 1 -10 10 -10 9 0 13 5 10 10 -3 6 -8 10 -10 10 -2 0
-7 -4 -10 -10z"/>
<path d="M10151 50 c-7 -4 -12 -13 -10 -19 3 -8 10 -8 23 2 21 15 9 31 -13 17z"/>
<path d="M7077 44 c-12 -13 -7 -20 13 -20 11 0 19 5 17 10 -4 13 -21 18 -30
10z"/>
<path d="M7981 43 c0 -6 -4 -18 -7 -27 -8 -22 32 -21 54 1 16 15 15 16 -10 10
-20 -5 -28 -3 -31 10 -3 10 -5 13 -6 6z"/>
<path d="M8434 36 c-3 -9 -15 -16 -25 -16 -34 0 -20 -16 16 -18 29 -2 35 1 35
17 0 25 -18 37 -26 17z"/>
<path d="M8485 40 c-3 -5 -1 -10 4 -10 6 0 11 5 11 10 0 6 -2 10 -4 10 -3 0
-8 -4 -11 -10z"/>
<path d="M8605 41 c-3 -6 -12 -11 -18 -10 -26 3 -37 -2 -37 -16 0 -11 11 -15
40 -15 40 0 49 11 31 39 -6 9 -10 10 -16 2z"/>
<path d="M8360 15 c0 -8 5 -15 10 -15 6 0 10 7 10 15 0 8 -4 15 -10 15 -5 0
-10 -7 -10 -15z"/>
</g>
</svg>
